<?xml version="1.0" standalone="no"?>
<!DOCTYPE svg PUBLIC "-//W3C//DTD SVG 1.1//EN" "http://www.w3.org/Graphics/SVG/1.1/DTD/svg11.dtd" >
<svg xmlns="http://www.w3.org/2000/svg">
<metadata></metadata>
<defs>
<font id="via_typebold" horiz-adv-x="1527" >
<font-face units-per-em="2048" ascent="1638" descent="-410" />
<missing-glyph horiz-adv-x="512" />
<glyph horiz-adv-x="0" />
<glyph horiz-adv-x="682" />
<glyph unicode=" "  horiz-adv-x="512" />
<glyph unicode="&#x09;" horiz-adv-x="512" />
<glyph unicode="&#xa0;" horiz-adv-x="512" />
<glyph unicode="!" horiz-adv-x="618" d="M150 0v317h319v-317h-319zM154 1434h311l-16 -1012h-279z" />
<glyph unicode="&#x22;" horiz-adv-x="901" d="M111 1434h284l-18 -646h-248zM506 1434h285l-19 -646h-248z" />
<glyph unicode="#" horiz-adv-x="1277" d="M33 352l33 232h213l40 266h-213l33 229h213l54 355h227l-55 -355h227l55 355h225l-53 -355h211l-31 -229h-215l-39 -266h213l-34 -232h-213l-52 -352h-227l53 352h-227l-53 -352h-225l51 352h-211zM506 584h225l41 266h-227z" />
<glyph unicode="$" horiz-adv-x="1259" d="M55 498h299q22 -104 98.5 -149.5t206.5 -45.5q256 0 256 137q0 26 -6.5 45t-24 33t-34.5 23t-52 17t-62.5 12.5t-78.5 11.5l-84 12q-87 12 -151.5 26.5t-130 43.5t-106.5 69t-67 103.5t-26 146.5q0 175 119 274.5t313 122.5v162h250v-162q90 -11 160.5 -39.5t127.5 -79 t91 -131t41 -188.5h-287q-14 102 -82 145t-188 43q-112 0 -180 -33.5t-68 -103.5q0 -75 86 -106q44 -15 174 -33l86 -12q57 -8 102.5 -17.5t96 -25t88 -35t73.5 -49t59 -66t36.5 -86.5t13.5 -110q0 -177 -116 -280t-314 -126v-174h-250v174q-448 52 -469 451z" />
<glyph unicode="%" horiz-adv-x="1523" d="M45 1114v14q0 148 94.5 237t233.5 89q141 0 232 -88.5t91 -237.5v-14q0 -148 -92 -238t-233 -90q-139 0 -232.5 90.5t-93.5 237.5zM215 0l844 1434h250l-844 -1434h-250zM242 1116q0 -65 36 -104t95 -39t93 38.5t34 104.5v6q0 67 -34 105.5t-93 38.5q-58 0 -94.5 -39 t-36.5 -105v-6zM836 307v15q0 149 93.5 237t233.5 88q142 0 233 -87.5t91 -237.5v-15q0 -147 -92.5 -237t-233.5 -90q-138 0 -231.5 90.5t-93.5 236.5zM1032 311q0 -67 35 -105t94 -38q60 0 94.5 38t34.5 105v6q0 67 -34 105.5t-93 38.5t-95 -38.5t-36 -105.5v-6z" />
<glyph unicode="&#x26;" horiz-adv-x="1380" d="M59 389q0 43 7 83t16 70t30 65.5t35 56.5t46.5 57t49 53t56.5 57q-70 109 -70 230q0 176 118.5 284.5t324.5 108.5q221 0 343 -134t122 -382h-279q-3 238 -186 238q-69 0 -113.5 -39t-44.5 -105q0 -57 44.5 -116.5t192.5 -215.5l6 -6t5 -5.5t6 -6.5l137 -145l115 184h305 l-223 -391l317 -330h-356l-125 129q-159 -149 -403 -149q-214 0 -345 109t-131 300zM346 401q8 -65 60 -104t133 -39q109 0 198 80l-286 299q-94 -111 -105 -186q-3 -25 0 -50z" />
<glyph unicode="'" horiz-adv-x="505" d="M111 1434h284l-18 -646h-248z" />
<glyph unicode="(" horiz-adv-x="681" d="M88 457v94q0 459 119.5 672t404.5 225v-254q-72 -9 -121 -41t-86 -103t-54 -192t-17 -301v-94q0 -236 32.5 -373t90.5 -192.5t155 -67.5v-254q-283 10 -403.5 226t-120.5 655z" />
<glyph unicode=")" horiz-adv-x="681" d="M70 -170q73 9 122 41t85.5 102t53.5 191t17 301v94q0 180 -17 300.5t-53.5 191t-85.5 102.5t-122 41v254q145 -6 245.5 -62t162.5 -169t89 -274t27 -388v-92q0 -445 -120 -661t-404 -226v254z" />
<glyph unicode="*" horiz-adv-x="796" d="M59 1032v166q33 0 99.5 -1t99.5 -1l-119 158l140 100l124 -201l121 201l138 -96l-115 -162q31 0 95 1t95 1v-166q-32 0 -95 1t-93 1l108 -155l-135 -101l-119 203l-124 -203l-146 101l115 155q-32 0 -95 -1t-94 -1z" />
<glyph unicode="+" horiz-adv-x="1030" d="M82 446v248h313v307h240v-307h313v-248h-313v-317h-240v317h-313z" />
<glyph unicode="," horiz-adv-x="452" d="M-4 -233l106 552h314l-189 -552h-231z" />
<glyph unicode="-" horiz-adv-x="772" d="M82 393v273h608v-273h-608z" />
<glyph unicode="." horiz-adv-x="481" d="M80 0v317h321v-317h-321z" />
<glyph unicode="/" horiz-adv-x="970" d="M0 -410l676 1844h295l-674 -1844h-297z" />
<glyph unicode="0" horiz-adv-x="1331" d="M80 633v168q0 166 44.5 292.5t124.5 204.5t185 117t232 39q126 0 231 -39t185.5 -117t125.5 -205t45 -292v-168q0 -165 -45 -291.5t-125 -204.5t-185.5 -117.5t-231.5 -39.5t-231 39.5t-185 117.5t-125 204.5t-45 291.5zM371 633q0 -192 78.5 -282.5t216.5 -90.5 t216.5 90.5t78.5 282.5v168q0 373 -295 373t-295 -373v-168z" />
<glyph unicode="1" horiz-adv-x="862" d="M55 920v313l375 201h285v-1434h-285v1112z" />
<glyph unicode="2" horiz-adv-x="1198" d="M72 961v30q2 208 140 335.5t392 127.5q229 0 360.5 -127t131.5 -323q0 -55 -10 -104t-34.5 -95t-47.5 -80t-68.5 -80t-75.5 -73.5t-90 -79.5l-250 -218h588v-274h-1024v274l405 353q163 136 206 179q84 86 90 164q1 8 1 17q0 82 -52 135.5t-148 53.5q-103 0 -162 -57.5 t-64 -157.5h-288z" />
<glyph unicode="3" horiz-adv-x="1230" d="M47 457h295q36 -197 285 -197q118 0 184 54.5t66 146.5q0 98 -70.5 141t-212.5 43h-164v217l336 301h-662v271h1010v-271l-366 -309q212 -18 315.5 -112t103.5 -285q0 -214 -148.5 -345.5t-406.5 -131.5q-248 0 -401.5 122.5t-163.5 354.5z" />
<glyph unicode="4" horiz-adv-x="1230" d="M59 285v270l564 879h335l-575 -879h453v414h284v-969h-284v285h-777z" />
<glyph unicode="5" horiz-adv-x="1226" d="M102 432h291q20 -82 88.5 -127t173.5 -45q110 0 175 60t65 159q0 102 -62 157.5t-171 55.5q-157 0 -269 -94h-274l117 836h872v-271h-633l-41 -284q125 73 287 73q207 0 334 -121.5t127 -341.5v-18q0 -219 -141 -355t-392 -136q-246 0 -392 124t-155 328z" />
<glyph unicode="6" horiz-adv-x="1198" d="M66 483v13q0 272 274 610l260 328h358l-411 -482q49 17 119 17q210 0 348.5 -128t138.5 -345v-13q0 -220 -151 -361.5t-398 -141.5q-253 0 -395.5 135t-142.5 368zM356 475q0 -100 67.5 -158.5t184.5 -58.5q114 0 185 60.5t71 164.5q0 108 -67.5 168t-186.5 60 q-111 0 -182.5 -63.5t-71.5 -166.5v-6z" />
<glyph unicode="7" horiz-adv-x="1081" d="M31 1159v275h1032v-275l-594 -1159h-315l612 1159h-735z" />
<glyph unicode="8" horiz-adv-x="1296" d="M90 418v8q0 119 60 202.5t161 127.5q-85 41 -134.5 115.5t-49.5 172.5v11q0 185 146 292t378 107q231 0 373.5 -106.5t142.5 -292.5v-11q0 -96 -50 -169.5t-136 -116.5q104 -42 164.5 -126t60.5 -206v-8q0 -205 -152 -321.5t-407 -116.5q-262 0 -409.5 115.5 t-147.5 322.5zM387 442q0 -92 69.5 -140t190.5 -48q123 0 191.5 48.5t68.5 141.5q0 94 -69 141.5t-189 47.5q-118 0 -190 -49t-72 -142zM420 1006q0 -78 60 -123t167 -45t166 45t59 125q0 82 -57.5 127t-163.5 45q-105 0 -168 -46t-63 -128z" />
<glyph unicode="9" horiz-adv-x="1187" d="M59 938v12q0 219 151 361.5t398 142.5q253 0 395 -136t142 -370v-12q0 -279 -260 -604l-260 -332h-359l346 422l43 53q-42 -10 -73 -10q-234 0 -378.5 127t-144.5 346zM348 944q0 -104 71 -162.5t187 -58.5q113 0 180.5 64t67.5 165v9q0 100 -66.5 157.5t-181.5 57.5 q-114 0 -186 -61t-72 -165v-6z" />
<glyph unicode=":" horiz-adv-x="524" d="M100 0v317h322v-317h-322zM100 651v318h322v-318h-322z" />
<glyph unicode=";" horiz-adv-x="491" d="M0 -233l106 552h314l-189 -552h-231zM100 651v318h322v-318h-322z" />
<glyph unicode="&#x3c;" horiz-adv-x="845" d="M82 393v299l680 283v-252l-465 -182l465 -181v-249z" />
<glyph unicode="=" horiz-adv-x="917" d="M102 223v244h713v-244h-713zM102 633v244h713v-244h-713z" />
<glyph unicode="&#x3e;" horiz-adv-x="845" d="M84 111v249l463 181l-463 182v252l680 -283v-299z" />
<glyph unicode="?" horiz-adv-x="966" d="M8 1016q3 194 133.5 316t343.5 122q200 0 324.5 -106t124.5 -283q0 -72 -18 -130.5t-46.5 -98.5t-63 -74t-69 -64t-63 -61.5t-46.5 -74.5t-18 -95v-45h-278v72q0 66 16.5 121.5t43.5 93.5t59 71t64.5 61.5t59.5 56.5t43.5 64t16.5 78q0 61 -42.5 97.5t-113.5 36.5 q-87 0 -138.5 -44.5t-59.5 -113.5h-273zM309 0v317h322v-317h-322z" />
<glyph unicode="@" horiz-adv-x="1792" d="M72 434q0 268 113.5 470t307.5 306.5t439 104.5q241 0 423 -101t279 -284t97 -422q0 -148 -41.5 -262.5t-127 -183t-204.5 -68.5q-170 0 -246 141q-82 -141 -258 -141q-165 0 -258.5 121.5t-93.5 316.5v27q0 208 104.5 322t261.5 114q55 0 89.5 -11.5t72.5 -35.5l27 -19 l26 50h197v-504q0 -79 17.5 -115.5t60.5 -36.5q59 0 92 76.5t33 192.5q0 265 -135.5 415t-403.5 150q-134 0 -246 -40t-194.5 -116.5t-129 -196.5t-46.5 -272q0 -285 165.5 -443.5t462.5 -158.5q187 0 320 45v-252q-128 -51 -326 -51q-195 0 -357.5 60.5t-277.5 170.5 t-179 272t-64 359zM745 436q0 -97 40 -154t112 -57q78 0 119 60.5t41 169.5v182l-23 14q-56 29 -112 29q-80 0 -128.5 -58t-48.5 -169v-17z" />
<glyph unicode="A" horiz-adv-x="1419" d="M23 0l540 1434h293l541 -1434h-293l-105 276h-579l-105 -276h-292zM508 512h401l-200 530z" />
<glyph unicode="B" horiz-adv-x="1368" d="M156 0v1434h579q245 0 379.5 -98t134.5 -281q0 -227 -215 -312q256 -83 256 -333q0 -198 -140 -304t-380 -106h-614zM440 262h332q117 0 175.5 45.5t58.5 130.5q0 174 -244 174h-322v-350zM440 840h291q116 0 174 42.5t58 123.5q0 84 -57 124.5t-175 40.5h-291v-331z" />
<glyph unicode="C" horiz-adv-x="1466" d="M78 711v20q0 170 53 308.5t146 228t217 138t268 48.5q166 0 300.5 -55t224 -171t106.5 -280h-301q-31 110 -115.5 166.5t-214.5 56.5q-176 0 -285.5 -116.5t-109.5 -323.5v-20q0 -210 109 -329.5t286 -119.5q132 0 219.5 61.5t112.5 163.5h301q-15 -164 -105 -280.5 t-225.5 -171.5t-302.5 -55q-144 0 -268 49t-217 140t-146 230.5t-53 311.5z" />
<glyph unicode="D" horiz-adv-x="1476" d="M156 0v1434h534q319 0 515 -189.5t196 -513.5v-20q0 -216 -93.5 -378.5t-256.5 -247.5t-371 -85h-524zM440 283h248q205 0 313.5 112.5t108.5 315.5v20q0 201 -108.5 310.5t-313.5 109.5h-248v-868z" />
<glyph unicode="E" horiz-adv-x="1273" d="M156 0v1434h997v-275h-713v-297h686v-268h-686v-320h713v-274h-997z" />
<glyph unicode="F" horiz-adv-x="1249" d="M156 0v1434h993v-275h-709v-317h682v-269h-682v-573h-284z" />
<glyph unicode="G" horiz-adv-x="1536" d="M78 711v20q0 170 53.5 308.5t146.5 228t217 138t267 48.5q268 0 440.5 -130t204.5 -376h-299q-72 223 -346 223q-177 0 -286 -116t-109 -324v-20q0 -211 109.5 -330t297.5 -119q80 0 146 24t106 62t62.5 80t25.5 84h-266v229h563v-741h-268v180q-16 -28 -48.5 -59.5 t-83.5 -64.5t-129 -54.5t-167 -21.5q-134 0 -250.5 51t-202.5 144t-135 231.5t-49 304.5z" />
<glyph unicode="H" horiz-adv-x="1472" d="M156 0v1434h284v-568h592v568h285v-1434h-285v592h-592v-592h-284z" />
<glyph unicode="I" horiz-adv-x="595" d="M156 0v1434h284v-1434h-284z" />
<glyph unicode="J" horiz-adv-x="864" d="M29 0v276h188q119 0 176.5 58t57.5 176v924h284v-924q0 -266 -121 -388t-385 -122h-200z" />
<glyph unicode="K" horiz-adv-x="1386" d="M156 0v1434h284v-627l578 627h340l-559 -611l594 -823h-351l-436 608l-166 -182v-426h-284z" />
<glyph unicode="L" horiz-adv-x="1150" d="M156 0v1434h284v-1160h676v-274h-960z" />
<glyph unicode="M" horiz-adv-x="1746" d="M156 0v1434h348l370 -785l369 785h348v-1434h-284v965l-297 -615h-269l-301 617v-967h-284z" />
<glyph unicode="N" horiz-adv-x="1509" d="M156 0v1434h311l600 -969v969h287v-1434h-312l-602 967v-967h-284z" />
<glyph unicode="O" d="M78 711v20q0 170 53.5 308.5t147 228t217.5 138t268 48.5q142 0 266 -48.5t218.5 -138t149 -228t54.5 -308.5v-20q0 -171 -54.5 -311t-149 -231t-219 -140t-265.5 -49q-144 0 -268.5 49t-217.5 140t-146.5 230.5t-53.5 311.5zM367 711q0 -210 109.5 -329.5t287.5 -119.5 q177 0 287 119.5t110 329.5v20q0 207 -109.5 323.5t-287.5 116.5q-179 0 -288 -116t-109 -324v-20z" />
<glyph unicode="P" horiz-adv-x="1339" d="M156 0v1434h602q526 0 526 -461q0 -234 -135.5 -348.5t-388.5 -114.5h-320v-510h-284zM440 782h320q127 0 185.5 46t58.5 143q0 99 -58.5 145.5t-187.5 46.5h-318v-381z" />
<glyph unicode="Q" d="M78 711v20q0 170 53.5 308.5t147 228t217.5 138t268 48.5q142 0 266 -48.5t218.5 -138t149 -228t54.5 -308.5v-20q0 -188 -65 -334t-179 -240l154 -276h-328l-80 143q-88 -24 -190 -24q-144 0 -268.5 49t-217.5 140t-146.5 230.5t-53.5 311.5zM367 711 q0 -210 109.5 -329.5t287.5 -119.5q37 0 53 2l-119 221h324l37 -69q102 102 102 295v20q0 207 -109.5 323.5t-287.5 116.5q-179 0 -288 -116t-109 -324v-20z" />
<glyph unicode="R" horiz-adv-x="1382" d="M156 0v1434h602q247 0 386.5 -116t139.5 -341q0 -153 -74 -260.5t-209 -157.5l306 -559h-320l-268 518h-279v-518h-284zM440 791h320q121 0 182.5 47.5t61.5 136.5q0 188 -246 188h-318v-372z" />
<glyph unicode="S" horiz-adv-x="1323" d="M80 475h289q21 -120 99 -174.5t220 -54.5q268 0 268 168q0 84 -62 120.5t-204 55.5l-86 12q-87 11 -156 28t-133 48.5t-106.5 75.5t-68 110.5t-25.5 151.5q0 110 44 195.5t121.5 137.5t175.5 78.5t212 26.5q118 0 213.5 -26t172.5 -82.5t123.5 -154.5t55.5 -233h-283 q-13 120 -83.5 175t-198.5 55q-115 0 -186.5 -43.5t-71.5 -126.5q0 -37 14 -64.5t33.5 -43.5t59.5 -29t71 -19.5t90 -15.5l76 -12q61 -9 108.5 -19t100.5 -27t93 -37.5t77.5 -51.5t61 -69t38 -90t14.5 -114q0 -113 -42.5 -199.5t-118.5 -140t-176.5 -80t-221.5 -26.5 q-97 0 -180.5 15t-160.5 50.5t-133 91t-91.5 141.5t-42.5 197z" />
<glyph unicode="T" horiz-adv-x="1230" d="M33 1159v275h1165v-275h-440v-1159h-285v1159h-440z" />
<glyph unicode="U" horiz-adv-x="1443" d="M129 623v811h285v-811q0 -101 24 -174t67.5 -113.5t96.5 -59t119 -18.5t119 18.5t96.5 59t67.5 113.5t24 174v811h287v-811q0 -169 -43 -294.5t-123.5 -200.5t-186.5 -111.5t-241 -36.5q-133 0 -239 36.5t-186 111.5t-123.5 200.5t-43.5 294.5z" />
<glyph unicode="V" horiz-adv-x="1363" d="M16 1434h297l375 -1031l377 1031h293l-522 -1434h-295z" />
<glyph unicode="W" horiz-adv-x="1941" d="M0 1434h295l379 -1051l184 573l-168 478h293l346 -1008l322 1008h293l-469 -1434h-281l-201 567l-170 -567h-293z" />
<glyph unicode="X" horiz-adv-x="1363" d="M23 0l501 735l-479 699h324l327 -478l310 478h327l-477 -711l500 -723h-326l-348 504l-330 -504h-329z" />
<glyph unicode="Y" horiz-adv-x="1312" d="M-2 1434h309l348 -625l351 625h309l-516 -926v-508h-285v504z" />
<glyph unicode="Z" horiz-adv-x="1269" d="M86 0v285l752 864h-744v285h1096v-285l-754 -864h758v-285h-1108z" />
<glyph unicode="[" horiz-adv-x="657" d="M117 -410v1844h465v-250h-215v-1344h215v-250h-465z" />
<glyph unicode="\" horiz-adv-x="968" d="M0 1434h295l674 -1844h-297z" />
<glyph unicode="]" horiz-adv-x="657" d="M76 -160h215v1344h-215v250h465v-1844h-465v250z" />
<glyph unicode="_" horiz-adv-x="993" d="M82 -51h829v-273h-829v273z" />
<glyph unicode="`" horiz-adv-x="727" d="M100 1794h297l226 -309h-285z" />
<glyph unicode="a" horiz-adv-x="1103" d="M78 274q0 269 328 324l299 49v15q0 82 -39.5 118.5t-114.5 36.5q-151 0 -162 -119h-266q3 174 117.5 260t312.5 86q213 0 323.5 -99t110.5 -288v-657h-244l-38 72q-3 -1 -39 -20.5t-54.5 -26.5t-57 -20.5t-80 -19t-89.5 -5.5q-133 0 -220 83t-87 211zM344 297 q0 -45 32.5 -70.5t86.5 -25.5q65 0 172 39l70 26v183l-236 -41q-59 -10 -92 -40.5t-33 -70.5z" />
<glyph unicode="b" horiz-adv-x="1196" d="M131 0v1434h283v-490l28 19q127 81 248 81q193 0 314.5 -136t121.5 -365v-43q0 -226 -123.5 -373t-312.5 -147q-123 0 -248 81l-28 19l-41 -80h-242zM414 315q31 -28 87.5 -48.5t112.5 -20.5q103 0 165.5 68t62.5 188v28q0 114 -60.5 179t-163.5 65q-39 0 -77.5 -10 t-53.5 -17.5l-51 -25.5l-22 -12v-394z" />
<glyph unicode="c" horiz-adv-x="1105" d="M66 500v35q0 235 142 372t370 137q207 0 333 -106t136 -295h-273q-35 152 -192 152q-112 0 -171 -72.5t-59 -198.5v-24q0 -125 56.5 -198t169.5 -73q162 0 200 154h271q-6 -177 -138 -290t-336 -113q-233 0 -371 140t-138 380z" />
<glyph unicode="d" horiz-adv-x="1196" d="M70 479v43q0 231 123.5 376.5t320.5 145.5q139 0 242 -65l26 -16v471h283v-1434h-244l-39 82l-14 -12q-43 -36 -109.5 -63t-144.5 -27q-201 0 -322.5 135t-121.5 364zM354 492q0 -114 62 -180t166 -66q102 0 188 59l12 8v396l-12 8q-87 57 -184 57q-104 0 -168 -68 t-64 -188v-26z" />
<glyph unicode="e" horiz-adv-x="1105" d="M66 496v41q0 234 139.5 370.5t367.5 136.5q100 0 185.5 -33t148.5 -96t99 -159.5t36 -216.5q0 -70 -2 -105h-702q10 -105 70 -161t155 -56q155 0 195 125h266q-15 -173 -136.5 -267.5t-324.5 -94.5q-225 0 -361 138t-136 378zM340 614h430q-7 97 -59 150t-138 53 q-92 0 -154 -52.5t-79 -150.5z" />
<glyph unicode="f" horiz-adv-x="788" d="M25 756v268h182q0 222 91 316t286 94h196v-242h-178q-58 0 -84 -26t-26 -87v-55h245v-268h-245v-756h-285v756h-182z" />
<glyph unicode="g" horiz-adv-x="1196" d="M70 498v37q0 223 123.5 366t322.5 143q136 0 248 -86l18 -14l41 80h242v-954q0 -238 -130 -369t-366 -131q-204 0 -327 95.5t-140 273.5h277q34 -119 190 -119q213 0 213 243v43q-40 -36 -110.5 -68t-155.5 -32q-200 0 -323 133.5t-123 358.5zM354 510q0 -108 62 -171 t166 -63q102 0 188 58l12 8v367l-22 14q-76 48 -176 51q-103 0 -166.5 -65.5t-63.5 -180.5v-18z" />
<glyph unicode="h" horiz-adv-x="1191" d="M131 0v1434h285v-490l47 25q142 73 266 73q151 0 247 -97.5t97 -272.5v-672h-285v590q-1 96 -44.5 142t-116.5 46q-75 0 -152 -41l-59 -30v-707h-285z" />
<glyph unicode="i" horiz-adv-x="544" d="M127 1163v252h291v-252h-291zM131 0v1024h283v-1024h-283z" />
<glyph unicode="j" horiz-adv-x="552" d="M-125 -143h123q72 0 106.5 34t34.5 109v1024h283v-1047q0 -387 -373 -387h-174v267zM135 1163v252h291v-252h-291z" />
<glyph unicode="k" horiz-adv-x="1140" d="M131 0v1434h283v-789l370 379h328l-387 -397l426 -627h-322l-288 434l-127 -131v-303h-283z" />
<glyph unicode="l" horiz-adv-x="542" d="M131 0v1434h283v-1434h-283z" />
<glyph unicode="m" horiz-adv-x="1812" d="M131 0v1024h244l41 -80l37 21q139 79 268 79q175 0 266 -129l94 52q144 77 279 77q153 0 244.5 -97.5t91.5 -274.5v-672h-285v594q0 184 -151 184q-70 0 -158 -43l-51 -24q4 -62 4 -95v-616h-285v594q0 184 -149 184q-82 0 -156 -43l-49 -28v-707h-285z" />
<glyph unicode="n" horiz-adv-x="1191" d="M131 0v1024h244l41 -80l45 25q135 75 268 75q151 0 247 -98.5t97 -273.5v-672h-285v590q-1 97 -44.5 142.5t-116.5 45.5q-75 0 -152 -41l-59 -30v-707h-285z" />
<glyph unicode="o" horiz-adv-x="1161" d="M63 500v37q0 155 70.5 273t188.5 178.5t264 60.5q226 0 370 -138.5t144 -373.5v-35q0 -241 -145 -384t-373 -143q-108 0 -203 37t-165 103.5t-110.5 166t-40.5 218.5zM348 498q0 -120 63 -192.5t171 -72.5q113 0 172 72t59 195v26q0 124 -59.5 194.5t-167.5 70.5 q-107 0 -172.5 -71.5t-65.5 -193.5v-28z" />
<glyph unicode="p" horiz-adv-x="1196" d="M131 -410v1434h242l41 -80l28 19q123 81 248 81q197 0 316.5 -135.5t119.5 -365.5v-43q0 -233 -118 -378t-330 -145q-125 0 -248 78l-16 11v-476h-283zM414 313l18 -12q85 -55 180 -55q103 0 166.5 69t63.5 187v28q0 115 -61 179.5t-167 64.5q-90 0 -182 -53l-18 -10 v-398z" />
<glyph unicode="q" horiz-adv-x="1196" d="M70 479v43q0 232 122 377t320 145q118 0 246 -83l24 -17l39 80h244v-1434h-283v490l-16 -12q-118 -88 -252 -88q-201 0 -322.5 135t-121.5 364zM354 492q0 -114 62 -180t166 -66q97 0 182 55l18 12v396l-18 12q-80 50 -178 53q-104 0 -168 -68t-64 -188v-26z" />
<glyph unicode="r" horiz-adv-x="763" d="M131 0v1024h244l41 -94l55 31q66 38 121.5 50.5t144.5 12.5v-270q-107 0 -167 -9.5t-109 -31.5l-45 -21v-692h-285z" />
<glyph unicode="s" horiz-adv-x="1026" d="M61 324h267q12 -67 56 -99t132 -32q78 0 121 26t43 78q-1 50 -40.5 73.5t-135.5 35.5l-74 10q-174 24 -262 96.5t-88 214.5q0 82 35 144t97 99t140.5 55.5t171.5 18.5q128 0 220 -34.5t147.5 -112t58.5 -195.5h-266q-5 64 -47.5 99t-116.5 35q-76 0 -122 -28.5t-46 -78.5 q0 -45 46 -68.5t157 -37.5l63 -9q174 -23 260.5 -93.5t86.5 -211.5q0 -166 -121 -247.5t-332 -81.5q-203 0 -324 84.5t-127 259.5z" />
<glyph unicode="t" horiz-adv-x="817" d="M23 756v268h178v248h282v-248h265v-268h-265v-359q0 -68 26 -99.5t83 -31.5h162v-266h-228q-99 0 -163 25.5t-99.5 83t-49 135t-13.5 196.5v316h-178z" />
<glyph unicode="u" horiz-adv-x="1191" d="M119 352v672h284v-590q0 -96 44 -142t118 -46q72 0 152 41l59 30v707h285v-1024h-244l-41 80l-41 -23q-133 -75 -272 -75q-151 0 -247 97.5t-97 272.5z" />
<glyph unicode="v" horiz-adv-x="1069" d="M6 1024h281l254 -657l252 657h280l-393 -1024h-281z" />
<glyph unicode="w" horiz-adv-x="1548" d="M-14 1024h272l260 -694l139 385l-112 309h268l240 -662l241 662h273l-375 -1024h-272l-142 381l-137 -381h-270z" />
<glyph unicode="x" horiz-adv-x="1067" d="M-6 0l391 528l-360 496h321l203 -281l188 281h324l-363 -485l394 -539h-322l-235 322l-220 -322h-321z" />
<glyph unicode="y" horiz-adv-x="1069" d="M-16 1024h297l266 -668l260 668h285l-557 -1434h-287l160 412z" />
<glyph unicode="z" horiz-adv-x="1038" d="M86 0v260l510 504h-504v260h856v-260l-497 -504h501v-260h-866z" />
<glyph unicode="{" horiz-adv-x="837" d="M68 391v242h38q92 0 136.5 46.5t44.5 129.5v238q0 222 95.5 311.5t322.5 89.5h71v-225h-71q-94 0 -133.5 -40t-39.5 -145v-235q0 -126 -40 -195t-140 -94q100 -31 140 -98.5t40 -192.5v-207q0 -105 39 -144.5t134 -39.5h71v-256h-71q-222 0 -320 102.5t-98 327.5v211 q0 83 -44.5 128.5t-136.5 45.5h-38z" />
<glyph unicode="|" horiz-adv-x="579" d="M147 -410v1844h285v-1844h-285z" />
<glyph unicode="}" horiz-adv-x="837" d="M59 -168h72q96 0 134 39.5t38 144.5v207q0 125 40 192.5t140 98.5q-100 25 -140 94t-40 195v235q0 106 -38.5 145.5t-133.5 39.5h-72v225h72q227 0 322.5 -89.5t95.5 -311.5v-238q0 -83 45 -129.5t137 -46.5h39v-242h-39q-92 0 -137 -46t-45 -128v-211q0 -225 -98 -327.5 t-320 -102.5h-72v256z" />
<glyph unicode="&#xa3;" horiz-adv-x="1208" d="M53 0v274q93 1 147.5 53.5t67.5 133.5q12 40 15 88h-185v211h160q-33 169 -33 241q0 219 131 336t346 117q216 0 337 -126.5t122 -373.5h-274q-3 220 -185 220q-86 0 -138 -51t-52 -146q0 -31 3.5 -64.5t11 -82t10.5 -70.5h376v-211h-356q0 -53 -8 -94q-13 -117 -86 -181 h715v-274h-1125z" />
<glyph unicode="&#xa6;" horiz-adv-x="579" d="M147 -410v846h285v-846h-285zM147 629v805h285v-805h-285z" />
<glyph unicode="&#xa7;" horiz-adv-x="1138" d="M80 510q0 186 166 295q-113 96 -113 272q0 175 125 276t326 101q207 0 323 -105.5t119 -297.5h-252q-21 153 -190 153q-84 0 -135.5 -36t-51.5 -97q0 -59 38 -88t126 -53l137 -37q187 -49 283 -135t96 -240q0 -177 -151 -297q98 -95 98 -250q0 -180 -121 -290.5 t-330 -110.5q-208 0 -331 104.5t-127 296.5h254q12 -75 66 -113t140 -38q88 0 137.5 36.5t49.5 100.5q0 60 -41.5 92.5t-130.5 52.5l-127 29q-193 43 -288 131.5t-95 247.5zM340 537q0 -68 47.5 -106t149.5 -64q28 -7 64.5 -17t60.5 -16t49 -10q106 63 106 165 q0 73 -52.5 110t-197.5 79q-59 17 -108 27q-119 -55 -119 -168z" />
<glyph unicode="&#xa8;" horiz-adv-x="849" d="M100 1468v275h265v-275h-265zM471 1468v275h264v-275h-264z" />
<glyph unicode="&#xab;" horiz-adv-x="1050" d="M37 369v295l469 340v-267l-311 -221l311 -219v-264zM524 369v295l482 350v-275l-320 -225l320 -221v-266z" />
<glyph unicode="&#xac;" horiz-adv-x="1011" d="M39 780v244h924v-553h-246v309h-678z" />
<glyph unicode="&#xad;" horiz-adv-x="772" d="M82 393v273h608v-273h-608z" />
<glyph unicode="&#xb0;" horiz-adv-x="710" d="M51 1139v18q0 137 88 217t219 80q132 0 216.5 -79.5t84.5 -217.5v-18q0 -135 -87.5 -216t-219.5 -81q-126 0 -213.5 81.5t-87.5 215.5zM248 1145q0 -52 29.5 -80.5t76.5 -28.5q52 0 79.5 28t27.5 81v6q0 52 -28.5 81.5t-74.5 29.5q-49 0 -79.5 -29t-30.5 -82v-6z" />
<glyph unicode="&#xb1;" horiz-adv-x="1001" d="M104 59v213h793v-213h-793zM104 588v219h285v237h225v-237h283v-219h-283v-240h-225v240h-285z" />
<glyph unicode="&#xb4;" horiz-adv-x="681" d="M84 1485l231 309h297l-243 -309h-285z" />
<glyph unicode="&#xb6;" horiz-adv-x="1386" d="M66 887v33q0 245 124.5 379.5t333.5 134.5h332v-1844h-268v783h-64q-208 0 -333 136t-125 378zM967 -410v1844h268v-1844h-268z" />
<glyph unicode="&#xb7;" horiz-adv-x="591" d="M106 545v373h379v-373h-379z" />
<glyph unicode="&#xb8;" horiz-adv-x="536" d="M66 -258h75q65 0 92 9.5t27 37.5q0 45 -84 45h-55l76 129h47q229 0 229 -166q0 -92 -73.5 -149.5t-235.5 -57.5h-98v152z" />
<glyph unicode="&#xbb;" horiz-adv-x="1050" d="M45 27v266l320 223l-320 223v275l481 -350v-293zM545 33v264l311 219l-311 221v267l469 -340v-293z" />
<glyph unicode="&#xbc;" horiz-adv-x="1490" d="M55 1112v215l199 107h197v-703h-197v479zM188 0l844 1434h250l-844 -1434h-250zM821 109v186l264 407h232l-273 -413h173v162h198v-451h-198v109h-396z" />
<glyph unicode="&#xbd;" horiz-adv-x="1519" d="M55 1112v215l199 107h197v-703h-197v479zM188 0l844 1434h250l-844 -1434h-250zM897 451q-2 119 70 190.5t213 71.5q128 0 198 -65t70 -169q0 -26 -7 -51t-22.5 -49t-29 -42t-38.5 -41t-39.5 -35t-43 -34.5t-37.5 -29.5l-41 -33h260v-164h-543v152l170 131q48 37 71 55.5 t49.5 44t37 45t10.5 39.5q0 29 -19 49.5t-55 20.5q-42 0 -64 -23.5t-20 -62.5h-190z" />
<glyph unicode="&#xbe;" horiz-adv-x="1585" d="M59 971h189q18 -88 119 -88q44 0 71 21.5t27 56.5q0 75 -100 75h-107v123l172 107h-344v168h539v-181l-166 -102q198 -23 198 -193q0 -103 -80.5 -172t-218.5 -69q-132 0 -213.5 66t-85.5 188zM283 0l845 1434h248l-841 -1434h-252zM918 109v186l262 407h233l-274 -413 h174v162h196v-451h-196v109h-395z" />
<glyph unicode="&#xc0;" horiz-adv-x="1419" d="M23 0l540 1434h293l541 -1434h-293l-105 276h-579l-105 -276h-292zM301 1722h346l207 -227h-295zM508 512h401l-200 530z" />
<glyph unicode="&#xc1;" horiz-adv-x="1419" d="M23 0l540 1434h293l541 -1434h-293l-105 276h-579l-105 -276h-292zM508 512h401l-200 530zM563 1495l213 227h346l-264 -227h-295z" />
<glyph unicode="&#xc2;" horiz-adv-x="1419" d="M23 0l540 1434h293l541 -1434h-293l-105 276h-579l-105 -276h-292zM336 1495l237 227h252l256 -227h-264l-112 121l-103 -121h-266zM508 512h401l-200 530z" />
<glyph unicode="&#xc3;" horiz-adv-x="1419" d="M23 0l540 1434h293l541 -1434h-293l-105 276h-579l-105 -276h-292zM397 1489q7 119 59.5 179.5t129.5 60.5q42 0 81.5 -17.5t75 -39.5t58.5 -27q19 -6 35 0q39 8 49 79h141q-6 -112 -57.5 -175.5t-132.5 -63.5q-43 0 -87.5 22.5t-81 45t-59.5 22.5q-56 0 -69 -86h-142z M508 512h401l-200 530z" />
<glyph unicode="&#xc4;" horiz-adv-x="1419" d="M23 0l540 1434h293l541 -1434h-293l-105 276h-579l-105 -276h-292zM430 1501v211h225v-211h-225zM508 512h401l-200 530zM762 1501v211h225v-211h-225z" />
<glyph unicode="&#xc5;" horiz-adv-x="1419" d="M23 0l501 1331q-71 58 -71 164v6q0 103 69.5 162t184.5 59q116 0 186 -59t70 -162v-6q0 -102 -70 -162l504 -1333h-293l-107 279h-577l-105 -279h-292zM508 512h401l-200 530zM623 1495q0 -38 22 -60t62 -22q41 0 63.5 22.5t22.5 59.5v6q0 36 -23 58t-63 22t-62 -22 t-22 -58v-6z" />
<glyph unicode="&#xc6;" horiz-adv-x="2056" d="M12 0l807 1434h1116v-275h-694v-293h668v-274h-668v-318h694v-274h-977v326h-442l-180 -326h-324zM657 590h301v534z" />
<glyph unicode="&#xc7;" horiz-adv-x="1466" d="M78 711v20q0 170 53 308.5t146 228t217 138t268 48.5q166 0 300.5 -55t224 -171t106.5 -280h-301q-31 110 -115.5 166.5t-214.5 56.5q-176 0 -285.5 -116.5t-109.5 -323.5v-20q0 -210 109 -329.5t286 -119.5q132 0 219.5 61.5t112.5 163.5h301q-15 -164 -105 -280.5 t-225.5 -171.5t-302.5 -55q-144 0 -268 49t-217 140t-146 230.5t-53 311.5zM528 -272h78q65 0 92 9.5t27 37.5q0 47 -84 47h-57l78 127h47q229 0 229 -166q0 -91 -74 -148t-237 -57h-99v150z" />
<glyph unicode="&#xc8;" horiz-adv-x="1273" d="M156 0v1434h997v-275h-713v-297h686v-268h-686v-320h713v-274h-997zM313 1722h346l207 -227h-297z" />
<glyph unicode="&#xc9;" horiz-adv-x="1273" d="M156 0v1434h997v-275h-713v-297h686v-268h-686v-320h713v-274h-997zM463 1495l213 227h344l-262 -227h-295z" />
<glyph unicode="&#xca;" horiz-adv-x="1273" d="M156 0v1434h997v-275h-713v-297h686v-268h-686v-320h713v-274h-997zM297 1497l238 227h249l258 -227h-264l-112 121l-103 -121h-266z" />
<glyph unicode="&#xcb;" horiz-adv-x="1273" d="M156 0v1434h997v-275h-713v-297h686v-268h-686v-320h713v-274h-997zM385 1507v211h225v-211h-225zM717 1507v211h223v-211h-223z" />
<glyph unicode="&#xcc;" horiz-adv-x="604" d="M-98 1722h344l207 -227h-295zM164 0v1434h287v-1434h-287z" />
<glyph unicode="&#xcd;" horiz-adv-x="604" d="M154 1495l213 227h346l-264 -227h-295zM156 0v1434h284v-1434h-284z" />
<glyph unicode="&#xce;" horiz-adv-x="620" d="M-61 1495l237 227h252l258 -227h-264l-115 121l-100 -121h-268zM168 0v1434h287v-1434h-287z" />
<glyph unicode="&#xcf;" horiz-adv-x="624" d="M35 1505v213h223v-213h-223zM170 0v1434h285v-1434h-285zM365 1505v213h225v-213h-225z" />
<glyph unicode="&#xd0;" horiz-adv-x="1533" d="M43 606v242h172v586h533q320 0 515 -189t195 -514v-20q0 -216 -93.5 -378.5t-256.5 -247.5t-371 -85h-522v606h-172zM500 283h245q205 0 313.5 112.5t108.5 315.5v20q0 201 -107.5 310.5t-311.5 109.5h-48h-200v-303h295v-242h-295v-323z" />
<glyph unicode="&#xd1;" horiz-adv-x="1509" d="M156 0v1434h311l600 -969v969h287v-1434h-312l-602 967v-967h-284zM444 1489q7 118 60 179t131 61q41 0 80.5 -18.5t75 -41t57.5 -27.5q18 -3 37 0q38 11 47 82h141q-6 -113 -57.5 -176t-132.5 -63q-43 0 -87.5 22t-81 44t-59.5 22q-54 0 -69 -84h-142z" />
<glyph unicode="&#xd2;" d="M78 711v20q0 170 53.5 308.5t147 228t217.5 138t268 48.5q142 0 266 -48.5t218.5 -138t149 -228t54.5 -308.5v-20q0 -171 -54.5 -311t-149 -231t-219 -140t-265.5 -49q-144 0 -268.5 49t-217.5 140t-146.5 230.5t-53.5 311.5zM367 711q0 -210 109.5 -329.5t287.5 -119.5 q177 0 287 119.5t110 329.5v20q0 207 -109.5 323.5t-287.5 116.5q-179 0 -288 -116t-109 -324v-20zM371 1729h346l207 -228h-295z" />
<glyph unicode="&#xd3;" d="M78 711v20q0 170 53.5 308.5t147 228t217.5 138t268 48.5q142 0 266 -48.5t218.5 -138t149 -228t54.5 -308.5v-20q0 -171 -54.5 -311t-149 -231t-219 -140t-265.5 -49q-144 0 -268.5 49t-217.5 140t-146.5 230.5t-53.5 311.5zM367 711q0 -210 109.5 -329.5t287.5 -119.5 q177 0 287 119.5t110 329.5v20q0 207 -109.5 323.5t-287.5 116.5q-179 0 -288 -116t-109 -324v-20zM561 1501l213 228h346l-262 -228h-297z" />
<glyph unicode="&#xd4;" d="M78 711v20q0 170 53.5 308.5t147 228t217.5 138t268 48.5q142 0 266 -48.5t218.5 -138t149 -228t54.5 -308.5v-20q0 -171 -54.5 -311t-149 -231t-219 -140t-265.5 -49q-144 0 -268.5 49t-217.5 140t-146.5 230.5t-53.5 311.5zM367 711q0 -210 109.5 -329.5t287.5 -119.5 q177 0 287 119.5t110 329.5v20q0 207 -109.5 323.5t-287.5 116.5q-179 0 -288 -116t-109 -324v-20zM387 1501l238 228h252l258 -228h-265l-112 121l-103 -121h-268z" />
<glyph unicode="&#xd5;" d="M78 711v20q0 170 53.5 308.5t147 228t217.5 138t268 48.5q142 0 266 -48.5t218.5 -138t149 -228t54.5 -308.5v-20q0 -171 -54.5 -311t-149 -231t-219 -140t-265.5 -49q-144 0 -268.5 49t-217.5 140t-146.5 230.5t-53.5 311.5zM367 711q0 -210 109.5 -329.5t287.5 -119.5 q177 0 287 119.5t110 329.5v20q0 207 -109.5 323.5t-287.5 116.5q-179 0 -288 -116t-109 -324v-20zM440 1499q7 118 60 179t131 61q42 0 81.5 -18t74.5 -39.5t57 -26.5q18 -6 37 0q41 8 47 80h141q-4 -112 -55.5 -176t-132.5 -64q-43 0 -87.5 22.5t-81 45t-59.5 22.5 q-56 0 -69 -86h-144z" />
<glyph unicode="&#xd6;" d="M78 711v20q0 170 53.5 308.5t147 228t217.5 138t268 48.5q142 0 266 -48.5t218.5 -138t149 -228t54.5 -308.5v-20q0 -171 -54.5 -311t-149 -231t-219 -140t-265.5 -49q-144 0 -268.5 49t-217.5 140t-146.5 230.5t-53.5 311.5zM367 711q0 -210 109.5 -329.5t287.5 -119.5 q177 0 287 119.5t110 329.5v20q0 207 -109.5 323.5t-287.5 116.5q-179 0 -288 -116t-109 -324v-20zM487 1507v211h224v-211h-224zM817 1507v211h225v-211h-225z" />
<glyph unicode="&#xd7;" horiz-adv-x="901" d="M59 328l230 229l-230 234l160 159l232 -231l231 231l160 -159l-232 -234l232 -229l-160 -160l-231 229l-232 -229z" />
<glyph unicode="&#xd8;" d="M78 711v20q0 170 53.5 308.5t147 228t217.5 138t268 48.5q164 0 295 -61l39 55h284l-127 -191q197 -197 197 -526v-20q0 -171 -54.5 -311t-149 -231t-219 -140t-265.5 -49q-171 0 -315 69l-43 -63h-285l135 204q-178 197 -178 521zM367 711q0 -156 63 -260l467 698 q-64 20 -139 20q-174 0 -282.5 -116.5t-108.5 -321.5v-20zM610 293q73 -31 154 -31q177 0 287 119t110 330v20q0 163 -76 273z" />
<glyph unicode="&#xd9;" horiz-adv-x="1443" d="M129 623v811h285v-811q0 -101 24 -174t67.5 -113.5t96.5 -59t119 -18.5t119 18.5t96.5 59t67.5 113.5t24 174v811h287v-811q0 -169 -43 -294.5t-123.5 -200.5t-186.5 -111.5t-241 -36.5q-133 0 -239 36.5t-186 111.5t-123.5 200.5t-43.5 294.5zM354 1722h346l207 -227 h-295z" />
<glyph unicode="&#xda;" horiz-adv-x="1443" d="M129 623v811h285v-811q0 -101 24 -174t67.5 -113.5t96.5 -59t119 -18.5t119 18.5t96.5 59t67.5 113.5t24 174v811h287v-811q0 -169 -43 -294.5t-123.5 -200.5t-186.5 -111.5t-241 -36.5q-133 0 -239 36.5t-186 111.5t-123.5 200.5t-43.5 294.5zM549 1495l211 227h346 l-262 -227h-295z" />
<glyph unicode="&#xdb;" horiz-adv-x="1443" d="M129 623v811h285v-811q0 -101 24 -174t67.5 -113.5t96.5 -59t119 -18.5t119 18.5t96.5 59t67.5 113.5t24 174v811h287v-811q0 -169 -43 -294.5t-123.5 -200.5t-186.5 -111.5t-241 -36.5q-133 0 -239 36.5t-186 111.5t-123.5 200.5t-43.5 294.5zM358 1495l238 227h252 l256 -227h-262l-115 121l-102 -121h-267z" />
<glyph unicode="&#xdc;" horiz-adv-x="1443" d="M129 623v811h285v-811q0 -101 24 -174t67.5 -113.5t96.5 -59t119 -18.5t119 18.5t96.5 59t67.5 113.5t24 174v811h287v-811q0 -169 -43 -294.5t-123.5 -200.5t-186.5 -111.5t-241 -36.5q-133 0 -239 36.5t-186 111.5t-123.5 200.5t-43.5 294.5zM442 1501v211h224v-211 h-224zM774 1501v211h223v-211h-223z" />
<glyph unicode="&#xdd;" horiz-adv-x="1312" d="M-2 1434h309l348 -625l351 625h309l-516 -926v-508h-285v504zM479 1495l213 227h346l-262 -227h-297z" />
<glyph unicode="&#xde;" horiz-adv-x="1339" d="M156 0v1434h284v-242h305q527 0 527 -447q0 -228 -135.5 -338t-386.5 -110h-310v-297h-284zM440 567h310q127 0 184 42.5t57 133.5q0 92 -58.5 135.5t-187.5 43.5h-305v-355z" />
<glyph unicode="&#xdf;" horiz-adv-x="1331" d="M25 756v268h186q12 111 57.5 194.5t116.5 134.5t159 76t191 25q214 0 343.5 -115t129.5 -305q0 -195 -151 -280q227 -75 227 -336q0 -204 -132.5 -311t-391.5 -107h-119v252h107q126 0 187.5 45t61.5 139q0 185 -241 185h-115v235h82q100 0 153.5 44t53.5 118 q0 81 -51 125.5t-144 44.5q-243 0 -243 -281v-907h-285v756h-182z" />
<glyph unicode="&#xe0;" horiz-adv-x="1103" d="M78 274q0 269 328 324l299 49v15q0 82 -39.5 118.5t-114.5 36.5q-151 0 -162 -119h-266q3 174 117.5 260t312.5 86q213 0 323.5 -99t110.5 -288v-657h-244l-38 72q-3 -1 -39 -20.5t-54.5 -26.5t-57 -20.5t-80 -19t-89.5 -5.5q-133 0 -220 83t-87 211zM221 1434h297 l225 -310h-284zM344 297q0 -45 32.5 -70.5t86.5 -25.5q65 0 172 39l70 26v183l-236 -41q-59 -10 -92 -40.5t-33 -70.5z" />
<glyph unicode="&#xe1;" horiz-adv-x="1103" d="M78 274q0 269 328 324l299 49v15q0 82 -39.5 118.5t-114.5 36.5q-151 0 -162 -119h-266q3 174 117.5 260t312.5 86q213 0 323.5 -99t110.5 -288v-657h-244l-38 72q-3 -1 -39 -20.5t-54.5 -26.5t-57 -20.5t-80 -19t-89.5 -5.5q-133 0 -220 83t-87 211zM344 297 q0 -45 32.5 -70.5t86.5 -25.5q65 0 172 39l70 26v183l-236 -41q-59 -10 -92 -40.5t-33 -70.5zM385 1124l233 310h295l-243 -310h-285z" />
<glyph unicode="&#xe2;" horiz-adv-x="1103" d="M78 274q0 269 328 324l299 49v15q0 82 -39.5 118.5t-114.5 36.5q-151 0 -162 -119h-266q3 174 117.5 260t312.5 86q213 0 323.5 -99t110.5 -288v-657h-244l-38 72q-3 -1 -39 -20.5t-54.5 -26.5t-57 -20.5t-80 -19t-89.5 -5.5q-133 0 -220 83t-87 211zM219 1124l213 310 h242l211 -310h-232l-100 176l-100 -176h-234zM344 297q0 -45 32.5 -70.5t86.5 -25.5q65 0 172 39l70 26v183l-236 -41q-59 -10 -92 -40.5t-33 -70.5z" />
<glyph unicode="&#xe3;" horiz-adv-x="1103" d="M78 274q0 269 328 324l299 49v15q0 82 -39.5 118.5t-114.5 36.5q-151 0 -162 -119h-266q3 174 117.5 260t312.5 86q213 0 323.5 -99t110.5 -288v-657h-244l-38 72q-3 -1 -39 -20.5t-54.5 -26.5t-57 -20.5t-80 -19t-89.5 -5.5q-133 0 -220 83t-87 211zM215 1139 q13 139 69 212.5t146 73.5q43 0 81.5 -19t60.5 -42t47 -42t45 -19q58 0 67 116h170q-2 -127 -61.5 -206.5t-155.5 -79.5q-44 0 -81.5 18.5t-58.5 41.5t-44.5 41.5t-42.5 18.5q-29 0 -46 -27.5t-26 -86.5h-170zM344 297q0 -45 32.5 -70.5t86.5 -25.5q65 0 172 39l70 26v183 l-236 -41q-59 -10 -92 -40.5t-33 -70.5z" />
<glyph unicode="&#xe4;" horiz-adv-x="1103" d="M78 274q0 269 328 324l299 49v15q0 82 -39.5 118.5t-114.5 36.5q-151 0 -162 -119h-266q3 174 117.5 260t312.5 86q213 0 323.5 -99t110.5 -288v-657h-244l-38 72q-3 -1 -39 -20.5t-54.5 -26.5t-57 -20.5t-80 -19t-89.5 -5.5q-133 0 -220 83t-87 211zM236 1139v274h264 v-274h-264zM344 297q0 -45 32.5 -70.5t86.5 -25.5q65 0 172 39l70 26v183l-236 -41q-59 -10 -92 -40.5t-33 -70.5zM606 1139v274h262v-274h-262z" />
<glyph unicode="&#xe5;" horiz-adv-x="1103" d="M78 274q0 269 328 324l299 49v15q0 82 -39.5 118.5t-114.5 36.5q-151 0 -162 -119h-266q3 174 117.5 260t312.5 86q213 0 323.5 -99t110.5 -288v-657h-244l-38 72q-3 -1 -39 -20.5t-54.5 -26.5t-57 -20.5t-80 -19t-89.5 -5.5q-133 0 -220 83t-87 211zM344 297 q0 -45 32.5 -70.5t86.5 -25.5q65 0 172 39l70 26v183l-236 -41q-59 -10 -92 -40.5t-33 -70.5zM354 1266v6q0 83 58.5 132.5t152.5 49.5q95 0 153 -50t58 -134t-57.5 -134.5t-153.5 -50.5q-95 0 -153 49t-58 132zM496 1268q0 -31 20 -49.5t49 -18.5q30 0 51 18.5t21 49.5v4 q0 31 -20.5 48t-51.5 17q-29 0 -49 -17t-20 -48v-4z" />
<glyph unicode="&#xe6;" horiz-adv-x="1693" d="M72 281q0 174 110.5 257t306.5 83h199q-3 190 -149 190q-141 0 -156 -113h-268q-3 175 111.5 260.5t312.5 85.5q209 0 305 -133q133 133 330 133q207 0 331.5 -125t124.5 -358v-119h-674q6 -102 63 -163.5t148 -61.5q73 0 119.5 34.5t61.5 94.5h266q-8 -168 -127.5 -267 t-319.5 -99q-227 0 -358 147l-74 -49q-155 -98 -329 -98q-144 0 -239 83t-95 218zM328 311q0 -56 38 -86t101 -30q34 0 73 11t59 20.5t56 27.5l64 33q-27 78 -29 149q-183 0 -239 -10q-108 -19 -121 -91q-2 -11 -2 -24zM963 621h397q-9 91 -58 142.5t-128 51.5 q-82 0 -137.5 -53t-73.5 -141z" />
<glyph unicode="&#xe7;" horiz-adv-x="1105" d="M66 500v35q0 235 142 372t370 137q207 0 333 -106t136 -295h-273q-35 152 -192 152q-112 0 -171 -72.5t-59 -198.5v-24q0 -125 56.5 -198t169.5 -73q162 0 200 154h271q-6 -177 -138 -290t-336 -113q-233 0 -371 140t-138 380zM356 -274h78q62 0 89.5 10t27.5 37 q0 47 -82 47h-57l77 129h48q227 0 227 -168q0 -91 -73 -148t-236 -57h-99v150z" />
<glyph unicode="&#xe8;" horiz-adv-x="1105" d="M66 496v41q0 234 139.5 370.5t367.5 136.5q100 0 185.5 -33t148.5 -96t99 -159.5t36 -216.5q0 -70 -2 -105h-702q10 -105 70 -161t155 -56q155 0 195 125h266q-15 -173 -136.5 -267.5t-324.5 -94.5q-225 0 -361 138t-136 378zM217 1434h295l225 -310h-284zM340 614h430 q-7 97 -59 150t-138 53q-92 0 -154 -52.5t-79 -150.5z" />
<glyph unicode="&#xe9;" horiz-adv-x="1105" d="M66 496v41q0 234 139.5 370.5t367.5 136.5q100 0 185.5 -33t148.5 -96t99 -159.5t36 -216.5q0 -70 -2 -105h-702q10 -105 70 -161t155 -56q155 0 195 125h266q-15 -173 -136.5 -267.5t-324.5 -94.5q-225 0 -361 138t-136 378zM340 614h430q-7 97 -59 150t-138 53 q-92 0 -154 -52.5t-79 -150.5zM408 1124l233 310h295l-244 -310h-284z" />
<glyph unicode="&#xea;" horiz-adv-x="1105" d="M66 496v41q0 234 139.5 370.5t367.5 136.5q100 0 185.5 -33t148.5 -96t99 -159.5t36 -216.5q0 -70 -2 -105h-702q10 -105 70 -161t155 -56q155 0 195 125h266q-15 -173 -136.5 -267.5t-324.5 -94.5q-225 0 -361 138t-136 378zM236 1124l210 310h242l213 -310h-231 l-103 176l-100 -176h-231zM340 614h430q-7 97 -59 150t-138 53q-92 0 -154 -52.5t-79 -150.5z" />
<glyph unicode="&#xeb;" horiz-adv-x="1105" d="M66 496v41q0 234 139.5 370.5t367.5 136.5q100 0 185.5 -33t148.5 -96t99 -159.5t36 -216.5q0 -70 -2 -105h-702q10 -105 70 -161t155 -56q155 0 195 125h266q-15 -173 -136.5 -267.5t-324.5 -94.5q-225 0 -361 138t-136 378zM244 1139v274h262v-274h-262zM340 614h430 q-7 97 -59 150t-138 53q-92 0 -154 -52.5t-79 -150.5zM614 1139v274h263v-274h-263z" />
<glyph unicode="&#xec;" horiz-adv-x="550" d="M-100 1434h297l225 -310h-285zM137 0v1024h283v-1024h-283z" />
<glyph unicode="&#xed;" horiz-adv-x="550" d="M129 1124l233 310h297l-245 -310h-285zM131 0v1024h283v-1024h-283z" />
<glyph unicode="&#xee;" horiz-adv-x="567" d="M-49 1124l211 310h241l213 -310h-231l-100 176l-103 -176h-231zM141 0v1024h283v-1024h-283z" />
<glyph unicode="&#xef;" horiz-adv-x="569" d="M-33 1139v274h262v-274h-262zM143 0v1024h283v-1024h-283zM338 1139v274h262v-274h-262z" />
<glyph unicode="&#xf0;" horiz-adv-x="1144" d="M66 459v26q0 147 63.5 255.5t168.5 162t237 53.5q161 0 249 -88q-81 178 -305 265l-112 -123h-105l137 149q-77 24 -141 37l80 244q142 -28 246 -72l82 90h108l-112 -127q211 -110 314 -303t103 -453v-12q0 -123 -32 -228t-93.5 -185t-160 -125t-224.5 -45 q-224 0 -363.5 127t-139.5 352zM340 463q0 -105 63 -171.5t166 -66.5q110 0 169 68.5t59 185.5v10q0 107 -61 170.5t-165 63.5q-103 0 -167 -66.5t-64 -179.5v-14z" />
<glyph unicode="&#xf1;" horiz-adv-x="1191" d="M131 0v1024h244l41 -80l45 25q135 75 268 75q151 0 247 -98.5t97 -273.5v-672h-285v590q-1 97 -44.5 142.5t-116.5 45.5q-75 0 -152 -41l-59 -30v-707h-285zM258 1139q12 139 68 212.5t147 73.5q43 0 81.5 -19t60.5 -42t46.5 -42t43.5 -19q60 0 69 116h170 q-2 -127 -62.5 -206.5t-156.5 -79.5q-35 0 -66 12.5t-52.5 30t-39.5 35t-35.5 30t-33.5 12.5q-55 0 -70 -114h-170z" />
<glyph unicode="&#xf2;" horiz-adv-x="1161" d="M63 500v37q0 155 70.5 273t188.5 178.5t264 60.5q226 0 370 -138.5t144 -373.5v-35q0 -241 -145 -384t-373 -143q-108 0 -203 37t-165 103.5t-110.5 166t-40.5 218.5zM231 1434h295l226 -310h-285zM348 498q0 -120 63 -192.5t171 -72.5q113 0 172 72t59 195v26 q0 124 -59.5 194.5t-167.5 70.5q-107 0 -172.5 -71.5t-65.5 -193.5v-28z" />
<glyph unicode="&#xf3;" horiz-adv-x="1161" d="M63 500v37q0 155 70.5 273t188.5 178.5t264 60.5q226 0 370 -138.5t144 -373.5v-35q0 -241 -145 -384t-373 -143q-108 0 -203 37t-165 103.5t-110.5 166t-40.5 218.5zM348 498q0 -120 63 -192.5t171 -72.5q113 0 172 72t59 195v26q0 124 -59.5 194.5t-167.5 70.5 q-107 0 -172.5 -71.5t-65.5 -193.5v-28zM422 1124l233 310h295l-243 -310h-285z" />
<glyph unicode="&#xf4;" horiz-adv-x="1161" d="M63 500v37q0 155 70.5 273t188.5 178.5t264 60.5q226 0 370 -138.5t144 -373.5v-35q0 -241 -145 -384t-373 -143q-108 0 -203 37t-165 103.5t-110.5 166t-40.5 218.5zM254 1124l213 310h242l211 -310h-232l-100 176l-101 -176h-233zM348 498q0 -120 63 -192.5t171 -72.5 q113 0 172 72t59 195v26q0 124 -59.5 194.5t-167.5 70.5q-107 0 -172.5 -71.5t-65.5 -193.5v-28z" />
<glyph unicode="&#xf5;" horiz-adv-x="1161" d="M63 500v37q0 155 70.5 273t188.5 178.5t264 60.5q226 0 370 -138.5t144 -373.5v-35q0 -241 -145 -384t-373 -143q-108 0 -203 37t-165 103.5t-110.5 166t-40.5 218.5zM238 1139q13 139 69.5 212.5t147.5 73.5q43 0 81 -19t60 -42t46.5 -42t43.5 -19q62 0 68 116h172 q-2 -127 -62.5 -206.5t-156.5 -79.5q-35 0 -66 12.5t-52.5 30t-40 35t-36 30t-33.5 12.5q-29 0 -45 -27.5t-24 -86.5h-172zM348 498q0 -120 63 -192.5t171 -72.5q113 0 172 72t59 195v26q0 124 -59.5 194.5t-167.5 70.5q-107 0 -172.5 -71.5t-65.5 -193.5v-28z" />
<glyph unicode="&#xf6;" horiz-adv-x="1161" d="M63 500v37q0 155 70.5 273t188.5 178.5t264 60.5q226 0 370 -138.5t144 -373.5v-35q0 -241 -145 -384t-373 -143q-108 0 -203 37t-165 103.5t-110.5 166t-40.5 218.5zM268 1139v274h262v-274h-262zM348 498q0 -120 63 -192.5t171 -72.5q113 0 172 72t59 195v26 q0 124 -59.5 194.5t-167.5 70.5q-107 0 -172.5 -71.5t-65.5 -193.5v-28zM639 1139v274h262v-274h-262z" />
<glyph unicode="&#xf7;" horiz-adv-x="1001" d="M82 440v246h838v-246h-838zM362 117v233h281v-233h-281zM362 776v234h281v-234h-281z" />
<glyph unicode="&#xf8;" horiz-adv-x="1161" d="M63 500v37q0 155 70.5 273t188.5 178.5t264 60.5q130 0 248 -56l20 31h133l-61 -92q82 -66 128 -167.5t46 -227.5v-35q0 -241 -145 -384t-373 -143q-126 0 -252 58l-21 -33h-133l64 96q-84 69 -130.5 172t-46.5 232zM348 498q0 -101 43 -168l295 440q-44 21 -100 21 q-107 0 -172.5 -71.5t-65.5 -193.5v-28zM477 256q42 -23 105 -23q113 0 172 72t59 195v26q0 106 -43 170z" />
<glyph unicode="&#xf9;" horiz-adv-x="1191" d="M119 352v672h284v-590q0 -96 44 -142t118 -46q72 0 152 41l59 30v707h285v-1024h-244l-41 80l-49 -27q-146 -71 -264 -71q-151 0 -247 97.5t-97 272.5zM252 1434h295l225 -310h-285z" />
<glyph unicode="&#xfa;" horiz-adv-x="1191" d="M119 352v672h284v-590q0 -96 44 -142t118 -46q72 0 152 41l59 30v707h285v-1024h-244l-41 80l-49 -27q-146 -71 -264 -71q-151 0 -247 97.5t-97 272.5zM412 1124l233 310h295l-244 -310h-284z" />
<glyph unicode="&#xfb;" horiz-adv-x="1191" d="M119 352v672h284v-590q0 -96 44 -142t118 -46q72 0 152 41l59 30v707h285v-1024h-244l-41 80l-49 -27q-146 -71 -264 -71q-151 0 -247 97.5t-97 272.5zM260 1124l213 310h240l213 -310h-232l-100 176l-102 -176h-232z" />
<glyph unicode="&#xfc;" horiz-adv-x="1191" d="M119 352v672h284v-590q0 -96 44 -142t118 -46q72 0 152 41l59 30v707h285v-1024h-244l-41 80l-49 -27q-146 -71 -264 -71q-151 0 -247 97.5t-97 272.5zM272 1139v274h265v-274h-265zM643 1139v274h262v-274h-262z" />
<glyph unicode="&#xfd;" horiz-adv-x="1069" d="M-16 1024h297l266 -668l260 668h285l-557 -1434h-287l160 412zM373 1124l233 310h295l-244 -310h-284z" />
<glyph unicode="&#xfe;" horiz-adv-x="1196" d="M131 -410v1844h283v-492l28 21q112 81 248 81q197 0 316.5 -135.5t119.5 -365.5v-43q0 -233 -118 -378t-330 -145q-125 0 -248 78l-16 11v-476h-283zM414 313l18 -12q85 -55 180 -55q103 0 166.5 69t63.5 187v28q0 115 -61 179.5t-167 64.5q-102 0 -182 -53l-18 -12v-396 z" />
<glyph unicode="&#xff;" horiz-adv-x="1069" d="M-16 1024h297l266 -668l260 668h285l-557 -1434h-287l160 412zM229 1139v274h263v-274h-263zM598 1139v274h264v-274h-264z" />
<glyph unicode="&#x178;" horiz-adv-x="1312" d="M-2 1434h309l348 -625l351 625h309l-516 -926v-508h-285v504zM381 1501v211h225v-211h-225zM713 1501v211h225v-211h-225z" />
<glyph unicode="&#x2c6;" horiz-adv-x="868" d="M104 1485l213 309h242l211 -309h-231l-101 176l-102 -176h-232z" />
<glyph unicode="&#x2dc;" horiz-adv-x="819" d="M66 1473q13 139 69.5 213.5t147.5 74.5q42 0 80 -19.5t60 -43t46.5 -43t44.5 -19.5q29 0 47 31t21 88h170q-2 -127 -61.5 -208t-155.5 -81q-44 0 -81.5 19t-59 42.5t-45 42.5t-42.5 19q-29 0 -45.5 -27.5t-25.5 -88.5h-170z" />
<glyph unicode="&#x2000;" horiz-adv-x="897" />
<glyph unicode="&#x2001;" horiz-adv-x="1794" />
<glyph unicode="&#x2002;" horiz-adv-x="897" />
<glyph unicode="&#x2003;" horiz-adv-x="1794" />
<glyph unicode="&#x2004;" horiz-adv-x="598" />
<glyph unicode="&#x2005;" horiz-adv-x="448" />
<glyph unicode="&#x2006;" horiz-adv-x="299" />
<glyph unicode="&#x2007;" horiz-adv-x="299" />
<glyph unicode="&#x2008;" horiz-adv-x="224" />
<glyph unicode="&#x2009;" horiz-adv-x="358" />
<glyph unicode="&#x200a;" horiz-adv-x="99" />
<glyph unicode="&#x2010;" horiz-adv-x="772" d="M82 393v273h608v-273h-608z" />
<glyph unicode="&#x2011;" horiz-adv-x="772" d="M82 393v273h608v-273h-608z" />
<glyph unicode="&#x2012;" horiz-adv-x="772" d="M82 393v273h608v-273h-608z" />
<glyph unicode="&#x2013;" horiz-adv-x="1024" d="M82 393v273h860v-273h-860z" />
<glyph unicode="&#x2014;" horiz-adv-x="2048" d="M82 393v273h1884v-273h-1884z" />
<glyph unicode="&#x2018;" horiz-adv-x="485" d="M12 881l219 553h236l-119 -553h-336z" />
<glyph unicode="&#x2019;" horiz-adv-x="450" d="M20 881l103 553h313l-186 -553h-230z" />
<glyph unicode="&#x201a;" horiz-adv-x="446" d="M0 -233l106 552h314l-189 -552h-231z" />
<glyph unicode="&#x201c;" horiz-adv-x="894" d="M12 881l219 553h236l-119 -553h-336zM422 881l217 553h235l-116 -553h-336z" />
<glyph unicode="&#x201d;" horiz-adv-x="837" d="M20 881l103 553h313l-186 -553h-230zM408 881l102 553h313l-184 -553h-231z" />
<glyph unicode="&#x201e;" horiz-adv-x="831" d="M4 -233l102 552h314l-187 -552h-229zM391 -233l103 552h313l-186 -552h-230z" />
<glyph unicode="&#x2022;" horiz-adv-x="616" d="M86 725q0 95 63 157t160 62q95 0 158 -62t63 -157q0 -98 -62.5 -159.5t-158.5 -61.5q-97 0 -160 61.5t-63 159.5z" />
<glyph unicode="&#x2026;" horiz-adv-x="1251" d="M80 0v317h285v-317h-285zM483 0v317h285v-317h-285zM887 0v317h284v-317h-284z" />
<glyph unicode="&#x202f;" horiz-adv-x="358" />
<glyph unicode="&#x2039;" horiz-adv-x="720" d="M37 401v254l635 357v-256l-439 -228l439 -225v-254z" />
<glyph unicode="&#x203a;" horiz-adv-x="720" d="M47 49v256l438 225l-438 228v254l635 -353v-253z" />
<glyph unicode="&#x205f;" horiz-adv-x="448" />
<glyph unicode="&#x20ac;" horiz-adv-x="1406" d="M41 457v196h152l-3 117h-149v197h174q51 233 204 360t382 127q243 0 393.5 -129.5t167.5 -376.5h-293q-48 226 -272 226q-102 0 -174 -53.5t-107 -153.5h315v-197h-350v-117h350v-196h-313q76 -197 277 -197q119 0 187.5 61t86.5 166h295q-15 -247 -167.5 -377 t-401.5 -130q-224 0 -374 124t-204 353h-176z" />
<glyph unicode="&#x25fc;" horiz-adv-x="1024" d="M0 0v1024h1024v-1024h-1024z" />
</font>
</defs>
</svg>
