<?xml version="1.0" standalone="no"?>
<!DOCTYPE svg PUBLIC "-//W3C//DTD SVG 1.1//EN" "http://www.w3.org/Graphics/SVG/1.1/DTD/svg11.dtd" >
<svg xmlns="http://www.w3.org/2000/svg">
<metadata></metadata>
<defs>
<font id="via_typelight" horiz-adv-x="1564" >
<font-face units-per-em="2048" ascent="1638" descent="-410" />
<missing-glyph horiz-adv-x="512" />
<glyph horiz-adv-x="0" />
<glyph horiz-adv-x="682" />
<glyph unicode=" "  horiz-adv-x="512" />
<glyph unicode="&#x09;" horiz-adv-x="512" />
<glyph unicode="&#xa0;" horiz-adv-x="512" />
<glyph unicode="!" horiz-adv-x="555" d="M203 0v152h149v-152h-149zM223 1434h109l-6 -1086h-97z" />
<glyph unicode="&#x22;" horiz-adv-x="583" d="M111 1434h116l-10 -451h-96zM356 1434h117l-10 -451h-96z" />
<glyph unicode="#" horiz-adv-x="1245" d="M43 406l14 86h279l72 434h-277l14 86h277l70 422h90l-70 -422h322l69 422h90l-69 -422h274l-14 -86h-275l-71 -434h274l-14 -86h-275l-67 -406h-90l67 406h-321l-68 -406h-90l68 406h-279zM426 492h322l71 434h-321z" />
<glyph unicode="$" horiz-adv-x="1267" d="M102 449h99q18 -163 126 -243.5t281 -88.5v569q-80 11 -139.5 23.5t-123.5 38.5t-104.5 62t-67 93.5t-26.5 132.5q0 169 127 267t334 106v160h90v-160q126 -7 220.5 -50t157.5 -134t75 -224h-100q-31 297 -353 314v-547q85 -12 146.5 -26t125.5 -40.5t104 -63.5 t65.5 -95.5t25.5 -134.5q0 -180 -125 -277t-342 -108v-173h-90v173q-104 5 -192 33t-156.5 79t-110 131t-47.5 183zM242 1040q0 -48 14 -86.5t42 -64.5t59.5 -44.5t77.5 -31t83.5 -19.5t89.5 -14v535q-168 -6 -267 -76t-99 -199zM698 117q177 9 275 79.5t98 206.5 q0 44 -11 79.5t-27.5 61t-46 45.5t-57.5 32.5t-70.5 23.5t-76.5 16.5t-84 12.5v-557z" />
<glyph unicode="%" horiz-adv-x="1472" d="M92 1122v15q0 146 86 231.5t219 85.5q135 0 216 -84.5t81 -232.5v-15q0 -145 -84 -231t-219 -86q-129 0 -214 87t-85 230zM180 1122q0 -106 58.5 -168.5t154.5 -62.5q100 0 156.5 62t56.5 169v15q0 107 -56.5 169t-152.5 62q-98 0 -157.5 -62.5t-59.5 -168.5v-15zM213 0 l965 1434h106l-969 -1434h-102zM815 297v14q0 146 86.5 232t218.5 86q135 0 216 -85t81 -233v-14q0 -145 -84 -231t-219 -86q-129 0 -214 87t-85 230zM903 297q0 -106 58.5 -168.5t154.5 -62.5q100 0 156.5 62t56.5 169v14q0 107 -56.5 169.5t-152.5 62.5q-98 0 -157.5 -63 t-59.5 -169v-14z" />
<glyph unicode="&#x26;" horiz-adv-x="1409" d="M121 330q0 83 32.5 155t96.5 150l166 205q-59 69 -87 130t-28 132q0 162 98.5 257t266.5 95q181 0 287 -110.5t106 -299.5h-92q0 138 -81.5 228t-223.5 90q-123 0 -196 -70t-73 -192q0 -55 30.5 -112.5t63 -94.5t126.5 -134q8 -9 12.5 -13.5t12 -12.5t13.5 -14l320 -328 l237 297h123l-295 -364l318 -324h-133l-244 252l-10 -12q-103 -127 -212 -193.5t-249 -66.5q-170 0 -277.5 98.5t-107.5 251.5zM217 334q0 -109 81 -183.5t220 -74.5q99 0 190 50.5t197 182.5l6 8l-319 334q-47 47 -113 117l-155 -193q-107 -133 -107 -241z" />
<glyph unicode="'" horiz-adv-x="337" d="M111 1434h116l-10 -451h-96z" />
<glyph unicode="(" horiz-adv-x="608" d="M102 442v123q0 168 13 296t44.5 235.5t83 177.5t128.5 111.5t182 48.5v-99q-197 -18 -275.5 -201t-78.5 -563v-125q0 -182 17 -312.5t57 -230t109.5 -152.5t170.5 -62v-99q-106 7 -185 50.5t-129.5 114t-81.5 177t-43 229t-12 281.5z" />
<glyph unicode=")" horiz-adv-x="608" d="M55 -311q197 18 276 201t79 563v125q0 189 -17 320.5t-57.5 229t-109.5 148t-171 59.5v99q106 -7 185 -50.5t129.5 -114t81.5 -177t43 -229t12 -281.5v-123q0 -168 -13 -296t-44.5 -235.5t-83 -177.5t-128.5 -111.5t-182 -48.5v99z" />
<glyph unicode="*" horiz-adv-x="704" d="M66 1124v93l213 -5l-117 195l80 47l110 -201l111 201l80 -47l-119 -197l215 7v-93l-215 4l119 -196l-80 -45l-111 198l-110 -198l-80 45l119 196z" />
<glyph unicode="+" horiz-adv-x="997" d="M102 549v92h351v356h92v-356h350v-92h-350v-356h-92v356h-351z" />
<glyph unicode="," horiz-adv-x="313" d="M12 -197l76 355h145l-159 -355h-62z" />
<glyph unicode="-" horiz-adv-x="788" d="M113 483v92h563v-92h-563z" />
<glyph unicode="." horiz-adv-x="296" d="M74 0v152h149v-152h-149z" />
<glyph unicode="/" horiz-adv-x="774" d="M0 -410l672 1844h102l-672 -1844h-102z" />
<glyph unicode="0" horiz-adv-x="1228" d="M92 573v287q0 156 40.5 273t113 186t164.5 102t204 33t204 -33t165 -102t113.5 -186t40.5 -273v-287q0 -153 -41.5 -269.5t-114.5 -186t-165.5 -103.5t-201.5 -34q-72 0 -137 15t-124 45t-106.5 78.5t-82 113t-53.5 151.5t-19 190zM188 573q0 -131 34 -230t94 -157 t134.5 -86t163.5 -28t163.5 28t134.5 86t94 157t34 230v287q0 134 -33 233.5t-92.5 157t-134 84.5t-166.5 27t-166.5 -27t-134 -84.5t-92.5 -157t-33 -233.5v-287z" />
<glyph unicode="1" horiz-adv-x="655" d="M53 1145v106l338 183h96v-1434h-96v1325z" />
<glyph unicode="2" horiz-adv-x="1060" d="M80 0v94l518 502q159 154 217.5 246t58.5 211q0 141 -85.5 224t-237.5 83q-162 0 -261 -84t-114 -234h-94q9 189 137 300.5t332 111.5q193 0 306.5 -109t113.5 -288q0 -79 -19 -145t-65.5 -132t-93.5 -116.5t-134 -133.5l-452 -436h792v-94h-919z" />
<glyph unicode="3" horiz-adv-x="1124" d="M70 379h96q15 -150 118.5 -227.5t282.5 -77.5t280 98.5t101 247.5q0 173 -98 244t-295 71h-141v88l485 516h-778v95h895v-95l-492 -516h31q235 0 362 -95t127 -308q0 -190 -129 -315t-348 -125q-216 0 -350 102.5t-147 296.5z" />
<glyph unicode="4" horiz-adv-x="1077" d="M45 373v94l629 967h110l-637 -967h701v516h96v-983h-96v373h-803z" />
<glyph unicode="5" horiz-adv-x="1118" d="M115 358h94q22 -128 119.5 -206t251.5 -78q176 0 278.5 112.5t102.5 288.5q0 180 -96 277.5t-259 97.5q-124 0 -229 -58.5t-160 -160.5h-86l127 803h717v-95h-641l-90 -542q69 69 164.5 107t199.5 38q199 0 324 -125t125 -342q0 -219 -130.5 -356.5t-346.5 -138.5 q-194 0 -319.5 103.5t-145.5 274.5z" />
<glyph unicode="6" horiz-adv-x="1122" d="M92 442q0 236 230 539l344 453h120l-342 -447q-62 -79 -131 -176q120 88 275 88q212 0 340.5 -121.5t128.5 -335.5q0 -210 -136.5 -336t-349.5 -126q-220 0 -349.5 124.5t-129.5 337.5zM188 434q0 -163 101 -261.5t282 -98.5q175 0 282.5 99.5t107.5 268.5 q0 174 -99 268.5t-280 94.5q-174 0 -284 -103t-110 -268z" />
<glyph unicode="7" horiz-adv-x="942" d="M16 1339v95h914v-95l-692 -1339h-107l694 1339h-809z" />
<glyph unicode="8" horiz-adv-x="1173" d="M88 395q0 145 80 237.5t205 127.5q-101 30 -171.5 115t-70.5 206q0 166 121.5 269.5t339.5 103.5t333 -103t115 -268q0 -122 -69.5 -206.5t-169.5 -114.5q130 -34 207 -127t77 -240q0 -191 -135.5 -303t-361.5 -112q-235 0 -367.5 111t-132.5 304zM184 395 q0 -155 107 -239t297 -84q185 0 293 85t108 238q0 158 -107.5 241t-293.5 83t-295 -85.5t-109 -238.5zM227 1081q0 -128 94 -204t267 -76q170 0 263 76.5t93 205.5q0 132 -89 205.5t-263 73.5q-170 0 -267.5 -75t-97.5 -206z" />
<glyph unicode="9" horiz-adv-x="1079" d="M66 987q0 211 137 339t350 128q218 0 345.5 -122.5t127.5 -336.5q0 -238 -231 -542l-342 -453h-121l344 446l123 162q-107 -69 -267 -69q-208 0 -337 119t-129 329zM162 987q0 -169 104.5 -261.5t282.5 -92.5q179 0 279 106.5t100 266.5q0 165 -98.5 259.5t-276.5 94.5 q-175 0 -283 -101t-108 -272z" />
<glyph unicode=":" horiz-adv-x="456" d="M147 0v152h150v-152h-150zM147 752v151h150v-151h-150z" />
<glyph unicode=";" horiz-adv-x="348" d="M29 -197l75 355h146l-160 -355h-61zM98 752v151h150v-151h-150z" />
<glyph unicode="&#x3c;" horiz-adv-x="907" d="M102 516v105l695 366v-104l-607 -316l607 -315v-107z" />
<glyph unicode="=" horiz-adv-x="952" d="M129 317v93h694v-93h-694zM129 727v92h694v-92h-694z" />
<glyph unicode="&#x3e;" horiz-adv-x="907" d="M111 145v107l606 315l-606 316v104l694 -366v-105z" />
<glyph unicode="?" horiz-adv-x="882" d="M55 1112q13 157 126.5 249.5t287.5 92.5q163 0 265 -97t102 -253q0 -68 -20.5 -127.5t-53 -103.5t-71.5 -84t-78.5 -78.5t-72 -78t-53 -91.5t-20.5 -111v-82h-102v86q0 66 20.5 124.5t53.5 102t73 84t80 79t73 79t53.5 92t20.5 109.5q0 119 -72 186.5t-198 67.5 q-138 0 -220.5 -66t-96.5 -180h-97zM342 0v152h150v-152h-150z" />
<glyph unicode="@" horiz-adv-x="1794" d="M90 434q0 261 107 461.5t300 310t443 109.5q181 0 327 -59.5t244.5 -168t151.5 -261t53 -337.5q0 -105 -18.5 -194t-55.5 -161t-100.5 -113t-146.5 -41q-76 0 -131.5 45t-77.5 125q-49 -79 -130 -124.5t-188 -45.5q-120 0 -205.5 59.5t-127 159.5t-41.5 229v27 q0 220 118.5 345.5t302.5 125.5q114 0 220 -45l41 -21l26 49h66v-643q0 -196 129 -196q77 0 130 60.5t75 152t22 206.5q0 221 -77.5 385t-233 255.5t-373.5 91.5q-337 0 -544.5 -217.5t-207.5 -571.5q0 -231 89.5 -403.5t261 -267.5t403.5 -95q203 0 338 55v-96 q-139 -53 -338 -53q-261 0 -454.5 106.5t-295.5 301t-102 454.5zM586 428q0 -162 74 -261t208 -99q145 0 224 93.5t84 246.5v358q-30 14 -46 22q-110 50 -215 50q-149 0 -239 -101t-90 -282v-27z" />
<glyph unicode="A" horiz-adv-x="1325" d="M55 0l555 1434h105l555 -1434h-105l-151 391h-703l-151 -391h-105zM348 485h629l-315 813z" />
<glyph unicode="B" horiz-adv-x="1331" d="M203 0v1434h520q211 0 328.5 -95.5t117.5 -273.5q0 -253 -235 -330q142 -35 210 -123t68 -215q0 -187 -119 -292t-329 -105h-561zM299 94h465q175 0 263.5 79t88.5 222q0 144 -94 217.5t-299 73.5h-424v-592zM299 780h424q175 0 261.5 73t88.5 210q0 276 -350 276h-424 v-559z" />
<glyph unicode="C" horiz-adv-x="1445" d="M119 719v18q0 170 52.5 307.5t143.5 226t209 136t252 47.5q228 0 383 -110t195 -300h-99q-41 150 -167 231t-312 81q-115 0 -215 -39.5t-177.5 -114.5t-122 -195.5t-44.5 -271.5v-16q0 -154 45 -277.5t122 -202t177.5 -120t214.5 -41.5q187 0 321 89t171 236h94 q-33 -184 -193 -303.5t-393 -119.5q-107 0 -204.5 31t-180 93t-143 149.5t-95 207t-34.5 258.5z" />
<glyph unicode="D" horiz-adv-x="1472" d="M203 0v1434h493q133 0 251.5 -46t209.5 -132t144 -220t53 -299v-18q0 -169 -53 -307t-144 -227t-209.5 -137t-251.5 -48h-493zM299 98h397q114 0 214.5 40.5t177.5 116.5t122 195.5t45 268.5v16q0 146 -44.5 262t-122 189t-177 111t-213.5 38h-399v-1237z" />
<glyph unicode="E" horiz-adv-x="1288" d="M203 0v1434h938v-95h-842v-557h811v-94h-811v-594h842v-94h-938z" />
<glyph unicode="F" horiz-adv-x="1234" d="M203 0v1434h948v-95h-852v-557h821v-94h-821v-688h-96z" />
<glyph unicode="G" horiz-adv-x="1527" d="M119 719v18q0 169 53 307t144 226.5t209 136t251 47.5q225 0 381.5 -110t196.5 -300h-99q-41 150 -167 231t-312 81q-115 0 -215 -39.5t-177.5 -114.5t-122 -195.5t-44.5 -271.5v-16q0 -154 45 -277.5t123 -202t178.5 -120t214.5 -41.5q78 0 150 20t135 61t110 99 t74 139.5t27 177.5h-375v95h463v-670h-88v276q-64 -136 -191.5 -216t-320.5 -80q-129 0 -244.5 49.5t-204.5 141t-141.5 233.5t-52.5 315z" />
<glyph unicode="H" horiz-adv-x="1462" d="M203 0v1434h96v-652h864v652h97v-1434h-97v688h-864v-688h-96z" />
<glyph unicode="I" horiz-adv-x="501" d="M203 0v1434h96v-1434h-96z" />
<glyph unicode="J" horiz-adv-x="690" d="M0 0v92h104q166 0 238 82.5t72 255.5v1004h96v-1004q0 -218 -100.5 -324t-307.5 -106h-102z" />
<glyph unicode="K" horiz-adv-x="1300" d="M203 0v1434h96v-779l786 779h125l-635 -623l697 -811h-127l-637 743l-209 -206v-537h-96z" />
<glyph unicode="L" horiz-adv-x="1165" d="M203 0v1434h96v-1340h811v-94h-907z" />
<glyph unicode="M" horiz-adv-x="1722" d="M203 0v1434h110l553 -934l543 934h111v-1434h-97v1270l-503 -860h-107l-514 862v-1272h-96z" />
<glyph unicode="N" horiz-adv-x="1482" d="M203 0v1434h112l869 -1291v1291h96v-1434h-113l-868 1290v-1290h-96z" />
<glyph unicode="O" d="M119 719v18q0 169 53.5 307t145 226.5t210.5 136t254 47.5t254.5 -47.5t211 -136t145 -226.5t53.5 -307v-18q0 -173 -53.5 -315t-145 -233.5t-211 -141t-254.5 -49.5t-254 49.5t-210.5 141t-145 233.5t-53.5 315zM217 719q0 -154 45 -277.5t123 -202t179.5 -120 t217.5 -41.5t217.5 41.5t179.5 120t123.5 202t45.5 277.5v16q0 151 -45 271.5t-123.5 195.5t-180 114.5t-217.5 39.5t-217 -39.5t-179.5 -114.5t-123.5 -195.5t-45 -271.5v-16z" />
<glyph unicode="P" horiz-adv-x="1280" d="M203 0v1434h528q239 0 361 -105t122 -299q0 -197 -120 -306.5t-351 -109.5h-444v-614h-96zM299 709h444q193 0 285 84.5t92 234.5t-92 230.5t-299 80.5h-430v-630z" />
<glyph unicode="Q" d="M119 719v18q0 169 53.5 307t145 226.5t210.5 136t254 47.5t254.5 -47.5t211 -136t145 -226.5t53.5 -307v-18q0 -246 -102 -420.5t-273 -255.5l135 -211h-119l-112 174q-99 -26 -193 -26q-135 0 -254 49.5t-210.5 141t-145 233.5t-53.5 315zM217 719q0 -154 45 -277.5 t123 -202t179.5 -120t217.5 -41.5q66 0 138 16l-152 240h117l133 -209q151 67 240.5 219.5t89.5 374.5v16q0 151 -45 271.5t-123.5 195.5t-180 114.5t-217.5 39.5t-217 -39.5t-179.5 -114.5t-123.5 -195.5t-45 -271.5v-16z" />
<glyph unicode="R" horiz-adv-x="1347" d="M203 0v1434h528q239 0 361 -103.5t122 -296.5q0 -161 -81.5 -263t-239.5 -134l326 -637h-111l-317 623h-48h-444v-623h-96zM299 717h444q194 0 285.5 83t91.5 232t-92 228t-299 79h-430v-622z" />
<glyph unicode="S" horiz-adv-x="1304" d="M115 412h98q13 -117 74.5 -193t155 -108.5t219.5 -32.5q204 0 319 76t115 229q0 61 -19.5 107.5t-49.5 75.5t-80 50.5t-98 32.5t-116 21l-141 20q-73 11 -132 26.5t-117.5 44t-97.5 67.5t-63 98.5t-24 134.5q0 186 140.5 289.5t363.5 103.5q104 0 190 -24t155 -73 t111.5 -130t52.5 -189h-100q-33 318 -409 318q-182 0 -294 -75t-112 -216q0 -58 20 -103t51 -73.5t79.5 -50t94 -32.5t105.5 -20l137 -20q82 -12 144.5 -28.5t122.5 -45.5t98.5 -69t62 -99.5t23.5 -136.5q0 -201 -142.5 -304t-389.5 -103q-153 0 -271 46t-192.5 145 t-83.5 241z" />
<glyph unicode="T" horiz-adv-x="1169" d="M47 1339v95h1075v-95h-489v-1339h-96v1339h-490z" />
<glyph unicode="U" horiz-adv-x="1433" d="M176 573v861h96v-861q0 -97 16 -174.5t46.5 -130.5t70.5 -91t91.5 -59t104.5 -30.5t116 -9.5q76 0 138 13t120.5 47t98 88.5t63.5 142.5t24 204v861h96v-861q0 -593 -540 -593q-541 0 -541 593z" />
<glyph unicode="V" horiz-adv-x="1245" d="M29 1434h104l492 -1297l493 1297h105l-545 -1434h-105z" />
<glyph unicode="W" horiz-adv-x="1839" d="M29 1434h104l455 -1287l282 805l-170 482h105l455 -1287l456 1287h105l-508 -1434h-105l-286 809l-281 -809h-104z" />
<glyph unicode="X" horiz-adv-x="1239" d="M55 0l510 727l-499 707h120l441 -621l438 621h111l-494 -701l520 -733h-121l-460 647l-455 -647h-111z" />
<glyph unicode="Y" horiz-adv-x="1148" d="M18 1434h105l473 -740l471 740h104l-528 -824v-610h-96v604z" />
<glyph unicode="Z" horiz-adv-x="1230" d="M92 0v94l938 1245h-903v95h1018v-95l-942 -1245h944v-94h-1055z" />
<glyph unicode="[" horiz-adv-x="569" d="M184 -410v1844h312v-95h-215v-1654h215v-95h-312z" />
<glyph unicode="\" horiz-adv-x="774" d="M0 1434h102l672 -1844h-102z" />
<glyph unicode="]" horiz-adv-x="569" d="M74 -315h215v1654h-215v95h311v-1844h-311v95z" />
<glyph unicode="_" horiz-adv-x="1003" d="M104 0h797v-92h-797v92z" />
<glyph unicode="`" horiz-adv-x="436" d="M92 1772h121l197 -287h-117z" />
<glyph unicode="a" horiz-adv-x="1089" d="M115 262q0 116 75.5 195t225.5 106l411 74v61q0 254 -274 254q-137 0 -211 -49.5t-84 -159.5h-96q24 301 391 301q176 0 273.5 -88.5t97.5 -244.5v-711h-70l-27 88l-106 -39q-8 -3 -39.5 -14t-42.5 -14.5t-39 -12t-45.5 -12t-43.5 -8.5t-51.5 -6.5t-53.5 -1.5h-6 q-121 0 -202 78q-83 80 -83 204zM211 266q0 -88 56.5 -142t142.5 -54q113 0 272 57l145 53v365l-407 -72q-100 -18 -154.5 -73.5t-54.5 -133.5z" />
<glyph unicode="b" horiz-adv-x="1183" d="M184 0v1434h97v-510l28 20q141 100 303 100q206 0 335.5 -134t129.5 -365v-41q0 -241 -131.5 -382.5t-333.5 -141.5q-162 0 -303 100l-28 20l-27 -100h-70zM281 201l38 -27q149 -102 293 -102q162 0 265.5 114.5t103.5 317.5v41q0 193 -100.5 300t-268.5 107 q-144 0 -293 -102l-38 -27v-622z" />
<glyph unicode="c" horiz-adv-x="1097" d="M106 504v16q0 240 134 382t344 142q178 0 286.5 -83.5t135.5 -235.5h-101q-52 227 -321 227q-169 0 -275 -117t-106 -315v-16q0 -198 102 -315t273 -117q138 0 222.5 61.5t110.5 167.5h97q-22 -148 -135.5 -234.5t-294.5 -86.5q-210 0 -341 145t-131 379z" />
<glyph unicode="d" horiz-adv-x="1183" d="M106 479v41q0 241 131.5 382.5t333.5 141.5q162 0 303 -100l29 -20v510h96v-1434h-69l-27 100l-29 -20q-141 -100 -303 -100q-206 0 -335.5 134t-129.5 365zM203 479q0 -193 100 -300t268 -107q144 0 293 102l39 27v622l-39 27q-149 102 -293 102q-162 0 -265 -114.5 t-103 -317.5v-41z" />
<glyph unicode="e" horiz-adv-x="1130" d="M106 494v41q0 233 132.5 371t349.5 138q204 0 323 -133t119 -368v-56h-827q3 -192 104.5 -303.5t267.5 -111.5q260 0 332 207h97q-32 -136 -140.5 -217.5t-288.5 -81.5q-207 0 -338 140t-131 374zM205 578h725q-3 179 -92 277.5t-250 98.5q-158 0 -264 -96.5t-119 -279.5 z" />
<glyph unicode="f" horiz-adv-x="675" d="M37 932v92h199v133q0 136 61 206.5t201 70.5h168v-93h-164q-99 0 -134.5 -43t-35.5 -143v-131h299v-92h-299v-932h-96v932h-199z" />
<glyph unicode="g" horiz-adv-x="1185" d="M109 479v41q0 242 131 383t333 141q163 0 304 -100l28 -20l27 100h69v-1014q0 -214 -115 -327t-311 -113q-179 0 -294 77t-136 228h105q27 -112 106.5 -162.5t218.5 -50.5q158 0 244 85.5t86 258.5v94l-28 -20q-141 -100 -304 -100q-206 0 -335 133.5t-129 365.5z M205 479q0 -193 100 -300t268 -107q144 0 293 102l39 27v622l-39 27q-149 102 -293 102q-162 0 -265 -114.5t-103 -317.5v-41z" />
<glyph unicode="h" horiz-adv-x="1181" d="M184 0v1434h97v-512l90 45q154 77 301 77q154 0 249 -96t95 -272v-676h-96v647q0 303 -256 303q-133 0 -267 -67l-116 -58v-825h-97z" />
<glyph unicode="i" horiz-adv-x="468" d="M172 1235v125h125v-125h-125zM186 0v1024h97v-1024h-97z" />
<glyph unicode="j" horiz-adv-x="497" d="M-86 -317h66q115 0 169 52t54 183v1106h96v-1106q0 -171 -77 -249.5t-230 -78.5h-78v93zM188 1235v125h125v-125h-125z" />
<glyph unicode="k" horiz-adv-x="1017" d="M184 0v1434h97v-908l550 498h130l-435 -395l473 -629h-116l-428 565l-174 -157v-408h-97z" />
<glyph unicode="l" horiz-adv-x="464" d="M184 0v1434h97v-1434h-97z" />
<glyph unicode="m" horiz-adv-x="1835" d="M184 0v1024h70l27 -102l69 39q149 83 291 83q94 0 167 -37.5t114 -109.5l98 57q158 90 311 90q156 0 247 -95t91 -273v-676h-96v657q0 154 -63.5 223.5t-182.5 69.5q-139 0 -280 -80l-91 -51q19 -68 19 -143v-676h-96v657q0 154 -61.5 223.5t-180.5 69.5 q-63 0 -135 -20.5t-125 -50.5l-96 -54v-825h-97z" />
<glyph unicode="n" horiz-adv-x="1181" d="M184 0v1024h70l27 -102l90 45q154 77 301 77q154 0 249 -96t95 -272v-676h-96v647q0 303 -256 303q-133 0 -267 -67l-116 -58v-825h-97z" />
<glyph unicode="o" horiz-adv-x="1138" d="M92 502v20q0 241 136 381.5t345 140.5q213 0 343.5 -139.5t130.5 -382.5v-20q0 -237 -132.5 -379.5t-345.5 -142.5q-101 0 -189 37t-151.5 104t-100 165.5t-36.5 215.5zM188 502q0 -194 106 -312t275 -118q172 0 276.5 117.5t104.5 312.5v20q0 201 -103 315.5t-274 114.5 q-168 0 -276.5 -115.5t-108.5 -314.5v-20z" />
<glyph unicode="p" horiz-adv-x="1183" d="M184 -410v1434h70l27 -100l28 20q141 100 303 100q206 0 335.5 -134t129.5 -365v-41q0 -241 -131.5 -382.5t-333.5 -141.5q-162 0 -303 100l-28 20v-510h-97zM281 201l38 -27q149 -102 293 -102q162 0 265.5 114.5t103.5 317.5v41q0 193 -100.5 300t-268.5 107 q-144 0 -293 -102l-38 -27v-622z" />
<glyph unicode="q" horiz-adv-x="1183" d="M106 479v41q0 241 131.5 382.5t333.5 141.5q162 0 303 -100l29 -20l27 100h69v-1434h-96v510l-29 -20q-141 -100 -303 -100q-206 0 -335.5 134t-129.5 365zM203 479q0 -193 100 -300t268 -107q144 0 293 102l39 27v622l-39 27q-149 102 -293 102q-162 0 -265 -114.5 t-103 -317.5v-41z" />
<glyph unicode="r" horiz-adv-x="694" d="M184 0v1024h70l27 -102l90 49q54 30 117.5 41.5t168.5 11.5v-94q-190 0 -274 -47l-102 -58v-825h-97z" />
<glyph unicode="s" horiz-adv-x="995" d="M90 272h94q28 -111 106 -156.5t222 -45.5q141 0 219 52t78 148q0 95 -62 137t-225 66l-57 8q-75 11 -132 29t-108 49t-78.5 82t-27.5 119q0 97 55.5 163t139 93.5t188.5 27.5q164 0 264 -74.5t117 -221.5h-97q-14 107 -90 156.5t-196 49.5q-128 0 -209.5 -49t-81.5 -145 q0 -90 71 -131.5t228 -65.5l55 -8q166 -25 251 -90t85 -191q0 -140 -105.5 -217t-283.5 -77q-184 0 -291.5 73t-128.5 219z" />
<glyph unicode="t" horiz-adv-x="753" d="M47 932v92h184v248h97v-248h313v-92h-313v-649q0 -100 36.5 -145.5t133.5 -45.5h164v-92h-168q-144 0 -203.5 71t-59.5 210v651h-184z" />
<glyph unicode="u" horiz-adv-x="1181" d="M166 348v676h96v-647q0 -303 256 -303q132 0 266 67l117 58v825h96v-1024h-69l-27 102l-90 -45q-154 -77 -301 -77q-154 0 -249 96t-95 272z" />
<glyph unicode="v" horiz-adv-x="976" d="M35 1024h96l367 -905l368 905h97l-416 -1024h-96z" />
<glyph unicode="w" horiz-adv-x="1425" d="M23 1024h96l348 -905l209 534l-144 371h97l346 -899l348 899h96l-395 -1024h-96l-207 537l-207 -537h-96z" />
<glyph unicode="x" horiz-adv-x="927" d="M31 0l385 514l-379 510h108l328 -440l322 440h112l-383 -508l387 -516h-110l-332 444l-324 -444h-114z" />
<glyph unicode="y" horiz-adv-x="976" d="M25 1024h100l381 -909l362 909h97l-572 -1434h-96l164 410h-2z" />
<glyph unicode="z" horiz-adv-x="968" d="M84 0v96l698 832h-673v96h784v-96l-700 -832h708v-96h-817z" />
<glyph unicode="{" horiz-adv-x="686" d="M74 467v92h39q88 0 127 57.5t39 147.5v358q0 170 71.5 241t208.5 71h80v-93h-80q-96 0 -140 -48t-44 -150v-385q0 -102 -29 -157.5t-106 -86.5q77 -31 106 -87.5t29 -158.5v-387q0 -102 44 -150t140 -48h80v-93h-80q-137 0 -208.5 71t-71.5 241v360q0 90 -39 147.5 t-127 57.5h-39z" />
<glyph unicode="|" horiz-adv-x="538" d="M221 -410v1844h96v-1844h-96z" />
<glyph unicode="}" horiz-adv-x="686" d="M47 -317h80q96 0 140 48t44 150v387q0 102 29 158.5t106 87.5q-77 31 -106 86.5t-29 157.5v385q0 102 -44 150t-140 48h-80v93h80q138 0 209.5 -71t71.5 -241v-358q0 -90 38.5 -147.5t126.5 -57.5h39v-92h-39q-88 0 -126.5 -57.5t-38.5 -147.5v-360q0 -170 -71.5 -241 t-209.5 -71h-80v93z" />
<glyph unicode="&#xa3;" horiz-adv-x="1148" d="M74 0v94q92 4 158.5 60.5t96 135t29.5 165.5q0 57 -14 139h-217v92h199q-2 10 -10.5 45.5t-11.5 49t-9.5 45t-9.5 50t-6.5 45t-5 50t-1.5 47.5q0 212 112.5 324t301.5 112q176 0 278 -105.5t105 -299.5h-92q-12 311 -293 311q-146 0 -230.5 -87t-84.5 -255 q0 -33 2.5 -65.5t9.5 -72.5l10.5 -60t15 -71.5t13.5 -62.5h407v-92h-389q15 -88 15 -139q0 -110 -39.5 -206.5t-114.5 -154.5h813v-94h-1038z" />
<glyph unicode="&#xa6;" horiz-adv-x="538" d="M221 -410v861h96v-861h-96zM221 614v820h96v-820h-96z" />
<glyph unicode="&#xa7;" horiz-adv-x="1110" d="M129 553q0 109 54.5 189.5t140.5 121.5q-138 89 -138 258q0 152 112 243t284 89q354 -3 383 -321h-97q-14 108 -84 169.5t-202 61.5q-140 0 -220.5 -66t-80.5 -176q0 -54 19 -95t58 -70t81.5 -47.5t105.5 -37.5l143 -43q153 -45 232 -126.5t79 -213.5 q0 -102 -50.5 -184.5t-135.5 -136.5q123 -85 123 -252q0 -156 -103 -251t-288 -95q-175 0 -281 84t-127 231h99q21 -103 101.5 -164t207.5 -61q149 0 224 71.5t75 182.5q0 106 -56.5 158t-197.5 90l-137 37q-73 19 -129 47t-101.5 69.5t-69.5 101.5t-24 136zM225 551 q0 -108 67 -169.5t195 -96.5l136 -37q26 -7 52 -16t39 -14l13 -5q84 47 132 118t48 154q0 108 -65 167t-193 96l-135 38l-94 31q-89 -32 -142 -100.5t-53 -165.5z" />
<glyph unicode="&#xa8;" horiz-adv-x="620" d="M82 1509v156h154v-156h-154zM385 1509v156h154v-156h-154z" />
<glyph unicode="&#xab;" horiz-adv-x="1060" d="M55 487v117l469 377v-115l-403 -321l403 -318v-114zM485 487v117l510 387v-112l-440 -334l440 -330v-113z" />
<glyph unicode="&#xac;" horiz-adv-x="901" d="M37 930v94h790v-430h-96v336h-694z" />
<glyph unicode="&#xad;" horiz-adv-x="788" d="M113 483v92h563v-92h-563z" />
<glyph unicode="&#xb0;" horiz-adv-x="616" d="M86 1221v8q0 107 65 166t160 59q94 0 156.5 -58.5t62.5 -166.5v-8q0 -106 -64.5 -167t-158.5 -61q-91 0 -156 61.5t-65 166.5zM172 1221q0 -62 39 -101t96 -39q63 0 100 38.5t37 101.5v8q0 63 -36.5 102t-96.5 39t-99.5 -38.5t-39.5 -102.5v-8z" />
<glyph unicode="&#xb1;" horiz-adv-x="1071" d="M139 145v93h793v-93h-793zM139 657v93h350v294h93v-294h350v-93h-350v-295h-93v295h-350z" />
<glyph unicode="&#xb4;" horiz-adv-x="438" d="M23 1485l225 287h121l-230 -287h-116z" />
<glyph unicode="&#xb6;" horiz-adv-x="1241" d="M92 872v35q0 245 124.5 386t348.5 141h123v-1094h-123q-222 0 -347.5 145t-125.5 387zM780 -410v1844h92v-1844h-92zM965 -410v1844h92v-1844h-92z" />
<glyph unicode="&#xb7;" horiz-adv-x="413" d="M121 651v170h172v-170h-172z" />
<glyph unicode="&#xb8;" horiz-adv-x="442" d="M53 -317h99q83 0 120 16t37 59q0 41 -31.5 58.5t-97.5 17.5h-61l57 84h17q93 0 144.5 -40t51.5 -118q0 -166 -227 -166h-109v89z" />
<glyph unicode="&#xbb;" horiz-adv-x="1060" d="M66 102v113l440 332l-440 332v112l509 -385v-117zM537 113v114l403 320l-403 319v115l469 -375v-117z" />
<glyph unicode="&#xbc;" horiz-adv-x="1417" d="M92 1237v100l178 95h90v-717h-90v614zM174 0l965 1434h104l-964 -1434h-105zM821 166v88l299 463h107l-305 -463h295v235h90v-489h-90v166h-396z" />
<glyph unicode="&#xbd;" horiz-adv-x="1509" d="M92 1237v100l178 95h90v-717h-90v614zM174 0l965 1434h104l-964 -1434h-105zM913 504q3 102 69 162.5t179 60.5q105 0 166.5 -58.5t61.5 -152.5q0 -39 -9.5 -71.5t-35 -65.5t-46 -54.5t-65.5 -63.5q-10 -10 -16 -15l-168 -158h350v-88h-484v88l234 217q61 57 84 81t41 57 t18 69q0 57 -35 92t-98 35q-68 0 -108.5 -35.5t-46.5 -99.5h-91z" />
<glyph unicode="&#xbe;" horiz-adv-x="1536" d="M92 922h92q9 -64 54 -96.5t120 -32.5q76 0 119 39.5t43 101.5q0 70 -42.5 99.5t-129.5 29.5h-76v72l209 211h-362v86h473v-86l-217 -213q121 -5 179 -51.5t58 -149.5q0 -99 -68.5 -163t-187.5 -64q-116 0 -187 55.5t-77 161.5zM293 0l964 1434h105l-965 -1434h-104z M940 166v88l299 463h107l-306 -463h295v235h90v-489h-90v166h-395z" />
<glyph unicode="&#xc0;" horiz-adv-x="1325" d="M55 0l555 1434h105l555 -1434h-105l-151 391h-703l-151 -391h-105zM348 485h629l-315 813zM367 1708h133l225 -213h-131z" />
<glyph unicode="&#xc1;" horiz-adv-x="1325" d="M55 0l555 1434h105l555 -1434h-105l-151 391h-703l-151 -391h-105zM348 485h629l-315 813zM604 1495l246 213h133l-248 -213h-131z" />
<glyph unicode="&#xc2;" horiz-adv-x="1325" d="M55 0l555 1434h105l555 -1434h-105l-151 391h-703l-151 -391h-105zM348 485h629l-315 813zM399 1495l203 213h117l201 -213h-121l-140 152l-141 -152h-119z" />
<glyph unicode="&#xc3;" horiz-adv-x="1325" d="M55 0l555 1434h105l555 -1434h-105l-151 391h-703l-151 -391h-105zM348 485h629l-315 813zM420 1520q7 88 45.5 135t97.5 47q25 0 49 -10t38.5 -20.5t35.5 -29.5q17 -16 27 -24t24.5 -15.5t28.5 -7.5q31 0 46 26t22 77h81q-15 -182 -147 -182q-54 0 -115 53 q-3 2 -11.5 9.5t-11.5 10t-10.5 8.5t-11 8.5t-10 6.5t-11 5.5t-10.5 3t-12 1.5q-55 0 -65 -102h-80z" />
<glyph unicode="&#xc4;" horiz-adv-x="1325" d="M55 0l555 1434h105l555 -1434h-105l-151 391h-703l-151 -391h-105zM348 485h629l-315 813zM442 1522v149h150v-149h-150zM733 1522v149h150v-149h-150z" />
<glyph unicode="&#xc5;" horiz-adv-x="1325" d="M55 0l539 1393q-50 15 -78.5 53.5t-28.5 93.5v6q0 71 48 116.5t124 45.5q75 0 123.5 -45t48.5 -115v-6q0 -53 -27.5 -91t-74.5 -56l541 -1395h-105l-151 391h-703l-151 -391h-105zM348 485h629l-315 813zM567 1542q0 -39 25 -62.5t67 -23.5q41 0 67 24t26 64v2 q0 41 -25.5 64.5t-67.5 23.5t-67 -23.5t-25 -64.5v-4z" />
<glyph unicode="&#xc6;" horiz-adv-x="1988" d="M18 0l904 1434h919v-95h-770v-557h739v-94h-739v-594h770v-94h-866v432h-574l-270 -432h-113zM461 526h514v815z" />
<glyph unicode="&#xc7;" horiz-adv-x="1445" d="M119 719v18q0 170 52.5 307.5t143.5 226t209 136t252 47.5q228 0 383 -110t195 -300h-99q-41 150 -167 231t-312 81q-115 0 -215 -39.5t-177.5 -114.5t-122 -195.5t-44.5 -271.5v-16q0 -154 45 -277.5t122 -202t177.5 -120t214.5 -41.5q187 0 321 89t171 236h94 q-33 -184 -193 -303.5t-393 -119.5q-107 0 -204.5 31t-180 93t-143 149.5t-95 207t-34.5 258.5zM553 -313h98q86 0 124 17t38 60q0 41 -32.5 58.5t-100.5 17.5h-62l58 78h16q95 0 148 -37t53 -114q0 -162 -231 -162h-109v82z" />
<glyph unicode="&#xc8;" horiz-adv-x="1288" d="M203 0v1434h938v-95h-842v-557h811v-94h-811v-594h842v-94h-938zM455 1708h133l225 -213h-131z" />
<glyph unicode="&#xc9;" horiz-adv-x="1288" d="M203 0v1434h938v-95h-842v-557h811v-94h-811v-594h842v-94h-938zM584 1495l245 213h134l-248 -213h-131z" />
<glyph unicode="&#xca;" horiz-adv-x="1288" d="M203 0v1434h938v-95h-842v-557h811v-94h-811v-594h842v-94h-938zM424 1503l203 213h116l201 -213h-121l-139 152l-141 -152h-119z" />
<glyph unicode="&#xcb;" horiz-adv-x="1288" d="M203 0v1434h938v-95h-842v-557h811v-94h-811v-594h842v-94h-938zM461 1542v150h149v-150h-149zM752 1542v150h149v-150h-149z" />
<glyph unicode="&#xcc;" horiz-adv-x="524" d="M-23 1708h134l225 -213h-131zM223 0v1434h96v-1434h-96z" />
<glyph unicode="&#xcd;" horiz-adv-x="522" d="M188 1495l246 213h133l-248 -213h-131zM205 0v1434h96v-1434h-96z" />
<glyph unicode="&#xce;" horiz-adv-x="546" d="M12 1495l203 213h117l200 -213h-120l-140 152l-141 -152h-119zM225 0v1434h97v-1434h-97z" />
<glyph unicode="&#xcf;" horiz-adv-x="538" d="M49 1536v150h150v-150h-150zM221 0v1434h96v-1434h-96zM340 1536v150h149v-150h-149z" />
<glyph unicode="&#xd0;" horiz-adv-x="1503" d="M84 672v92h149v670h494q133 0 251 -46t209 -132t144 -220t53 -299v-18q0 -169 -53 -307t-143.5 -227t-209 -137t-251.5 -48h-494v672h-149zM330 98h397q114 0 214.5 40.5t177.5 116.5t122 195.5t45 268.5v16q0 146 -44.5 262t-122 189t-177 111t-213.5 38h-399v-571h393 v-92h-393v-574z" />
<glyph unicode="&#xd1;" horiz-adv-x="1482" d="M203 0v1434h112l869 -1291v1291h96v-1434h-113l-868 1290v-1290h-96zM512 1499q7 88 45.5 135t97.5 47q56 0 123 -59q17 -16 27 -24t24.5 -15.5t28.5 -7.5q32 0 46.5 25.5t21.5 76.5h82q-15 -182 -148 -182q-54 0 -115 53q-4 3 -13 11t-13 11.5t-11.5 10t-12.5 9l-12 6 t-13.5 5t-12.5 1.5q-55 0 -65 -103h-80z" />
<glyph unicode="&#xd2;" d="M119 719v18q0 169 53.5 307t145 226.5t210.5 136t254 47.5t254.5 -47.5t211 -136t145 -226.5t53.5 -307v-18q0 -173 -53.5 -315t-145 -233.5t-211 -141t-254.5 -49.5t-254 49.5t-210.5 141t-145 233.5t-53.5 315zM217 719q0 -154 45 -277.5t123 -202t179.5 -120 t217.5 -41.5t217.5 41.5t179.5 120t123.5 202t45.5 277.5v16q0 151 -45 271.5t-123.5 195.5t-180 114.5t-217.5 39.5t-217 -39.5t-179.5 -114.5t-123.5 -195.5t-45 -271.5v-16zM504 1729h133l225 -213h-131z" />
<glyph unicode="&#xd3;" d="M119 719v18q0 169 53.5 307t145 226.5t210.5 136t254 47.5t254.5 -47.5t211 -136t145 -226.5t53.5 -307v-18q0 -173 -53.5 -315t-145 -233.5t-211 -141t-254.5 -49.5t-254 49.5t-210.5 141t-145 233.5t-53.5 315zM217 719q0 -154 45 -277.5t123 -202t179.5 -120 t217.5 -41.5t217.5 41.5t179.5 120t123.5 202t45.5 277.5v16q0 151 -45 271.5t-123.5 195.5t-180 114.5t-217.5 39.5t-217 -39.5t-179.5 -114.5t-123.5 -195.5t-45 -271.5v-16zM705 1516l245 213h133l-247 -213h-131z" />
<glyph unicode="&#xd4;" d="M119 719v18q0 169 53.5 307t145 226.5t210.5 136t254 47.5t254.5 -47.5t211 -136t145 -226.5t53.5 -307v-18q0 -173 -53.5 -315t-145 -233.5t-211 -141t-254.5 -49.5t-254 49.5t-210.5 141t-145 233.5t-53.5 315zM217 719q0 -154 45 -277.5t123 -202t179.5 -120 t217.5 -41.5t217.5 41.5t179.5 120t123.5 202t45.5 277.5v16q0 151 -45 271.5t-123.5 195.5t-180 114.5t-217.5 39.5t-217 -39.5t-179.5 -114.5t-123.5 -195.5t-45 -271.5v-16zM522 1516l203 213h117l200 -213h-120l-140 151l-141 -151h-119z" />
<glyph unicode="&#xd5;" d="M119 719v18q0 169 53.5 307t145 226.5t210.5 136t254 47.5t254.5 -47.5t211 -136t145 -226.5t53.5 -307v-18q0 -173 -53.5 -315t-145 -233.5t-211 -141t-254.5 -49.5t-254 49.5t-210.5 141t-145 233.5t-53.5 315zM217 719q0 -154 45 -277.5t123 -202t179.5 -120 t217.5 -41.5t217.5 41.5t179.5 120t123.5 202t45.5 277.5v16q0 151 -45 271.5t-123.5 195.5t-180 114.5t-217.5 39.5t-217 -39.5t-179.5 -114.5t-123.5 -195.5t-45 -271.5v-16zM543 1522q7 88 45.5 135t97.5 47q56 0 123 -59q19 -17 27.5 -24.5t23.5 -15.5t29 -8 q31 0 45.5 26t21.5 77h82q-15 -182 -147 -182q-54 0 -115 53q-3 2 -11.5 9.5t-11.5 10t-10.5 8.5t-11 8.5t-10 6.5t-11 5.5t-10.5 3t-12 1.5q-55 0 -65 -102h-80z" />
<glyph unicode="&#xd6;" d="M119 719v18q0 169 53.5 307t145 226.5t210.5 136t254 47.5t254.5 -47.5t211 -136t145 -226.5t53.5 -307v-18q0 -173 -53.5 -315t-145 -233.5t-211 -141t-254.5 -49.5t-254 49.5t-210.5 141t-145 233.5t-53.5 315zM217 719q0 -154 45 -277.5t123 -202t179.5 -120 t217.5 -41.5t217.5 41.5t179.5 120t123.5 202t45.5 277.5v16q0 151 -45 271.5t-123.5 195.5t-180 114.5t-217.5 39.5t-217 -39.5t-179.5 -114.5t-123.5 -195.5t-45 -271.5v-16zM561 1542v150h150v-150h-150zM852 1542v150h149v-150h-149z" />
<glyph unicode="&#xd7;" horiz-adv-x="884" d="M111 297l270 270l-270 271l61 61l270 -270l271 270l61 -61l-270 -271l270 -270l-61 -61l-271 270l-270 -270z" />
<glyph unicode="&#xd8;" d="M119 719v18q0 169 53.5 307t145 226.5t210.5 136t254 47.5q189 0 342 -90l47 70h109l-80 -121q115 -95 180.5 -241.5t65.5 -334.5v-18q0 -173 -53.5 -315t-145 -233.5t-211 -141t-254.5 -49.5q-221 0 -389 124l-69 -104h-107l109 162q-207 207 -207 557zM217 719 q0 -299 164 -473l690 1036q-130 74 -289 74q-116 0 -217 -39.5t-179.5 -114.5t-123.5 -195.5t-45 -271.5v-16zM446 184q142 -106 336 -106q116 0 217.5 41.5t179.5 120t123.5 202t45.5 277.5v16q0 328 -203 496z" />
<glyph unicode="&#xd9;" horiz-adv-x="1433" d="M176 573v861h96v-861q0 -97 16 -174.5t46.5 -130.5t70.5 -91t91.5 -59t104.5 -30.5t116 -9.5q76 0 138 13t120.5 47t98 88.5t63.5 142.5t24 204v861h96v-861q0 -593 -540 -593q-541 0 -541 593zM461 1708h133l225 -213h-131z" />
<glyph unicode="&#xda;" horiz-adv-x="1433" d="M176 573v861h96v-861q0 -97 16 -174.5t46.5 -130.5t70.5 -91t91.5 -59t104.5 -30.5t116 -9.5q76 0 138 13t120.5 47t98 88.5t63.5 142.5t24 204v861h96v-861q0 -593 -540 -593q-541 0 -541 593zM625 1495l245 213h134l-248 -213h-131z" />
<glyph unicode="&#xdb;" horiz-adv-x="1433" d="M176 573v861h96v-861q0 -97 16 -174.5t46.5 -130.5t70.5 -91t91.5 -59t104.5 -30.5t116 -9.5q76 0 138 13t120.5 47t98 88.5t63.5 142.5t24 204v861h96v-861q0 -593 -540 -593q-541 0 -541 593zM465 1495l203 213h116l201 -213h-121l-139 152l-141 -152h-119z" />
<glyph unicode="&#xdc;" horiz-adv-x="1433" d="M176 573v861h96v-861q0 -97 16 -174.5t46.5 -130.5t70.5 -91t91.5 -59t104.5 -30.5t116 -9.5q76 0 138 13t120.5 47t98 88.5t63.5 142.5t24 204v861h96v-861q0 -593 -540 -593q-541 0 -541 593zM498 1522v149h149v-149h-149zM788 1522v149h150v-149h-150z" />
<glyph unicode="&#xdd;" horiz-adv-x="1148" d="M18 1434h105l473 -740l471 740h104l-528 -824v-610h-96v604zM498 1495l245 213h134l-248 -213h-131z" />
<glyph unicode="&#xde;" horiz-adv-x="1288" d="M203 0v1434h96v-297h432q239 0 361 -104.5t122 -299.5q0 -197 -120 -306.5t-351 -109.5h-444v-317h-96zM299 412h444q193 0 285 84.5t92 234.5t-92 230.5t-299 80.5h-430v-630z" />
<glyph unicode="&#xdf;" horiz-adv-x="1224" d="M37 932v92h199q0 205 119 317.5t327 112.5q178 0 285.5 -101t107.5 -268q0 -112 -56 -194.5t-153 -116.5q132 -31 209.5 -123.5t77.5 -240.5q0 -201 -126.5 -305.5t-342.5 -104.5h-154v90h154q175 0 275 80.5t100 235.5q0 159 -96.5 238t-272.5 79h-160v90h152 q75 0 134 23t94 61.5t53 85t18 98.5q0 138 -78.5 210.5t-222.5 72.5q-163 0 -255.5 -88.5t-92.5 -255.5v-1020h-96v932h-199z" />
<glyph unicode="&#xe0;" horiz-adv-x="1089" d="M115 262q0 116 75.5 195t225.5 106l411 74v61q0 254 -274 254q-137 0 -211 -49.5t-84 -159.5h-96q24 301 391 301q176 0 273.5 -88.5t97.5 -244.5v-711h-70l-27 88l-106 -39q-8 -3 -39.5 -14t-42.5 -14.5t-39 -12t-45.5 -12t-43.5 -8.5t-51.5 -6.5t-53.5 -1.5 q-125 -2 -208 77.5t-83 204.5zM211 266q0 -88 56.5 -142t142.5 -54q113 0 272 57l145 53v365l-407 -72q-100 -18 -154.5 -73.5t-54.5 -133.5zM354 1434h121l197 -287h-117z" />
<glyph unicode="&#xe1;" horiz-adv-x="1089" d="M115 262q0 116 75.5 195t225.5 106l411 74v61q0 254 -274 254q-137 0 -211 -49.5t-84 -159.5h-96q24 301 391 301q176 0 273.5 -88.5t97.5 -244.5v-711h-70l-27 88l-106 -39q-8 -3 -39.5 -14t-42.5 -14.5t-39 -12t-45.5 -12t-43.5 -8.5t-51.5 -6.5t-53.5 -1.5 q-125 -2 -208 77.5t-83 204.5zM211 266q0 -88 56.5 -142t142.5 -54q113 0 272 57l145 53v365l-407 -72q-100 -18 -154.5 -73.5t-54.5 -133.5zM467 1147l225 287h121l-229 -287h-117z" />
<glyph unicode="&#xe2;" horiz-adv-x="1089" d="M115 262q0 116 75.5 195t225.5 106l411 74v61q0 254 -274 254q-137 0 -211 -49.5t-84 -159.5h-96q24 301 391 301q176 0 273.5 -88.5t97.5 -244.5v-711h-70l-27 88l-106 -39q-8 -3 -39.5 -14t-42.5 -14.5t-39 -12t-45.5 -12t-43.5 -8.5t-51.5 -6.5t-53.5 -1.5 q-125 -2 -208 77.5t-83 204.5zM211 266q0 -88 56.5 -142t142.5 -54q113 0 272 57l145 53v365l-407 -72q-100 -18 -154.5 -73.5t-54.5 -133.5zM307 1147l193 287h106l193 -287h-105l-141 215l-141 -215h-105z" />
<glyph unicode="&#xe3;" horiz-adv-x="1089" d="M115 262q0 116 75.5 195t225.5 106l411 74v61q0 254 -274 254q-137 0 -211 -49.5t-84 -159.5h-96q24 301 391 301q176 0 273.5 -88.5t97.5 -244.5v-711h-70l-27 88l-106 -39q-8 -3 -39.5 -14t-42.5 -14.5t-39 -12t-45.5 -12t-43.5 -8.5t-51.5 -6.5t-53.5 -1.5 q-125 -2 -208 77.5t-83 204.5zM211 266q0 -88 56.5 -142t142.5 -54q113 0 272 57l145 53v365l-407 -72q-100 -18 -154.5 -73.5t-54.5 -133.5zM301 1198q7 91 46.5 141t98.5 50q37 0 67.5 -18.5t47.5 -40t40 -40t46 -18.5q65 0 72 110h78q-3 -92 -44 -141t-106 -49 q-37 0 -69 18.5t-49.5 40t-39.5 40t-43 18.5q-51 0 -67 -111h-78z" />
<glyph unicode="&#xe4;" horiz-adv-x="1089" d="M115 262q0 116 75.5 195t225.5 106l411 74v61q0 254 -274 254q-137 0 -211 -49.5t-84 -159.5h-96q24 301 391 301q176 0 273.5 -88.5t97.5 -244.5v-711h-70l-27 88l-106 -39q-8 -3 -39.5 -14t-42.5 -14.5t-39 -12t-45.5 -12t-43.5 -8.5t-51.5 -6.5t-53.5 -1.5 q-125 -2 -208 77.5t-83 204.5zM211 266q0 -88 56.5 -142t142.5 -54q113 0 272 57l145 53v365l-407 -72q-100 -18 -154.5 -73.5t-54.5 -133.5zM330 1198v156h153v-156h-153zM633 1198v156h153v-156h-153z" />
<glyph unicode="&#xe5;" horiz-adv-x="1089" d="M115 262q0 116 75.5 195t225.5 106l411 74v61q0 254 -274 254q-137 0 -211 -49.5t-84 -159.5h-96q24 301 391 301q176 0 273.5 -88.5t97.5 -244.5v-711h-70l-27 88l-106 -39q-8 -3 -39.5 -14t-42.5 -14.5t-39 -12t-45.5 -12t-43.5 -8.5t-51.5 -6.5t-53.5 -1.5 q-125 -2 -208 77.5t-83 204.5zM211 266q0 -88 56.5 -142t142.5 -54q113 0 272 57l145 53v365l-407 -72q-100 -18 -154.5 -73.5t-54.5 -133.5zM381 1276v8q0 73 50.5 120.5t129.5 47.5t129.5 -47.5t50.5 -120.5v-8q0 -74 -50.5 -122t-129.5 -48t-129.5 48t-50.5 122z M459 1278q0 -43 29 -68.5t73 -25.5t73.5 25.5t29.5 68.5v4q0 44 -29 69t-74 25q-44 0 -73 -25t-29 -69v-4z" />
<glyph unicode="&#xe6;" horiz-adv-x="1753" d="M115 272q0 151 105 234.5t308 83.5h271v67q0 143 -68.5 219t-191.5 76q-130 0 -201 -50t-78 -159h-96q9 149 105 225t270 76q128 0 215.5 -64.5t111.5 -164.5q57 110 158.5 169.5t220.5 59.5q191 0 299.5 -130.5t108.5 -358.5v-55h-762v-13q0 -187 97 -301t251 -114 q113 0 191 57t100 152h98q-10 -57 -37 -108t-72 -95.5t-116.5 -71t-159.5 -26.5q-118 0 -209.5 50.5t-148.5 139.5l-86 -61q-31 -23 -43.5 -31.5t-53 -32.5t-71.5 -35.5t-79.5 -22t-96.5 -10.5q-153 0 -246.5 82.5t-93.5 212.5zM207 274q0 -88 70 -145t188 -57q44 0 88 11.5 t87 35t64.5 37.5t57.5 39l80 55q-43 101 -43 223v27h-267q-325 0 -325 -226zM891 590h657q0 160 -83.5 262t-227.5 102t-236.5 -98.5t-109.5 -265.5z" />
<glyph unicode="&#xe7;" horiz-adv-x="1097" d="M106 504v16q0 240 134 382t344 142q178 0 286.5 -83.5t135.5 -235.5h-101q-52 227 -321 227q-169 0 -275 -117t-106 -315v-16q0 -198 102 -315t273 -117q138 0 222.5 61.5t110.5 167.5h97q-22 -148 -135.5 -234.5t-294.5 -86.5q-210 0 -341 145t-131 379zM399 -317h99 q83 0 120 16t37 59q0 41 -31.5 58.5t-97.5 17.5h-61l57 84h17q93 0 144.5 -40t51.5 -118q0 -166 -227 -166h-109v89z" />
<glyph unicode="&#xe8;" horiz-adv-x="1130" d="M106 494v41q0 233 132.5 371t349.5 138q204 0 323 -133t119 -368v-56h-827q3 -192 104.5 -303.5t267.5 -111.5q260 0 332 207h97q-32 -136 -140.5 -217.5t-288.5 -81.5q-207 0 -338 140t-131 374zM205 578h725q-3 179 -92 277.5t-250 98.5q-158 0 -264 -96.5t-119 -279.5 zM365 1434h120l197 -287h-117z" />
<glyph unicode="&#xe9;" horiz-adv-x="1130" d="M106 494v41q0 233 132.5 371t349.5 138q204 0 323 -133t119 -368v-56h-827q3 -192 104.5 -303.5t267.5 -111.5q260 0 332 207h97q-32 -136 -140.5 -217.5t-288.5 -81.5q-207 0 -338 140t-131 374zM205 578h725q-3 179 -92 277.5t-250 98.5q-158 0 -264 -96.5t-119 -279.5 zM492 1147l225 287h121l-230 -287h-116z" />
<glyph unicode="&#xea;" horiz-adv-x="1130" d="M106 494v41q0 233 132.5 371t349.5 138q204 0 323 -133t119 -368v-56h-827q3 -192 104.5 -303.5t267.5 -111.5q260 0 332 207h97q-32 -136 -140.5 -217.5t-288.5 -81.5q-207 0 -338 140t-131 374zM205 578h725q-3 179 -92 277.5t-250 98.5q-158 0 -264 -96.5t-119 -279.5 zM326 1147l192 287h107l192 -287h-104l-142 215l-141 -215h-104z" />
<glyph unicode="&#xeb;" horiz-adv-x="1130" d="M106 494v41q0 233 132.5 371t349.5 138q204 0 323 -133t119 -368v-56h-827q3 -192 104.5 -303.5t267.5 -111.5q260 0 332 207h97q-32 -136 -140.5 -217.5t-288.5 -81.5q-207 0 -338 140t-131 374zM205 578h725q-3 179 -92 277.5t-250 98.5q-158 0 -264 -96.5t-119 -279.5 zM344 1198v156h154v-156h-154zM647 1198v156h154v-156h-154z" />
<glyph unicode="&#xec;" horiz-adv-x="487" d="M2 1434h121l196 -287h-116zM205 0v1024h96v-1024h-96z" />
<glyph unicode="&#xed;" horiz-adv-x="485" d="M166 1147l225 287h121l-229 -287h-117zM186 0v1024h97v-1024h-97z" />
<glyph unicode="&#xee;" horiz-adv-x="505" d="M6 1147l193 287h106l193 -287h-105l-141 215l-141 -215h-105zM205 0v1024h96v-1024h-96z" />
<glyph unicode="&#xef;" horiz-adv-x="501" d="M23 1198v156h153v-156h-153zM203 0v1024h96v-1024h-96zM326 1198v156h153v-156h-153z" />
<glyph unicode="&#xf0;" horiz-adv-x="1146" d="M90 467v27q0 150 65.5 263t175 170.5t244.5 57.5q120 0 212.5 -44.5t150.5 -121.5q-69 314 -324 449l-190 -215h-105l222 250q-97 39 -240 65l23 86q147 -25 276 -82l72 80h106l-104 -119q194 -111 285.5 -307t91.5 -481v-17q0 -247 -127 -397.5t-357 -150.5 q-213 0 -345 134t-132 353zM182 467q0 -176 105 -285.5t280 -109.5q184 0 285.5 118.5t101.5 325.5v14q0 170 -104 269.5t-272 99.5q-169 0 -282.5 -110.5t-113.5 -294.5v-27z" />
<glyph unicode="&#xf1;" horiz-adv-x="1181" d="M184 0v1024h70l27 -102l90 45q154 77 301 77q154 0 249 -96t95 -272v-676h-96v647q0 303 -256 303q-133 0 -267 -67l-116 -58v-825h-97zM334 1198q7 91 46.5 141t98.5 50q37 0 67.5 -18.5t47.5 -40t40 -40t46 -18.5q65 0 72 110h77q-3 -93 -43.5 -141.5t-105.5 -48.5 q-38 0 -69.5 18.5t-49 40t-39.5 40t-43 18.5q-51 0 -67 -111h-78z" />
<glyph unicode="&#xf2;" horiz-adv-x="1138" d="M92 502v20q0 241 136 381.5t345 140.5q213 0 343.5 -139.5t130.5 -382.5v-20q0 -237 -132.5 -379.5t-345.5 -142.5q-101 0 -189 37t-151.5 104t-100 165.5t-36.5 215.5zM188 502q0 -194 106 -312t275 -118q172 0 276.5 117.5t104.5 312.5v20q0 201 -103 315.5t-274 114.5 q-168 0 -276.5 -115.5t-108.5 -314.5v-20zM344 1434h121l197 -287h-117z" />
<glyph unicode="&#xf3;" horiz-adv-x="1138" d="M92 502v20q0 241 136 381.5t345 140.5q213 0 343.5 -139.5t130.5 -382.5v-20q0 -237 -132.5 -379.5t-345.5 -142.5q-101 0 -189 37t-151.5 104t-100 165.5t-36.5 215.5zM188 502q0 -194 106 -312t275 -118q172 0 276.5 117.5t104.5 312.5v20q0 201 -103 315.5t-274 114.5 q-168 0 -276.5 -115.5t-108.5 -314.5v-20zM500 1147l225 287h121l-230 -287h-116z" />
<glyph unicode="&#xf4;" horiz-adv-x="1138" d="M92 502v20q0 241 136 381.5t345 140.5q213 0 343.5 -139.5t130.5 -382.5v-20q0 -237 -132.5 -379.5t-345.5 -142.5q-101 0 -189 37t-151.5 104t-100 165.5t-36.5 215.5zM188 502q0 -194 106 -312t275 -118q172 0 276.5 117.5t104.5 312.5v20q0 201 -103 315.5t-274 114.5 q-168 0 -276.5 -115.5t-108.5 -314.5v-20zM332 1147l192 287h107l192 -287h-104l-141 215l-142 -215h-104z" />
<glyph unicode="&#xf5;" horiz-adv-x="1138" d="M92 502v20q0 241 136 381.5t345 140.5q213 0 343.5 -139.5t130.5 -382.5v-20q0 -237 -132.5 -379.5t-345.5 -142.5q-101 0 -189 37t-151.5 104t-100 165.5t-36.5 215.5zM188 502q0 -194 106 -312t275 -118q172 0 276.5 117.5t104.5 312.5v20q0 201 -103 315.5t-274 114.5 q-168 0 -276.5 -115.5t-108.5 -314.5v-20zM317 1198q7 91 46.5 141t99.5 50q37 0 67.5 -18.5t47.5 -40t40 -40t46 -18.5q64 0 71 110h78q-3 -93 -43.5 -141.5t-105.5 -48.5q-38 0 -69.5 18.5t-49 40t-39.5 40t-43 18.5q-52 0 -68 -111h-78z" />
<glyph unicode="&#xf6;" horiz-adv-x="1138" d="M92 502v20q0 241 136 381.5t345 140.5q213 0 343.5 -139.5t130.5 -382.5v-20q0 -237 -132.5 -379.5t-345.5 -142.5q-101 0 -189 37t-151.5 104t-100 165.5t-36.5 215.5zM188 502q0 -194 106 -312t275 -118q172 0 276.5 117.5t104.5 312.5v20q0 201 -103 315.5t-274 114.5 q-168 0 -276.5 -115.5t-108.5 -314.5v-20zM342 1198v156h154v-156h-154zM645 1198v156h154v-156h-154z" />
<glyph unicode="&#xf7;" horiz-adv-x="940" d="M102 522v92h736v-92h-736zM412 221v137h137v-137h-137zM412 778v137h137v-137h-137z" />
<glyph unicode="&#xf8;" horiz-adv-x="1138" d="M92 502v20q0 241 136 381.5t345 140.5q147 0 254 -67l31 47h98l-63 -96q154 -144 154 -406v-20q0 -237 -132.5 -379.5t-345.5 -142.5q-138 0 -247 65l-29 -45h-98l61 94q-78 69 -121 173.5t-43 234.5zM188 502q0 -209 119 -328l469 723q-85 55 -203 55 q-168 0 -276.5 -115.5t-108.5 -314.5v-20zM373 123q88 -51 196 -51q172 0 276.5 117.5t104.5 312.5v20q0 208 -110 324z" />
<glyph unicode="&#xf9;" horiz-adv-x="1181" d="M166 348v676h96v-647q0 -303 256 -303q132 0 266 67l117 58v825h96v-1024h-69l-27 102l-90 -45q-154 -77 -301 -77q-154 0 -249 96t-95 272zM360 1434h121l197 -287h-117z" />
<glyph unicode="&#xfa;" horiz-adv-x="1181" d="M166 348v676h96v-647q0 -303 256 -303q132 0 266 67l117 58v825h96v-1024h-69l-27 102l-90 -45q-154 -77 -301 -77q-154 0 -249 96t-95 272zM498 1147l225 287h121l-230 -287h-116z" />
<glyph unicode="&#xfb;" horiz-adv-x="1181" d="M166 348v676h96v-647q0 -303 256 -303q132 0 266 67l117 58v825h96v-1024h-69l-27 102l-90 -45q-154 -77 -301 -77q-154 0 -249 96t-95 272zM348 1147l193 287h106l193 -287h-105l-141 215l-141 -215h-105z" />
<glyph unicode="&#xfc;" horiz-adv-x="1181" d="M166 348v676h96v-647q0 -303 256 -303q132 0 266 67l117 58v825h96v-1024h-69l-27 102l-90 -45q-154 -77 -301 -77q-154 0 -249 96t-95 272zM360 1198v156h154v-156h-154zM664 1198v156h153v-156h-153z" />
<glyph unicode="&#xfd;" horiz-adv-x="976" d="M25 1024h100l381 -909l362 909h97l-572 -1434h-96l164 410h-2zM416 1147l225 287h121l-230 -287h-116z" />
<glyph unicode="&#xfe;" horiz-adv-x="1183" d="M184 -410v1844h97v-510l28 20q141 100 303 100q206 0 335.5 -134t129.5 -365v-41q0 -241 -131.5 -382.5t-333.5 -141.5q-162 0 -303 100l-28 20v-510h-97zM281 201l38 -27q149 -102 293 -102q162 0 265.5 114.5t103.5 317.5v41q0 193 -100.5 300t-268.5 107 q-144 0 -293 -102l-38 -27v-622z" />
<glyph unicode="&#xff;" horiz-adv-x="976" d="M25 1024h100l381 -909l362 909h97l-572 -1434h-96l164 410h-2zM272 1198v156h154v-156h-154zM575 1198v156h154v-156h-154z" />
<glyph unicode="&#x178;" horiz-adv-x="1148" d="M18 1434h105l473 -740l471 740h104l-528 -824v-610h-96v604zM393 1522v149h150v-149h-150zM684 1522v149h150v-149h-150z" />
<glyph unicode="&#x2c6;" horiz-adv-x="516" d="M10 1485l193 287h106l193 -287h-105l-141 215l-141 -215h-105z" />
<glyph unicode="&#x2dc;" horiz-adv-x="569" d="M37 1499q7 91 46.5 141t98.5 50q37 0 67.5 -18.5t47.5 -40t40 -40t46 -18.5q65 0 72 110h77q-3 -93 -43.5 -141.5t-105.5 -48.5q-37 0 -69 18.5t-49.5 40t-40 40t-42.5 18.5q-51 0 -67 -111h-78z" />
<glyph unicode="&#x2000;" horiz-adv-x="886" />
<glyph unicode="&#x2001;" horiz-adv-x="1772" />
<glyph unicode="&#x2002;" horiz-adv-x="886" />
<glyph unicode="&#x2003;" horiz-adv-x="1772" />
<glyph unicode="&#x2004;" horiz-adv-x="590" />
<glyph unicode="&#x2005;" horiz-adv-x="443" />
<glyph unicode="&#x2006;" horiz-adv-x="295" />
<glyph unicode="&#x2007;" horiz-adv-x="295" />
<glyph unicode="&#x2008;" horiz-adv-x="221" />
<glyph unicode="&#x2009;" horiz-adv-x="354" />
<glyph unicode="&#x200a;" horiz-adv-x="98" />
<glyph unicode="&#x2010;" horiz-adv-x="788" d="M113 483v92h563v-92h-563z" />
<glyph unicode="&#x2011;" horiz-adv-x="788" d="M113 483v92h563v-92h-563z" />
<glyph unicode="&#x2012;" horiz-adv-x="788" d="M113 483v92h563v-92h-563z" />
<glyph unicode="&#x2013;" horiz-adv-x="1024" d="M113 483v92h798v-92h-798z" />
<glyph unicode="&#x2014;" horiz-adv-x="2048" d="M113 483v92h1822v-92h-1822z" />
<glyph unicode="&#x2018;" horiz-adv-x="280" d="M23 1079l147 355h61l-63 -355h-145z" />
<glyph unicode="&#x2019;" horiz-adv-x="280" d="M49 1079l64 355h145l-147 -355h-62z" />
<glyph unicode="&#x201a;" horiz-adv-x="286" d="M29 -197l75 355h146l-160 -355h-61z" />
<glyph unicode="&#x201c;" horiz-adv-x="530" d="M23 1079l147 355h61l-63 -355h-145zM272 1079l148 355h61l-63 -355h-146z" />
<glyph unicode="&#x201d;" horiz-adv-x="530" d="M49 1079l64 355h145l-147 -355h-62zM299 1079l63 355h146l-148 -355h-61z" />
<glyph unicode="&#x201e;" horiz-adv-x="534" d="M39 -197l63 355h146l-148 -355h-61zM289 -197l63 355h146l-148 -355h-61z" />
<glyph unicode="&#x2022;" horiz-adv-x="464" d="M121 743q0 48 30.5 78.5t79.5 30.5q51 0 82 -30.5t31 -78.5q0 -50 -31 -81t-82 -31q-49 0 -79.5 31t-30.5 81z" />
<glyph unicode="&#x2026;" horiz-adv-x="1034" d="M74 0v152h149v-152h-149zM442 0v152h150v-152h-150zM811 0v152h150v-152h-150z" />
<glyph unicode="&#x202f;" horiz-adv-x="354" />
<glyph unicode="&#x2039;" horiz-adv-x="833" d="M66 506v104l694 367v-103l-606 -317l606 -317v-105z" />
<glyph unicode="&#x203a;" horiz-adv-x="833" d="M74 135v103l606 315l-606 319v105l694 -371v-104z" />
<glyph unicode="&#x205f;" horiz-adv-x="443" />
<glyph unicode="&#x20ac;" horiz-adv-x="1435" d="M102 483v92h158q-8 90 -8 142v18q0 51 2 76h-152v92h160q39 264 192 407.5t380 143.5q215 0 345 -108t164 -302h-100q-43 155 -141 233.5t-268 78.5q-183 0 -310 -117t-164 -336h519v-92h-529q-2 -27 -2 -78v-16q0 -85 8 -142h523v-92h-506q46 -197 168.5 -301 t292.5 -104q174 0 278.5 86t142.5 239h97q-33 -191 -163.5 -307t-354.5 -116q-219 0 -366 129.5t-196 373.5h-170z" />
<glyph unicode="&#x25fc;" horiz-adv-x="1024" d="M0 0v1024h1024v-1024h-1024z" />
</font>
</defs>
</svg>
