<?xml version="1.0" standalone="no"?>
<!DOCTYPE svg PUBLIC "-//W3C//DTD SVG 1.1//EN" "http://www.w3.org/Graphics/SVG/1.1/DTD/svg11.dtd" >
<svg xmlns="http://www.w3.org/2000/svg">
<metadata></metadata>
<defs>
<font id="via_typeblack" horiz-adv-x="1519" >
<font-face units-per-em="2048" ascent="1638" descent="-410" />
<missing-glyph horiz-adv-x="512" />
<glyph horiz-adv-x="0" />
<glyph horiz-adv-x="682" />
<glyph unicode=" "  horiz-adv-x="512" />
<glyph unicode="&#x09;" horiz-adv-x="512" />
<glyph unicode="&#xa0;" horiz-adv-x="512" />
<glyph unicode="!" horiz-adv-x="647" d="M131 0v379h385v-379h-385zM131 1434h385l-20 -983h-344z" />
<glyph unicode="&#x22;" horiz-adv-x="1021" d="M113 1434h346l-23 -717h-301zM563 1434h346l-22 -717h-301z" />
<glyph unicode="#" horiz-adv-x="1290" d="M29 334l41 284h188l29 203h-189l39 285h191l47 328h276l-47 -328h193l47 328h276l-47 -328h189l-39 -285h-191l-28 -203h190l-41 -284h-190l-48 -334h-276l47 334h-192l-48 -334h-276l47 334h-188zM535 618h192l29 203h-193z" />
<glyph unicode="$" horiz-adv-x="1257" d="M39 516h373q23 -78 84.5 -111.5t169.5 -33.5q94 0 143 18t49 66q0 44 -41.5 59.5t-177.5 34.5l-66 8q-93 12 -162 28t-136 46.5t-108.5 72.5t-67 107.5t-25.5 151.5q0 91 32.5 164t90.5 121.5t133 78.5t166 43v164h307v-166q89 -13 158 -42t124.5 -80.5t87.5 -133 t39 -190.5h-358q-11 78 -66 108.5t-155 30.5q-189 0 -189 -86q0 -43 40.5 -58.5t143.5 -29.5q27 -4 42 -6l71 -11q84 -12 145.5 -26.5t128 -44.5t108.5 -71t69 -107t27 -152q0 -175 -112.5 -280t-303.5 -134v-174h-307v176q-97 12 -173.5 41.5t-140 82t-100.5 137.5t-43 198 z" />
<glyph unicode="%" horiz-adv-x="1542" d="M29 1110v14q0 151 96.5 240.5t239.5 89.5q144 0 238.5 -89.5t94.5 -240.5v-14q0 -148 -95.5 -240t-237.5 -92q-141 0 -238.5 92.5t-97.5 239.5zM211 0l799 1434h315l-797 -1434h-317zM264 1114q0 -50 28 -80t73 -30t71.5 29.5t26.5 80.5v4q0 52 -26.5 81.5t-71.5 29.5 q-44 0 -72.5 -30t-28.5 -81v-4zM844 311v15q0 151 96.5 240t239.5 89q144 0 238.5 -89t94.5 -240v-15q0 -148 -95.5 -239.5t-237.5 -91.5t-239 92t-97 239zM1079 315q0 -50 28 -80t73 -30t71.5 29.5t26.5 80.5v4q0 52 -26.5 81.5t-71.5 29.5q-44 0 -72.5 -30t-28.5 -81v-4z " />
<glyph unicode="&#x26;" horiz-adv-x="1366" d="M39 412q0 74 15 135.5t46.5 113t67 90.5t88.5 85q-51 96 -51 211q0 182 125.5 294.5t345.5 112.5q235 0 363 -142.5t128 -412.5h-348q-2 109 -36 159t-107 50q-51 0 -83 -27t-32 -75q0 -47 37.5 -100.5t163.5 -186.5l121 -129l69 143h373l-147 -313q-6 -15 -14 -30 t-18 -33t-16 -29l314 -328h-438l-82 86q-147 -106 -377 -106q-231 0 -369.5 112.5t-138.5 319.5zM391 459q0 -64 44 -99.5t114 -35.5q67 0 123 24l-215 227l-17 17q-49 -65 -49 -133z" />
<glyph unicode="'" horiz-adv-x="571" d="M113 1434h346l-23 -717h-301z" />
<glyph unicode="(" horiz-adv-x="712" d="M84 463v84q0 471 127.5 684.5t425.5 222.5v-313q-50 -7 -85 -22.5t-69 -54t-54 -101t-32 -166t-12 -246.5v-82q0 -143 12 -246t32 -165t54 -100t69 -53t85 -22v-313q-295 9 -424 226t-129 667z" />
<glyph unicode=")" horiz-adv-x="712" d="M76 -117q50 7 85 22t69 53t54 100t32 165t12 246v82q0 143 -12 246.5t-32 166t-54 101t-69 54t-85 22.5v313q298 -9 425.5 -222.5t127.5 -684.5v-84q0 -450 -129 -667t-424 -226v313z" />
<glyph unicode="*" horiz-adv-x="831" d="M57 997v195l191 -2l-117 145l162 119l129 -201l127 201l158 -115l-113 -149l180 2v-195l-178 2l104 -141l-155 -121l-123 207l-129 -207l-168 121l111 141z" />
<glyph unicode="+" horiz-adv-x="1044" d="M76 410v303h299v291h295v-291h299v-303h-299v-304h-295v304h-299z" />
<glyph unicode="," horiz-adv-x="503" d="M-10 -248l116 627h377l-200 -627h-293z" />
<glyph unicode="-" horiz-adv-x="788" d="M82 360v340h625v-340h-625z" />
<glyph unicode="." horiz-adv-x="552" d="M84 0v379h385v-379h-385z" />
<glyph unicode="/" horiz-adv-x="1042" d="M0 -410l676 1844h366l-673 -1844h-369z" />
<glyph unicode="0" horiz-adv-x="1372" d="M76 653v127q0 169 46 299t129 211.5t192.5 122.5t242.5 41q132 0 241.5 -41t192.5 -122t129.5 -211.5t46.5 -299.5v-127q0 -169 -46.5 -299t-129.5 -211t-192.5 -122t-241.5 -41q-133 0 -242.5 41t-192.5 122t-129 211t-46 299zM438 653q0 -169 63.5 -246t184.5 -77 q248 0 248 323v127q0 324 -248 324q-121 0 -184.5 -77.5t-63.5 -246.5v-127z" />
<glyph unicode="1" horiz-adv-x="942" d="M57 838v389l389 207h355v-1434h-355v1034z" />
<glyph unicode="2" horiz-adv-x="1251" d="M68 930v43q0 103 34.5 190t101.5 152.5t174.5 102t244.5 36.5q123 0 222.5 -36.5t164 -100.5t99 -149.5t34.5 -184.5q0 -43 -5.5 -81.5t-20.5 -75t-29 -65t-42.5 -62.5t-48 -56t-59.5 -57.5t-63 -55t-72 -59.5t-74 -61l-84 -70h504v-340h-1063v340l365 297q32 26 78 62.5 t69.5 55t54.5 45t46 43.5t30.5 38t21 40.5t5.5 41.5q0 60 -41 102.5t-115 42.5q-83 0 -126.5 -48t-43.5 -130h-362z" />
<glyph unicode="3" horiz-adv-x="1271" d="M39 485h369q37 -157 241 -157q96 0 148.5 38.5t52.5 108.5q0 72 -59.5 103.5t-182.5 31.5h-172v267l275 221h-613v336h1053v-336l-311 -234q193 -27 283.5 -120.5t90.5 -274.5q0 -223 -155 -356t-428 -133q-171 0 -300 55t-207 170t-85 280z" />
<glyph unicode="4" horiz-adv-x="1290" d="M66 252v336l538 846h420l-553 -846h360v377h355v-965h-355v252h-765z" />
<glyph unicode="5" horiz-adv-x="1267" d="M98 461h365q37 -133 221 -133q85 0 135.5 40.5t50.5 110.5v6q0 70 -50.5 110t-137.5 40q-111 0 -223 -49h-342l110 848h932v-336h-631l-26 -195q130 53 262 53q209 0 337 -120t128 -342v-23q0 -220 -144.5 -355.5t-406.5 -135.5q-266 0 -420 131.5t-160 349.5z" />
<glyph unicode="6" horiz-adv-x="1228" d="M57 500v16q0 159 78 315.5t213 321.5l230 281h446l-383 -439h6q245 0 394 -129t149 -352v-16q0 -222 -156.5 -370t-415.5 -148q-266 0 -413.5 139t-147.5 381zM420 489q0 -76 55 -119.5t148 -43.5q92 0 149 46t57 126v8q0 80 -56.5 125t-149.5 45q-89 0 -146 -48 t-57 -128v-11z" />
<glyph unicode="7" horiz-adv-x="1132" d="M37 1094v340h1075v-340l-557 -1094h-391l579 1094h-706z" />
<glyph unicode="8" horiz-adv-x="1343" d="M92 426v12q0 111 54 191t147 125q-79 43 -122.5 115t-43.5 161v14q0 129 74 223.5t196.5 140.5t278.5 46q154 0 274 -46t192 -140.5t72 -223.5v-14q0 -88 -44 -158.5t-123 -115.5q96 -43 150 -123.5t54 -194.5v-12q0 -211 -157 -328.5t-422 -117.5q-273 0 -426.5 116.5 t-153.5 329.5zM463 461q0 -70 56 -106t153 -36q98 0 152.5 36t54.5 108q0 71 -55 105t-150 34q-94 0 -152.5 -35t-58.5 -106zM492 979q0 -61 48 -94t132 -33t130 33t46 94q0 64 -46 99.5t-126 35.5q-82 0 -133 -36t-51 -99z" />
<glyph unicode="9" horiz-adv-x="1228" d="M57 920v16q0 222 156.5 370t415.5 148q266 0 413.5 -141t147.5 -383v-17q0 -161 -70.5 -313t-199.5 -313l-230 -287h-446l366 438h-10q-245 0 -394 129.5t-149 352.5zM418 928q0 -78 59 -124t150 -46q89 0 144.5 47.5t55.5 128.5v10q0 76 -53.5 120t-146.5 44t-151 -46 t-58 -126v-8z" />
<glyph unicode=":" horiz-adv-x="552" d="M84 0v379h385v-379h-385zM84 614v379h385v-379h-385z" />
<glyph unicode=";" horiz-adv-x="546" d="M-10 -248l116 627h377l-200 -627h-293zM100 614v379h385v-379h-385z" />
<glyph unicode="&#x3c;" horiz-adv-x="825" d="M76 348v371l674 252v-307l-402 -132l402 -133v-301z" />
<glyph unicode="=" horiz-adv-x="907" d="M94 188v299h719v-299h-719zM94 598v299h719v-299h-719z" />
<glyph unicode="&#x3e;" horiz-adv-x="825" d="M76 98v301l399 133l-399 132v307l674 -252v-371z" />
<glyph unicode="?" horiz-adv-x="997" d="M-10 981q0 207 136 340t363 133q226 0 357 -116t131 -316q0 -65 -17.5 -118t-45 -88.5t-61 -66t-67.5 -57.5t-61.5 -55.5t-45 -68t-17.5 -87.5v-30h-345v65q0 77 21.5 138.5t53 97.5t69 68.5t69 55.5t53 55.5t21.5 69.5q0 48 -32.5 76.5t-90.5 28.5q-67 0 -107.5 -36 t-45.5 -89h-338zM297 0v379h385v-379h-385z" />
<glyph unicode="@" horiz-adv-x="1794" d="M66 434q0 204 67 372t184 278.5t274.5 170.5t338.5 60t332 -58.5t255.5 -163t162 -253t57.5 -324.5q0 -230 -104 -373t-287 -143q-172 0 -256 131q-74 -131 -240 -131q-160 0 -251 119t-91 315v27q0 203 99 313.5t245 110.5q34 0 61 -7.5t42 -16t38 -25.5l21 -17l26 49 h246v-452q0 -74 12.5 -104.5t47.5 -30.5q39 0 63.5 59.5t24.5 151.5q0 238 -120 370.5t-366 132.5q-122 0 -223.5 -33.5t-179 -100.5t-121 -176.5t-43.5 -252.5q0 -262 153 -402.5t429 -140.5q182 0 313 41v-307q-128 -51 -322 -51t-358 59.5t-281 169.5t-183 272.5 t-66 360.5zM805 438q0 -73 27 -114t77 -41q105 0 105 176v10v123l-13 8q-35 23 -75 23q-55 0 -88 -42t-33 -128v-15z" />
<glyph unicode="A" horiz-adv-x="1454" d="M10 0l535 1434h362l537 -1434h-363l-90 238h-530l-88 -238h-363zM567 522h318l-158 426z" />
<glyph unicode="B" horiz-adv-x="1386" d="M141 0v1434h600q258 0 398.5 -99t140.5 -284q0 -219 -205 -306q246 -88 246 -331q0 -204 -146.5 -309t-400.5 -105h-633zM496 324h282q94 0 141.5 34t47.5 97q0 131 -189 131h-282v-262zM496 860h241q189 0 189 125t-189 125h-241v-250z" />
<glyph unicode="C" horiz-adv-x="1476" d="M63 707v22q0 170 54 308.5t148 229t221 139t274 48.5q128 0 239 -33.5t200 -98.5t144.5 -170.5t65.5 -240.5h-375q-55 193 -274 193q-154 0 -245 -100.5t-91 -274.5v-22q0 -175 90.5 -276t245.5 -101q112 0 181.5 51t88.5 137h379q-10 -136 -66 -241t-145.5 -168.5 t-200 -96t-237.5 -32.5q-147 0 -274 49t-221 139.5t-148 229.5t-54 309z" />
<glyph unicode="D" horiz-adv-x="1482" d="M141 0v1434h549q335 0 532 -190.5t197 -514.5v-20q0 -213 -94 -374.5t-262 -248t-387 -86.5h-535zM496 350h192q192 0 281.5 94t89.5 265v20q0 354 -371 354h-192v-733z" />
<glyph unicode="E" horiz-adv-x="1273" d="M141 0v1434h1020v-340h-665v-203h639v-332h-639v-219h665v-340h-1020z" />
<glyph unicode="F" horiz-adv-x="1259" d="M141 0v1434h1010v-340h-655v-232h628v-332h-628v-530h-355z" />
<glyph unicode="G" horiz-adv-x="1542" d="M63 707v22q0 170 54 308.5t148 229t221 139t274 48.5q186 0 328 -58.5t232.5 -181.5t109.5 -303h-373q-32 91 -101.5 142t-195.5 51q-156 0 -246 -100.5t-90 -274.5v-22q0 -176 91 -276.5t259 -100.5q65 0 117 16t80 39t46.5 46.5t24.5 39.5l5 16h-218v281h601v-768h-332 v131q-5 -6 -14 -16.5t-43 -36.5t-74 -45.5t-107.5 -36t-142.5 -16.5q-289 0 -471.5 199t-182.5 528z" />
<glyph unicode="H" horiz-adv-x="1482" d="M141 0v1434h355v-537h491v537h354v-1434h-354v557h-491v-557h-355z" />
<glyph unicode="I" horiz-adv-x="636" d="M141 0v1434h355v-1434h-355z" />
<glyph unicode="J" horiz-adv-x="913" d="M20 0v344h222q204 0 204 195v895h355v-895q0 -283 -128.5 -411t-414.5 -128h-238z" />
<glyph unicode="K" horiz-adv-x="1419" d="M141 0v1434h355v-570l499 570h418l-530 -607l557 -827h-434l-363 555l-147 -170v-385h-355z" />
<glyph unicode="L" horiz-adv-x="1148" d="M141 0v1434h355v-1094h624v-340h-979z" />
<glyph unicode="M" horiz-adv-x="1761" d="M141 0v1434h437l303 -717l303 717h436v-1434h-354v836l-219 -508h-330l-221 510v-838h-355z" />
<glyph unicode="N" horiz-adv-x="1523" d="M141 0v1434h385l502 -842v842h354v-1434h-385l-501 840v-840h-355z" />
<glyph unicode="O" d="M63 707v22q0 170 54 308.5t148 229t221 139t274 48.5q115 0 219 -30.5t191 -91.5t151 -146.5t99.5 -203t35.5 -253.5v-22q0 -170 -55 -309t-150 -229.5t-221 -139.5t-270 -49q-147 0 -274 49t-221 139.5t-148 229.5t-54 309zM424 707q0 -175 90.5 -276t245.5 -101 q154 0 245 101.5t91 275.5v22q0 174 -91 274.5t-245 100.5q-156 0 -246 -100.5t-90 -274.5v-22z" />
<glyph unicode="P" horiz-adv-x="1363" d="M141 0v1434h629q543 0 543 -482q0 -479 -543 -479h-274v-473h-355zM496 809h274q103 0 148 31t45 110q0 80 -45.5 114t-147.5 34h-274v-289z" />
<glyph unicode="Q" d="M63 707v22q0 170 54 308.5t148 229t221 139t274 48.5q115 0 219 -30.5t191 -91.5t151 -146.5t99.5 -203t35.5 -253.5v-22q0 -332 -199 -531l164 -305h-405l-68 131q-93 -22 -188 -22q-147 0 -274 49t-221 139.5t-148 229.5t-54 309zM424 707q0 -175 90.5 -276t245.5 -101 h22l-106 211h393q27 73 27 166v22q0 174 -91 274.5t-245 100.5q-156 0 -246 -100.5t-90 -274.5v-22z" />
<glyph unicode="R" horiz-adv-x="1398" d="M141 0v1434h629q251 0 397 -120.5t146 -357.5q0 -151 -71 -259t-198 -165l299 -532h-397l-252 481h-198v-481h-355zM496 817h274q93 0 143 35t50 102q0 144 -193 144h-274v-281z" />
<glyph unicode="S" horiz-adv-x="1333" d="M68 498h358q23 -101 87 -146t187 -45q97 0 152 29t55 90q0 62 -51.5 91t-179.5 44l-66 8q-93 11 -165 29t-139 50.5t-110.5 78t-69.5 114t-26 156.5q0 117 46.5 206.5t127 143t181.5 80.5t217 27q555 0 585 -524h-350q-12 101 -68.5 148.5t-166.5 47.5q-93 0 -149 -32 t-56 -95q0 -18 3.5 -32.5t13.5 -26.5t18 -20t29 -15.5t32.5 -12t42.5 -10t46.5 -8t54.5 -8.5l53 -8q62 -9 110 -19t103 -26.5t95.5 -37.5t80 -52.5t64.5 -70.5t40 -93t15 -119q0 -117 -44 -207t-122.5 -144.5t-179.5 -81.5t-222 -27q-600 0 -632 518z" />
<glyph unicode="T" horiz-adv-x="1255" d="M29 1094v340h1198v-340h-422v-1094h-354v1094h-422z" />
<glyph unicode="U" horiz-adv-x="1449" d="M113 641v793h354v-793q0 -164 72 -240.5t186 -76.5q115 0 186.5 76.5t71.5 240.5v793h354v-793q0 -170 -43.5 -297.5t-124.5 -206.5t-192 -118t-252 -39q-139 0 -250 39t-192.5 118t-125.5 207t-44 297z" />
<glyph unicode="V" horiz-adv-x="1409" d="M12 1434h367l332 -930l336 930h362l-516 -1434h-363z" />
<glyph unicode="W" horiz-adv-x="1978" d="M-10 1434h362l353 -963l147 485l-166 478h363l303 -897l274 897h363l-455 -1434h-346l-166 471l-133 -471h-361z" />
<glyph unicode="X" horiz-adv-x="1411" d="M10 0l500 737l-473 697h399l287 -422l262 422h406l-471 -713l491 -721h-399l-307 449l-285 -449h-410z" />
<glyph unicode="Y" horiz-adv-x="1355" d="M-10 1434h383l305 -578l305 578h383l-510 -963v-471h-354v467z" />
<glyph unicode="Z" horiz-adv-x="1288" d="M84 0v354l676 725h-676v355h1122v-355l-676 -725h682v-354h-1128z" />
<glyph unicode="[" horiz-adv-x="692" d="M94 -410v1844h522v-308h-215v-1228h215v-308h-522z" />
<glyph unicode="\" horiz-adv-x="1040" d="M0 1434h367l673 -1844h-368z" />
<glyph unicode="]" horiz-adv-x="692" d="M76 -102h215v1228h-215v308h522v-1844h-522v308z" />
<glyph unicode="_" horiz-adv-x="993" d="M76 -70h842v-340h-842v340z" />
<glyph unicode="`" horiz-adv-x="837" d="M106 1802h361l235 -317h-346z" />
<glyph unicode="a" horiz-adv-x="1114" d="M63 279q0 269 340 325l256 41v4q0 63 -27 91t-81 28q-104 0 -113 -86h-329q0 123 58 206t155.5 119.5t230.5 36.5q227 0 343 -102.5t116 -302.5v-639h-307l-46 63q-81 -47 -141 -63q-70 -20 -151 -20q-134 0 -219 84.5t-85 214.5zM389 307q0 -69 90 -69q47 0 180 49v133 l-174 -31q-96 -16 -96 -82z" />
<glyph unicode="b" horiz-adv-x="1204" d="M113 0v1434h352v-482l29 19q118 73 227 73q189 0 307.5 -136.5t118.5 -364.5v-43q0 -221 -120.5 -370.5t-305.5 -149.5q-116 0 -227 73l-29 19l-45 -72h-307zM465 356l10 -6q62 -39 141 -39q82 0 129.5 50.5t47.5 140.5v22q0 85 -44.5 135t-123.5 50q-72 0 -140 -33 l-20 -10v-310z" />
<glyph unicode="c" horiz-adv-x="1112" d="M53 500v41q0 233 145 368t380 135q218 0 349.5 -114t135.5 -316h-334q-30 123 -147 123q-174 0 -174 -213v-24q0 -213 172 -213q119 0 151 127h334q0 -188 -138.5 -311t-351.5 -123q-241 0 -381.5 138.5t-140.5 381.5z" />
<glyph unicode="d" horiz-adv-x="1204" d="M57 479v43q0 227 121 374.5t318 147.5q122 0 215 -51l28 -16v457h353v-1434h-308l-45 74l-12 -11q-102 -83 -231 -83q-200 0 -319.5 136t-119.5 363zM412 496q0 -85 47.5 -135t128.5 -50q83 0 139 37l12 8v310l-12 8q-61 35 -135 35q-81 0 -130.5 -51t-49.5 -140v-22z " />
<glyph unicode="e" horiz-adv-x="1099" d="M53 496v41q0 234 142 370.5t374 136.5q208 0 344 -133.5t136 -373.5q0 -70 -2 -109h-658q23 -158 172 -158q118 0 144 97h329q-9 -187 -135.5 -287t-339.5 -100q-231 0 -368.5 137t-137.5 379zM391 610h324q-9 78 -47 117t-99 39q-70 0 -116.5 -39.5t-61.5 -116.5z" />
<glyph unicode="f" horiz-adv-x="827" d="M20 690v334h177q0 116 29 197t86 127t131 66t173 20h207v-297h-184q-90 0 -90 -84v-29h227v-334h-227v-690h-352v690h-177z" />
<glyph unicode="g" horiz-adv-x="1204" d="M57 506v33q0 142 53 256t154.5 181.5t233.5 67.5q127 0 231 -83l10 -9l45 72h308v-934q0 -246 -136 -383t-387 -137q-216 0 -342 101.5t-139 289.5h340q12 -40 49 -62t92 -22q170 0 170 207v25q-39 -35 -103.5 -64t-137.5 -29q-199 0 -320 133.5t-121 356.5zM412 520 q0 -75 47.5 -121.5t126.5 -46.5q80 0 143 37l10 6v273l-20 10q-64 31 -131 31q-80 0 -128 -48t-48 -129v-12z" />
<glyph unicode="h" horiz-adv-x="1200" d="M113 0v1434h354v-482l35 19q138 71 252 71q150 0 245.5 -98t98.5 -272v-672h-355v569q-1 72 -36.5 109t-90.5 37q-46 0 -110 -31l-39 -20v-664h-354z" />
<glyph unicode="i" horiz-adv-x="577" d="M113 0v1024h352v-1024h-352zM113 1137v297h352v-297h-352z" />
<glyph unicode="j" horiz-adv-x="581" d="M-137 -78h143q111 0 111 107v995h352v-1024q0 -410 -397 -410h-209v332zM117 1137v297h352v-297h-352z" />
<glyph unicode="k" horiz-adv-x="1187" d="M113 0v1434h352v-740l305 330h399l-368 -397l407 -627h-395l-240 383l-108 -117v-266h-352z" />
<glyph unicode="l" horiz-adv-x="577" d="M113 0v1434h352v-1434h-352z" />
<glyph unicode="m" horiz-adv-x="1810" d="M113 0v1024h309l45 -72l35 19q142 73 252 73q170 0 260 -122l92 49q136 73 268 73q150 0 242 -98.5t92 -273.5v-672h-354v569q0 73 -31.5 109.5t-85.5 36.5q-49 0 -117 -31l-33 -16v-668h-354v569q0 73 -31.5 109.5t-85.5 36.5q-46 0 -110 -31l-39 -20v-664h-354z" />
<glyph unicode="n" horiz-adv-x="1200" d="M113 0v1024h309l45 -72l35 19q142 73 252 73q150 0 245.5 -99t98.5 -273v-672h-355v569q-1 72 -36.5 109t-90.5 37q-46 0 -110 -31l-39 -20v-664h-354z" />
<glyph unicode="o" horiz-adv-x="1171" d="M53 500v41q0 153 72.5 270t194 177.5t270.5 60.5q230 0 379 -138t149 -368v-41q0 -161 -69 -281.5t-189 -183t-274 -62.5q-147 0 -267.5 62t-193 183t-72.5 280zM408 498q0 -93 47 -149t131 -56q90 0 134 55t44 152v28q0 96 -44 149.5t-130 53.5q-84 0 -133 -55.5 t-49 -149.5v-28z" />
<glyph unicode="p" horiz-adv-x="1204" d="M113 -410v1434h307l45 -72l29 19q115 73 227 73q194 0 310 -135.5t116 -365.5v-43q0 -149 -46.5 -265t-147.5 -187t-246 -71q-128 0 -230 70l-12 8v-465h-352zM465 356l12 -8q55 -37 137 -37t130.5 51.5t48.5 139.5v24q0 85 -46.5 134t-130.5 49q-83 0 -139 -35l-12 -8 v-310z" />
<glyph unicode="q" horiz-adv-x="1204" d="M57 479v43q0 149 52.5 267.5t152.5 186.5t230 68q104 0 219 -73l28 -19l45 72h308v-1434h-353v484l-12 -11q-102 -83 -231 -83q-200 0 -319.5 136t-119.5 363zM412 496q0 -85 47.5 -135t128.5 -50q84 0 139 37l12 8v310l-12 8q-58 35 -135 35q-81 0 -130.5 -51 t-49.5 -140v-22z" />
<glyph unicode="r" horiz-adv-x="792" d="M113 0v1024h309l45 -92l43 24q73 41 124.5 54.5t133.5 13.5v-334q-76 0 -130.5 -6t-80.5 -13.5t-65 -21.5l-25 -10v-639h-354z" />
<glyph unicode="s" horiz-adv-x="1038" d="M51 342h332q10 -106 135 -106q115 0 115 68q0 41 -32 58q-31 17 -103 25l-80 10q-178 22 -264 99t-86 219q0 85 36 149.5t100.5 103t147.5 57.5t183 19t179 -20t138.5 -62.5t91.5 -112.5t33 -165h-330q-2 50 -30.5 79.5t-88.5 29.5q-57 0 -88.5 -20.5t-31.5 -53.5 q0 -35 35.5 -53.5t129.5 -28.5l68 -8q175 -21 262.5 -93t87.5 -214q0 -175 -126.5 -258.5t-350.5 -83.5q-101 0 -183.5 20.5t-146 62.5t-98.5 113t-35 166z" />
<glyph unicode="t" horiz-adv-x="843" d="M14 690v334h176v248h353v-248h245v-334h-245v-250q0 -108 86 -108h159v-332h-247q-196 0 -273.5 101.5t-77.5 338.5v250h-176z" />
<glyph unicode="u" horiz-adv-x="1200" d="M102 352v672h355v-569q1 -72 36.5 -109t90.5 -37q46 0 110 31l39 20v664h354v-1024h-309l-45 72l-35 -19q-138 -71 -252 -71q-150 0 -245.5 98t-98.5 272z" />
<glyph unicode="v" horiz-adv-x="1097" d="M-6 1024h348l211 -561l211 561h348l-385 -1024h-348z" />
<glyph unicode="w" horiz-adv-x="1591" d="M-29 1024h336l228 -612l114 325l-102 287h332l200 -569l205 569h336l-369 -1024h-336l-116 319l-111 -319h-336z" />
<glyph unicode="x" horiz-adv-x="1118" d="M-20 0l393 535l-353 489h400l158 -219l139 219h399l-354 -477l395 -547h-399l-199 274l-180 -274h-399z" />
<glyph unicode="y" horiz-adv-x="1101" d="M-33 1024h369l225 -575l221 575h357l-553 -1434h-357l158 412z" />
<glyph unicode="z" horiz-adv-x="1060" d="M88 0v322l442 380h-442v322h883v-322l-426 -380h426v-322h-883z" />
<glyph unicode="{" horiz-adv-x="892" d="M66 365v297h38q187 0 187 163v195q0 239 105 336.5t364 97.5h67v-276h-67q-95 0 -131.5 -36.5t-36.5 -142.5v-180q0 -134 -45 -208t-152 -97q108 -32 152.5 -103.5t44.5 -203.5v-141q0 -106 36.5 -142.5t131.5 -36.5h67v-317h-67q-254 0 -361.5 115t-107.5 360v156 q0 164 -187 164h-38z" />
<glyph unicode="|" horiz-adv-x="600" d="M123 -410v1844h354v-1844h-354z" />
<glyph unicode="}" horiz-adv-x="892" d="M66 -113h67q95 0 131.5 36.5t36.5 142.5v141q0 132 44.5 203.5t152.5 103.5q-107 23 -152 97t-45 208v180q0 106 -36.5 142.5t-131.5 36.5h-67v276h67q259 0 364 -97.5t105 -336.5v-195q0 -163 186 -163h39v-297h-39q-186 0 -186 -164v-156q0 -245 -107.5 -360 t-361.5 -115h-67v317z" />
<glyph unicode="&#xa3;" horiz-adv-x="1230" d="M47 0v340q196 0 209 192h-168v256h145q-24 144 -24 207q0 222 138 340.5t364 118.5q229 0 357 -134.5t128 -399.5h-342q0 186 -143 186q-64 0 -104 -37.5t-40 -107.5q0 -16 15 -173h364v-256h-346q-6 -117 -72 -192h674v-340h-1155z" />
<glyph unicode="&#xa6;" horiz-adv-x="600" d="M123 -410v840h354v-840h-354zM123 635v799h354v-799h-354z" />
<glyph unicode="&#xa7;" horiz-adv-x="1150" d="M63 494q0 176 156 288q-104 98 -104 277q0 184 130.5 289.5t340.5 105.5q216 0 340.5 -113.5t124.5 -318.5h-312q-7 63 -48 93t-105 30t-104 -25t-40 -67q0 -43 28 -64t99 -39l133 -32q97 -24 168 -55t126.5 -76.5t83.5 -110t28 -148.5q0 -167 -141 -288q90 -93 90 -248 q0 -190 -127 -306t-346 -116t-348.5 112t-129.5 320h312q20 -123 170 -123q67 0 106 24t39 70q0 44 -36 69.5t-107 39.5l-121 24q-208 42 -307 133.5t-99 254.5zM385 530q0 -57 49.5 -89t163.5 -56l98 -20q3 -3 9 -3q79 50 79 127q0 56 -43 90t-163 62l-101 23 q-92 -47 -92 -134z" />
<glyph unicode="&#xa8;" horiz-adv-x="937" d="M111 1454v318h303v-318h-303zM506 1454v318h303v-318h-303z" />
<glyph unicode="&#xab;" horiz-adv-x="1046" d="M29 326v358l469 330v-324l-273 -184l273 -182v-320zM539 326v358l469 340v-336l-273 -184l273 -182v-322z" />
<glyph unicode="&#xac;" horiz-adv-x="1052" d="M39 725v299h975v-598h-301v299h-674z" />
<glyph unicode="&#xad;" horiz-adv-x="788" d="M82 360v340h625v-340h-625z" />
<glyph unicode="&#xb0;" horiz-adv-x="747" d="M39 1110v20q0 148 97 236t241 88q146 0 239 -87.5t93 -236.5v-20q0 -146 -96 -235t-242 -89q-139 0 -235.5 89.5t-96.5 234.5zM276 1118q0 -49 27 -74.5t70 -25.5q96 0 96 100v4q0 47 -25 73t-67 26q-45 0 -73 -25.5t-28 -73.5v-4z" />
<glyph unicode="&#xb1;" horiz-adv-x="978" d="M94 27v258h791v-258h-791zM94 561v266h258v217h275v-217h258v-266h-258v-217h-275v217h-258z" />
<glyph unicode="&#xb4;" horiz-adv-x="774" d="M106 1485l236 317h360l-249 -317h-347z" />
<glyph unicode="&#xb6;" horiz-adv-x="1443" d="M57 891v33q0 124 34 222t95 160.5t143.5 95t180.5 32.5h342v-1844h-334v795h-8q-202 0 -327.5 132t-125.5 374zM969 -410v1844h334v-1844h-334z" />
<glyph unicode="&#xb7;" horiz-adv-x="663" d="M104 506v446h455v-446h-455z" />
<glyph unicode="&#xb8;" horiz-adv-x="573" d="M70 -238h69q57 0 80 7.5t23 29.5q0 35 -66 35h-55l86 148h57q240 0 240 -172q0 -44 -16.5 -81t-53.5 -69.5t-106 -51t-164 -18.5h-94v172z" />
<glyph unicode="&#xbb;" horiz-adv-x="1046" d="M39 0v322l272 182l-272 184v336l469 -340v-358zM549 4v320l272 182l-272 184v324l469 -330v-358z" />
<glyph unicode="&#xbc;" horiz-adv-x="1517" d="M39 1067v258l207 109h235v-697h-235v430zM186 0l799 1434h315l-796 -1434h-318zM821 88v223l250 385h279l-263 -395h130v135h235v-436h-235v88h-396z" />
<glyph unicode="&#xbd;" horiz-adv-x="1525" d="M39 1067v258l207 109h235v-697h-235v430zM186 0l799 1434h315l-796 -1434h-318zM889 430q-2 127 71.5 202t225.5 75q135 0 208.5 -67.5t73.5 -174.5q0 -44 -16 -81.5t-53 -72t-55.5 -48.5t-66.5 -45q-9 -6 -13 -9l-25 -16h227v-193h-563v174l148 100q89 60 132.5 102 t43.5 75q0 19 -12.5 34t-40.5 15q-31 0 -46 -19t-12 -51h-227z" />
<glyph unicode="&#xbe;" horiz-adv-x="1605" d="M47 989h225q18 -74 99 -74q32 0 52.5 14.5t20.5 41.5q0 57 -73 57h-117v139l158 72h-338v195h563v-209l-148 -68q187 -28 187 -188q0 -104 -86 -176t-232 -72q-138 0 -222.5 70t-88.5 198zM274 0l799 1434h316l-797 -1434h-318zM909 88v223l250 385h279l-262 -395h129 v135h235v-436h-235v88h-396z" />
<glyph unicode="&#xc0;" horiz-adv-x="1454" d="M10 0l535 1434h362l537 -1434h-363l-90 238h-530l-88 -238h-363zM279 1729h423l201 -234h-356zM567 522h318l-158 426z" />
<glyph unicode="&#xc1;" horiz-adv-x="1454" d="M10 0l535 1434h362l537 -1434h-363l-90 238h-530l-88 -238h-363zM549 1495l201 234h424l-269 -234h-356zM567 522h318l-158 426z" />
<glyph unicode="&#xc2;" horiz-adv-x="1454" d="M10 0l535 1434h362l537 -1434h-363l-90 238h-530l-88 -238h-363zM313 1495l250 234h301l279 -234h-318l-102 109l-88 -109h-322zM567 522h318l-158 426z" />
<glyph unicode="&#xc3;" horiz-adv-x="1454" d="M10 0l535 1434h362l537 -1434h-363l-90 238h-530l-88 -238h-363zM389 1479q7 129 64.5 194.5t142.5 65.5q75 0 156 -51q31 -19 48 -26t40 -7q54 0 63 80h164q-4 -121 -61.5 -190.5t-145.5 -69.5q-72 0 -137 41q-26 16 -37.5 22.5t-28 12t-32.5 5.5q-57 0 -72 -77h-164z M567 522h318l-158 426z" />
<glyph unicode="&#xc4;" horiz-adv-x="1454" d="M10 0l535 1434h362l537 -1434h-363l-90 238h-530l-88 -238h-363zM426 1495v234h252v-234h-252zM567 522h318l-158 426zM772 1495v234h252v-234h-252z" />
<glyph unicode="&#xc5;" horiz-adv-x="1454" d="M10 0l490 1313q-60 63 -60 164v6q0 116 77.5 179.5t207.5 63.5t207.5 -63.5t77.5 -179.5v-6q0 -102 -60 -162l494 -1315h-363l-90 238h-530l-88 -238h-363zM567 522h318l-158 426zM643 1477q0 -37 21 -58.5t61 -21.5t61 21.5t21 58.5v6q0 37 -21 58.5t-61 21.5t-61 -21.5 t-21 -58.5v-6z" />
<glyph unicode="&#xc6;" horiz-adv-x="2082" d="M10 0l772 1434h1188v-340h-665v-197h639v-340h-639v-217h665v-340h-1020v287h-391l-149 -287h-400zM729 614h221v422z" />
<glyph unicode="&#xc7;" horiz-adv-x="1476" d="M63 707v22q0 170 54 308.5t148 229t221 139t274 48.5q128 0 239 -33.5t200 -98.5t144.5 -170.5t65.5 -240.5h-375q-55 193 -274 193q-154 0 -245 -100.5t-91 -274.5v-22q0 -175 90.5 -276t245.5 -101q112 0 181.5 51t88.5 137h379q-10 -136 -66 -241t-145.5 -168.5 t-200 -96t-237.5 -32.5q-147 0 -274 49t-221 139.5t-148 229.5t-54 309zM522 -258h70q57 0 79.5 7.5t22.5 29.5q0 35 -65 35h-56l86 147h58q239 0 239 -172q0 -44 -16.5 -81t-53.5 -69t-106 -50.5t-164 -18.5h-94v172z" />
<glyph unicode="&#xc8;" horiz-adv-x="1273" d="M141 0v1434h1020v-340h-665v-203h639v-332h-639v-219h665v-340h-1020zM264 1729h424l201 -234h-357z" />
<glyph unicode="&#xc9;" horiz-adv-x="1273" d="M141 0v1434h1020v-340h-665v-203h639v-332h-639v-219h665v-340h-1020zM420 1495l201 234h423l-268 -234h-356z" />
<glyph unicode="&#xca;" horiz-adv-x="1273" d="M141 0v1434h1020v-340h-665v-203h639v-332h-639v-219h665v-340h-1020zM252 1495l250 234h301l278 -234h-317l-102 109l-89 -109h-321z" />
<glyph unicode="&#xcb;" horiz-adv-x="1273" d="M141 0v1434h1020v-340h-665v-203h639v-332h-639v-219h665v-340h-1020zM360 1495v234h252v-234h-252zM707 1495v234h251v-234h-251z" />
<glyph unicode="&#xcc;" horiz-adv-x="638" d="M-125 1729h424l201 -234h-357zM143 0v1434h355v-1434h-355z" />
<glyph unicode="&#xcd;" horiz-adv-x="638" d="M141 0v1434h355v-1434h-355zM143 1495l201 234h424l-268 -234h-357z" />
<glyph unicode="&#xce;" horiz-adv-x="649" d="M-86 1495l250 234h301l278 -234h-317l-102 109l-88 -109h-322zM147 0v1434h355v-1434h-355z" />
<glyph unicode="&#xcf;" horiz-adv-x="657" d="M29 1495v234h252v-234h-252zM152 0v1434h354v-1434h-354zM375 1495v234h252v-234h-252z" />
<glyph unicode="&#xd0;" horiz-adv-x="1548" d="M29 582v297h178v555h549q335 0 532 -190.5t197 -514.5v-20q0 -213 -94 -374.5t-262.5 -248t-387.5 -86.5h-534v582h-178zM561 350h193q370 0 370 359v20q0 354 -370 354h-193v-204h260v-297h-260v-232z" />
<glyph unicode="&#xd1;" horiz-adv-x="1523" d="M141 0v1434h385l502 -842v842h354v-1434h-385l-501 840v-840h-355zM422 1485q7 129 64.5 194.5t142.5 65.5q74 0 155 -51q31 -19 48 -26t40 -7q55 0 64 80h164q-4 -121 -61.5 -190.5t-145.5 -69.5q-72 0 -137 41q-27 16 -38 22.5t-28 12.5t-33 6q-56 0 -71 -78h-164z" />
<glyph unicode="&#xd2;" d="M63 707v22q0 170 54 308.5t148 229t221 139t274 48.5q115 0 219 -30.5t191 -91.5t151 -146.5t99.5 -203t35.5 -253.5v-22q0 -170 -55 -309t-150 -229.5t-221 -139.5t-270 -49q-147 0 -274 49t-221 139.5t-148 229.5t-54 309zM324 1729h424l200 -234h-356zM424 707 q0 -175 90.5 -276t245.5 -101q154 0 245 101.5t91 275.5v22q0 174 -91 274.5t-245 100.5q-156 0 -246 -100.5t-90 -274.5v-22z" />
<glyph unicode="&#xd3;" d="M63 707v22q0 170 54 308.5t148 229t221 139t274 48.5q115 0 219 -30.5t191 -91.5t151 -146.5t99.5 -203t35.5 -253.5v-22q0 -170 -55 -309t-150 -229.5t-221 -139.5t-270 -49q-147 0 -274 49t-221 139.5t-148 229.5t-54 309zM424 707q0 -175 90.5 -276t245.5 -101 q154 0 245 101.5t91 275.5v22q0 174 -91 274.5t-245 100.5q-156 0 -246 -100.5t-90 -274.5v-22zM532 1495l201 234h424l-268 -234h-357z" />
<glyph unicode="&#xd4;" d="M63 707v22q0 170 54 308.5t148 229t221 139t274 48.5q115 0 219 -30.5t191 -91.5t151 -146.5t99.5 -203t35.5 -253.5v-22q0 -170 -55 -309t-150 -229.5t-221 -139.5t-270 -49q-147 0 -274 49t-221 139.5t-148 229.5t-54 309zM348 1495l250 234h301l279 -234h-318 l-102 109l-88 -109h-322zM424 707q0 -175 90.5 -276t245.5 -101q154 0 245 101.5t91 275.5v22q0 174 -91 274.5t-245 100.5q-156 0 -246 -100.5t-90 -274.5v-22z" />
<glyph unicode="&#xd5;" d="M63 707v22q0 170 54 308.5t148 229t221 139t274 48.5q115 0 219 -30.5t191 -91.5t151 -146.5t99.5 -203t35.5 -253.5v-22q0 -170 -55 -309t-150 -229.5t-221 -139.5t-270 -49q-147 0 -274 49t-221 139.5t-148 229.5t-54 309zM420 1491q7 129 64.5 194.5t142.5 65.5 q74 0 155 -51q31 -19 48 -26t40 -7q55 0 64 80h164q-4 -121 -61.5 -190.5t-145.5 -69.5q-72 0 -137 41q-27 16 -38 22.5t-28 12.5t-33 6q-56 0 -71 -78h-164zM424 707q0 -175 90.5 -276t245.5 -101q154 0 245 101.5t91 275.5v22q0 174 -91 274.5t-245 100.5 q-156 0 -246 -100.5t-90 -274.5v-22z" />
<glyph unicode="&#xd6;" d="M63 707v22q0 170 54 308.5t148 229t221 139t274 48.5q115 0 219 -30.5t191 -91.5t151 -146.5t99.5 -203t35.5 -253.5v-22q0 -170 -55 -309t-150 -229.5t-221 -139.5t-270 -49q-147 0 -274 49t-221 139.5t-148 229.5t-54 309zM424 707q0 -175 90.5 -276t245.5 -101 q154 0 245 101.5t91 275.5v22q0 174 -91 274.5t-245 100.5q-156 0 -246 -100.5t-90 -274.5v-22zM461 1495v234h252v-234h-252zM807 1495v234h252v-234h-252z" />
<glyph unicode="&#xd7;" horiz-adv-x="909" d="M41 338l217 217l-217 217l197 197l217 -217l217 217l196 -197l-217 -217l217 -217l-196 -197l-217 217l-217 -217z" />
<glyph unicode="&#xd8;" d="M63 707v22q0 170 54 308.5t148 229t221 139t274 48.5q146 0 276 -51l35 51h350l-143 -217q178 -194 178 -508v-22q0 -170 -55 -309t-150 -229.5t-221 -139.5t-270 -49q-154 0 -287 53l-35 -53h-352l147 221q-170 197 -170 506zM424 707q0 -101 31 -177l379 568 q-37 6 -74 6q-156 0 -246 -100.5t-90 -274.5v-22zM676 338q36 -8 84 -8q154 0 245 101.5t91 275.5v22q0 106 -35 184z" />
<glyph unicode="&#xd9;" horiz-adv-x="1449" d="M113 641v793h354v-793q0 -164 72 -240.5t186 -76.5q115 0 186.5 76.5t71.5 240.5v793h354v-793q0 -170 -43.5 -297.5t-124.5 -206.5t-192 -118t-252 -39q-139 0 -250 39t-192.5 118t-125.5 207t-44 297zM307 1729h424l201 -234h-357z" />
<glyph unicode="&#xda;" horiz-adv-x="1449" d="M113 641v793h354v-793q0 -164 72 -240.5t186 -76.5q115 0 186.5 76.5t71.5 240.5v793h354v-793q0 -170 -43.5 -297.5t-124.5 -206.5t-192 -118t-252 -39q-139 0 -250 39t-192.5 118t-125.5 207t-44 297zM530 1495l201 234h424l-268 -234h-357z" />
<glyph unicode="&#xdb;" horiz-adv-x="1449" d="M113 641v793h354v-793q0 -164 72 -240.5t186 -76.5q115 0 186.5 76.5t71.5 240.5v793h354v-793q0 -170 -43.5 -297.5t-124.5 -206.5t-192 -118t-252 -39q-139 0 -250 39t-192.5 118t-125.5 207t-44 297zM322 1495l249 234h301l279 -234h-317l-103 109l-88 -109h-321z" />
<glyph unicode="&#xdc;" horiz-adv-x="1449" d="M113 641v793h354v-793q0 -164 72 -240.5t186 -76.5q115 0 186.5 76.5t71.5 240.5v793h354v-793q0 -170 -43.5 -297.5t-124.5 -206.5t-192 -118t-252 -39q-139 0 -250 39t-192.5 118t-125.5 207t-44 297zM424 1495v234h252v-234h-252zM770 1495v234h252v-234h-252z" />
<glyph unicode="&#xdd;" horiz-adv-x="1355" d="M-10 1434h383l305 -578l305 578h383l-510 -963v-471h-354v467zM475 1495l201 234h424l-269 -234h-356z" />
<glyph unicode="&#xde;" horiz-adv-x="1361" d="M141 0v1434h355v-222h258q261 0 401.5 -110t140.5 -352q0 -461 -542 -461h-258v-289h-355zM496 625h258q103 0 147.5 27t44.5 96q0 71 -45 100t-147 29h-258v-252z" />
<glyph unicode="&#xdf;" horiz-adv-x="1370" d="M20 692v332h183q16 113 66.5 198t126 134.5t165.5 73.5t193 24q227 0 365 -120t138 -318q0 -185 -133 -271q207 -75 207 -323q0 -205 -134 -313.5t-409 -108.5h-106v311h90q107 0 155 33.5t48 104.5q0 135 -195 135h-98v288h57q172 0 172 121q0 62 -41 95.5t-116 33.5 q-205 0 -205 -256v-866h-352v692h-177z" />
<glyph unicode="&#xe0;" horiz-adv-x="1114" d="M63 279q0 269 340 325l256 41v4q0 63 -27 91t-81 28q-104 0 -113 -86h-329q0 123 58 206t155.5 119.5t230.5 36.5q227 0 343 -102.5t116 -302.5v-639h-307l-46 63q-81 -47 -141 -63q-70 -20 -151 -20q-134 0 -219 84.5t-85 214.5zM164 1434h360l236 -318h-346zM389 307 q0 -69 90 -69q47 0 180 49v133l-174 -31q-96 -16 -96 -82z" />
<glyph unicode="&#xe1;" horiz-adv-x="1114" d="M63 279q0 269 340 325l256 41v4q0 63 -27 91t-81 28q-104 0 -113 -86h-329q0 123 58 206t155.5 119.5t230.5 36.5q227 0 343 -102.5t116 -302.5v-639h-307l-46 63q-81 -47 -141 -63q-70 -20 -151 -20q-134 0 -219 84.5t-85 214.5zM360 1116l236 318h360l-249 -318h-347z M389 307q0 -69 90 -69q47 0 180 49v133l-174 -31q-96 -16 -96 -82z" />
<glyph unicode="&#xe2;" horiz-adv-x="1114" d="M63 279q0 269 340 325l256 41v4q0 63 -27 91t-81 28q-104 0 -113 -86h-329q0 123 58 206t155.5 119.5t230.5 36.5q227 0 343 -102.5t116 -302.5v-639h-307l-46 63q-81 -47 -141 -63q-70 -20 -151 -20q-134 0 -219 84.5t-85 214.5zM186 1116l220 318h290l219 -318h-278 l-86 158l-86 -158h-279zM389 307q0 -69 90 -69q47 0 180 49v133l-174 -31q-96 -16 -96 -82z" />
<glyph unicode="&#xe3;" horiz-adv-x="1114" d="M63 279q0 269 340 325l256 41v4q0 63 -27 91t-81 28q-104 0 -113 -86h-329q0 123 58 206t155.5 119.5t230.5 36.5q227 0 343 -102.5t116 -302.5v-639h-307l-46 63q-81 -47 -141 -63q-70 -20 -151 -20q-134 0 -219 84.5t-85 214.5zM182 1116q15 156 78 240t164 84 q51 0 85 -16t73 -50q8 -7 22.5 -21t22 -21t19 -13t22.5 -6q58 0 67 121h205q-2 -140 -69.5 -232t-174.5 -92q-82 0 -151 59q-10 8 -27.5 26.5t-31 28t-27.5 9.5q-29 0 -46 -27t-26 -90h-205zM389 307q0 -69 90 -69q47 0 180 49v133l-174 -31q-96 -16 -96 -82z" />
<glyph unicode="&#xe4;" horiz-adv-x="1114" d="M63 279q0 269 340 325l256 41v4q0 63 -27 91t-81 28q-104 0 -113 -86h-329q0 123 58 206t155.5 119.5t230.5 36.5q227 0 343 -102.5t116 -302.5v-639h-307l-46 63q-81 -47 -141 -63q-70 -20 -151 -20q-134 0 -219 84.5t-85 214.5zM201 1116v318h303v-318h-303zM389 307 q0 -69 90 -69q47 0 180 49v133l-174 -31q-96 -16 -96 -82zM596 1116v318h303v-318h-303z" />
<glyph unicode="&#xe5;" horiz-adv-x="1114" d="M63 279q0 269 340 325l256 41v4q0 63 -27 91t-81 28q-104 0 -113 -86h-329q0 123 58 206t155.5 119.5t230.5 36.5q227 0 343 -102.5t116 -302.5v-639h-307l-46 63q-81 -47 -141 -63q-70 -20 -151 -20q-134 0 -219 84.5t-85 214.5zM346 1264v4q0 87 60 136.5t161 49.5 q100 0 160.5 -49.5t60.5 -136.5v-4q0 -87 -60.5 -137t-160.5 -50q-101 0 -161 50t-60 137zM389 307q0 -69 90 -69q47 0 180 49v133l-174 -31q-96 -16 -96 -82zM508 1264q0 -26 17.5 -41t41.5 -15q25 0 42.5 15t17.5 41v4q0 26 -17.5 40.5t-42.5 14.5q-24 0 -41.5 -14.5 t-17.5 -40.5v-4z" />
<glyph unicode="&#xe6;" horiz-adv-x="1681" d="M63 285q0 88 31 153.5t88.5 104t131.5 57t167 18.5h172q-3 140 -106 140q-94 0 -113 -76h-330q-6 124 52 207t156.5 119t232.5 36q194 0 297 -106q127 106 313 106q212 0 343.5 -123t131.5 -358q0 -86 -2 -125h-641q11 -79 52 -123.5t108 -44.5q113 0 139 101h330 q-4 -187 -131 -289t-338 -102q-225 0 -356 131l-74 -45q-141 -86 -322 -86q-142 0 -237 83.5t-95 221.5zM379 326q0 -43 26.5 -63.5t69.5 -20.5q58 0 148 32l59 23q-20 60 -25 119l-139 -2q-62 0 -100.5 -21t-38.5 -67zM995 618h301q-23 146 -139 146q-61 0 -102.5 -38.5 t-59.5 -107.5z" />
<glyph unicode="&#xe7;" horiz-adv-x="1112" d="M53 500v41q0 233 145 368t380 135q218 0 349.5 -114t135.5 -316h-334q-30 123 -147 123q-174 0 -174 -213v-24q0 -213 172 -213q119 0 151 127h334q0 -188 -138.5 -311t-351.5 -123q-241 0 -381.5 138.5t-140.5 381.5zM342 -258h70q57 0 79.5 7.5t22.5 29.5q0 35 -65 35 h-56l86 147h58q239 0 239 -172q0 -44 -16.5 -81t-53.5 -69t-106 -50.5t-164 -18.5h-94v172z" />
<glyph unicode="&#xe8;" horiz-adv-x="1099" d="M53 496v41q0 234 142 370.5t374 136.5q208 0 344 -133.5t136 -373.5q0 -70 -2 -109h-658q23 -158 172 -158q118 0 144 97h329q-9 -187 -135.5 -287t-339.5 -100q-231 0 -368.5 137t-137.5 379zM158 1434h360l236 -318h-346zM391 610h324q-9 78 -47 117t-99 39 q-70 0 -116.5 -39.5t-61.5 -116.5z" />
<glyph unicode="&#xe9;" horiz-adv-x="1099" d="M53 496v41q0 234 142 370.5t374 136.5q208 0 344 -133.5t136 -373.5q0 -70 -2 -109h-658q23 -158 172 -158q118 0 144 97h329q-9 -187 -135.5 -287t-339.5 -100q-231 0 -368.5 137t-137.5 379zM389 1116l236 318h360l-250 -318h-346zM391 610h324q-9 78 -47 117t-99 39 q-70 0 -116.5 -39.5t-61.5 -116.5z" />
<glyph unicode="&#xea;" horiz-adv-x="1099" d="M53 496v41q0 234 142 370.5t374 136.5q208 0 344 -133.5t136 -373.5q0 -70 -2 -109h-658q23 -158 172 -158q118 0 144 97h329q-9 -187 -135.5 -287t-339.5 -100q-231 0 -368.5 137t-137.5 379zM203 1116l219 318h291l219 -318h-279l-86 158l-86 -158h-278zM391 610h324 q-9 78 -47 117t-99 39q-70 0 -116.5 -39.5t-61.5 -116.5z" />
<glyph unicode="&#xeb;" horiz-adv-x="1099" d="M53 496v41q0 234 142 370.5t374 136.5q208 0 344 -133.5t136 -373.5q0 -70 -2 -109h-658q23 -158 172 -158q118 0 144 97h329q-9 -187 -135.5 -287t-339.5 -100q-231 0 -368.5 137t-137.5 379zM209 1116v318h303v-318h-303zM391 610h324q-9 78 -47 117t-99 39 q-70 0 -116.5 -39.5t-61.5 -116.5zM604 1116v318h303v-318h-303z" />
<glyph unicode="&#xec;" horiz-adv-x="577" d="M-137 1434h360l236 -318h-346zM113 0v1024h352v-1024h-352z" />
<glyph unicode="&#xed;" horiz-adv-x="577" d="M113 0v1024h352v-1024h-352zM119 1116l235 318h361l-250 -318h-346z" />
<glyph unicode="&#xee;" horiz-adv-x="589" d="M-70 1116l220 318h290l219 -318h-278l-86 158l-86 -158h-279zM119 0v1024h352v-1024h-352z" />
<glyph unicode="&#xef;" horiz-adv-x="589" d="M-55 1116v318h303v-318h-303zM119 0v1024h352v-1024h-352zM340 1116v318h303v-318h-303z" />
<glyph unicode="&#xf0;" horiz-adv-x="1144" d="M57 455v26q0 219 131.5 342t331.5 123q123 0 199 -49q-87 118 -291 184l-80 -88h-104l102 113q-52 16 -104 27l102 301q125 -23 236 -68l84 94h110l-117 -129q215 -108 325 -298.5t110 -434.5v-29q0 -122 -33 -227t-96 -186.5t-164.5 -128.5t-229.5 -47 q-228 0 -370 124.5t-142 350.5zM399 463q0 -80 47.5 -131t124.5 -51q82 0 126 51t44 135v8q0 84 -45.5 133t-124.5 49q-78 0 -125 -50t-47 -136v-8z" />
<glyph unicode="&#xf1;" horiz-adv-x="1200" d="M113 0v1024h309l45 -72l35 19q142 73 252 73q150 0 245.5 -99t98.5 -273v-672h-355v569q-1 72 -36.5 109t-90.5 37q-46 0 -110 -31l-39 -20v-664h-354zM221 1116q15 156 78 240t164 84q51 0 85 -16t73 -50q8 -7 22.5 -21t22 -21t19 -13t22.5 -6q58 0 67 121h205 q-2 -140 -69.5 -232t-174.5 -92q-82 0 -151 59q-10 8 -27.5 26.5t-31 28t-27.5 9.5q-29 0 -46 -27t-26 -90h-205z" />
<glyph unicode="&#xf2;" horiz-adv-x="1171" d="M53 500v41q0 153 72.5 270t194 177.5t270.5 60.5q230 0 379 -138t149 -368v-41q0 -161 -69 -281.5t-189 -183t-274 -62.5q-147 0 -267.5 62t-193 183t-72.5 280zM197 1434h360l236 -318h-347zM408 498q0 -93 47 -149t131 -56q90 0 134 55t44 152v28q0 96 -44 149.5 t-130 53.5q-84 0 -133 -55.5t-49 -149.5v-28z" />
<glyph unicode="&#xf3;" horiz-adv-x="1171" d="M53 500v41q0 153 72.5 270t194 177.5t270.5 60.5q230 0 379 -138t149 -368v-41q0 -161 -69 -281.5t-189 -183t-274 -62.5q-147 0 -267.5 62t-193 183t-72.5 280zM393 1116l236 318h360l-250 -318h-346zM408 498q0 -93 47 -149t131 -56q90 0 134 55t44 152v28 q0 96 -44 149.5t-130 53.5q-84 0 -133 -55.5t-49 -149.5v-28z" />
<glyph unicode="&#xf4;" horiz-adv-x="1171" d="M53 500v41q0 153 72.5 270t194 177.5t270.5 60.5q230 0 379 -138t149 -368v-41q0 -161 -69 -281.5t-189 -183t-274 -62.5q-147 0 -267.5 62t-193 183t-72.5 280zM227 1116l219 318h291l219 -318h-278l-86 158l-86 -158h-279zM408 498q0 -93 47 -149t131 -56q90 0 134 55 t44 152v28q0 96 -44 149.5t-130 53.5q-84 0 -133 -55.5t-49 -149.5v-28z" />
<glyph unicode="&#xf5;" horiz-adv-x="1171" d="M53 500v41q0 153 72.5 270t194 177.5t270.5 60.5q230 0 379 -138t149 -368v-41q0 -161 -69 -281.5t-189 -183t-274 -62.5q-147 0 -267.5 62t-193 183t-72.5 280zM209 1116q15 156 78 240t164 84q51 0 84.5 -16t72.5 -50q8 -7 22.5 -21t22 -21t19 -13t22.5 -6q59 0 68 121 h205q-2 -140 -69.5 -232t-174.5 -92q-83 0 -152 59q-10 8 -27.5 26.5t-31 28t-27.5 9.5q-28 0 -45 -27t-26 -90h-205zM408 498q0 -93 47 -149t131 -56q90 0 134 55t44 152v28q0 96 -44 149.5t-130 53.5q-84 0 -133 -55.5t-49 -149.5v-28z" />
<glyph unicode="&#xf6;" horiz-adv-x="1171" d="M53 500v41q0 153 72.5 270t194 177.5t270.5 60.5q230 0 379 -138t149 -368v-41q0 -161 -69 -281.5t-189 -183t-274 -62.5q-147 0 -267.5 62t-193 183t-72.5 280zM242 1116v318h303v-318h-303zM408 498q0 -93 47 -149t131 -56q90 0 134 55t44 152v28q0 96 -44 149.5 t-130 53.5q-84 0 -133 -55.5t-49 -149.5v-28zM637 1116v318h303v-318h-303z" />
<glyph unicode="&#xf7;" horiz-adv-x="1026" d="M76 410v303h874v-303h-874zM346 78v268h334v-268h-334zM346 776v268h334v-268h-334z" />
<glyph unicode="&#xf8;" horiz-adv-x="1171" d="M53 500v41q0 153 72.5 270t194 177.5t270.5 60.5q136 0 254 -56l20 31h97l-46 -70q96 -66 149.5 -171.5t53.5 -239.5v-41q0 -161 -69 -281.5t-189 -183t-274 -62.5q-143 0 -267 62l-24 -37h-96l51 80q-93 69 -145 176.5t-52 243.5zM408 498q0 -78 30 -127l226 346 q-28 14 -74 14q-84 0 -133 -55.5t-49 -149.5v-28zM498 313q36 -20 88 -20q90 0 134 55t44 152v28q0 86 -37 138z" />
<glyph unicode="&#xf9;" horiz-adv-x="1200" d="M102 352v672h355v-569q1 -72 36.5 -109t90.5 -37q46 0 110 31l39 20v664h354v-1024h-309l-45 72l-35 -19q-138 -71 -252 -71q-150 0 -245.5 98t-98.5 272zM207 1434h360l236 -318h-346z" />
<glyph unicode="&#xfa;" horiz-adv-x="1200" d="M102 352v672h355v-569q1 -72 36.5 -109t90.5 -37q46 0 110 31l39 20v664h354v-1024h-309l-45 72l-35 -19q-138 -71 -252 -71q-150 0 -245.5 98t-98.5 272zM393 1116l236 318h360l-250 -318h-346z" />
<glyph unicode="&#xfb;" horiz-adv-x="1200" d="M102 352v672h355v-569q1 -72 36.5 -109t90.5 -37q46 0 110 31l39 20v664h354v-1024h-309l-45 72l-35 -19q-138 -71 -252 -71q-150 0 -245.5 98t-98.5 272zM231 1116l220 318h290l220 -318h-279l-86 158l-86 -158h-279z" />
<glyph unicode="&#xfc;" horiz-adv-x="1200" d="M102 352v672h355v-569q1 -72 36.5 -109t90.5 -37q46 0 110 31l39 20v664h354v-1024h-309l-45 72l-35 -19q-138 -71 -252 -71q-150 0 -245.5 98t-98.5 272zM244 1116v318h303v-318h-303zM639 1116v318h303v-318h-303z" />
<glyph unicode="&#xfd;" horiz-adv-x="1101" d="M-33 1024h369l225 -575l221 575h357l-553 -1434h-357l158 412zM362 1116l236 318h360l-249 -318h-347z" />
<glyph unicode="&#xfe;" horiz-adv-x="1204" d="M113 -410v1844h352v-482l29 19q115 73 227 73q194 0 310 -135.5t116 -365.5v-43q0 -149 -46.5 -265t-147.5 -187t-246 -71q-128 0 -230 70l-12 8v-465h-352zM465 356l12 -8q55 -37 137 -37t130.5 51.5t48.5 139.5v24q0 85 -46.5 134t-130.5 49q-83 0 -139 -35l-12 -8 v-310z" />
<glyph unicode="&#xff;" horiz-adv-x="1101" d="M-33 1024h369l225 -575l221 575h357l-553 -1434h-357l158 412zM211 1116v318h303v-318h-303zM606 1116v318h303v-318h-303z" />
<glyph unicode="&#x178;" horiz-adv-x="1355" d="M-10 1434h383l305 -578l305 578h383l-510 -963v-471h-354v467zM377 1495v234h252v-234h-252zM723 1495v234h252v-234h-252z" />
<glyph unicode="&#x2c6;" horiz-adv-x="999" d="M141 1485l219 317h291l219 -317h-278l-86 157l-86 -157h-279z" />
<glyph unicode="&#x2dc;" horiz-adv-x="915" d="M78 1464q15 157 77.5 240.5t163.5 83.5q51 0 85 -16t73 -50q8 -7 22.5 -21t22 -21t19 -13t22.5 -6q59 0 68 121h205q-2 -140 -69.5 -232t-174.5 -92q-82 0 -152 60q-9 8 -27 26t-31.5 27.5t-27.5 9.5q-28 0 -45 -27t-26 -90h-205z" />
<glyph unicode="&#x2000;" horiz-adv-x="901" />
<glyph unicode="&#x2001;" horiz-adv-x="1802" />
<glyph unicode="&#x2002;" horiz-adv-x="901" />
<glyph unicode="&#x2003;" horiz-adv-x="1802" />
<glyph unicode="&#x2004;" horiz-adv-x="600" />
<glyph unicode="&#x2005;" horiz-adv-x="450" />
<glyph unicode="&#x2006;" horiz-adv-x="300" />
<glyph unicode="&#x2007;" horiz-adv-x="300" />
<glyph unicode="&#x2008;" horiz-adv-x="225" />
<glyph unicode="&#x2009;" horiz-adv-x="360" />
<glyph unicode="&#x200a;" horiz-adv-x="100" />
<glyph unicode="&#x2010;" horiz-adv-x="788" d="M82 360v340h625v-340h-625z" />
<glyph unicode="&#x2011;" horiz-adv-x="788" d="M82 360v340h625v-340h-625z" />
<glyph unicode="&#x2012;" horiz-adv-x="788" d="M82 360v340h625v-340h-625z" />
<glyph unicode="&#x2013;" horiz-adv-x="1024" d="M82 360v340h860v-340h-860z" />
<glyph unicode="&#x2014;" horiz-adv-x="2048" d="M82 360v340h1884v-340h-1884z" />
<glyph unicode="&#x2018;" horiz-adv-x="563" d="M10 807l244 627h299l-137 -627h-406z" />
<glyph unicode="&#x2019;" horiz-adv-x="514" d="M10 807l117 627h377l-201 -627h-293z" />
<glyph unicode="&#x201a;" horiz-adv-x="503" d="M-10 -248l116 627h377l-200 -627h-293z" />
<glyph unicode="&#x201c;" horiz-adv-x="1030" d="M10 807l244 627h299l-137 -627h-406zM477 807l244 627h299l-137 -627h-406z" />
<glyph unicode="&#x201d;" horiz-adv-x="952" d="M10 807l117 627h377l-201 -627h-293zM449 807l116 627h377l-201 -627h-292z" />
<glyph unicode="&#x201e;" horiz-adv-x="942" d="M-10 -248l116 627h377l-200 -627h-293zM428 -248l117 627h377l-201 -627h-293z" />
<glyph unicode="&#x2022;" horiz-adv-x="675" d="M76 717q0 115 74.5 188.5t187.5 73.5q114 0 188 -73.5t74 -188.5t-73.5 -187.5t-188.5 -72.5q-113 0 -187.5 72.5t-74.5 187.5z" />
<glyph unicode="&#x2026;" horiz-adv-x="1333" d="M84 0v379h334v-379h-334zM500 0v379h334v-379h-334zM915 0v379h334v-379h-334z" />
<glyph unicode="&#x202f;" horiz-adv-x="360" />
<glyph unicode="&#x2039;" horiz-adv-x="679" d="M29 365v309l612 350v-311l-375 -195l375 -190v-310z" />
<glyph unicode="&#x203a;" horiz-adv-x="679" d="M39 18v312l375 192l-375 193v309l612 -346v-309z" />
<glyph unicode="&#x205f;" horiz-adv-x="450" />
<glyph unicode="&#x20ac;" horiz-adv-x="1398" d="M20 446v236h150v72h-150v235h179q56 224 208.5 344.5t383.5 120.5q123 0 225.5 -33t180 -98.5t123 -170.5t50.5 -241h-364q-14 91 -69 144t-153 53q-137 0 -206 -119h237v-235h-293v-72h293v-236h-242q66 -120 207 -120q100 0 155.5 53t65.5 139h369 q-5 -136 -51.5 -240.5t-126.5 -169t-183 -96.5t-227 -32q-227 0 -378 121.5t-205 344.5h-179z" />
<glyph unicode="&#x25fc;" horiz-adv-x="1024" d="M0 0v1024h1024v-1024h-1024z" />
</font>
</defs>
</svg>
